<svg xmlns="http://www.w3.org/2000/svg" viewBox="0 0 1001.23 617.33">
<defs><style>.cls-1{fill:#230202;stroke:#230202;}.cls-1,.cls-2,.cls-3,.cls-4,.cls-5,.cls-6,.cls-7,.cls-8{stroke-miterlimit:10;}.cls-2{fill:#050505;}.cls-2,.cls-6,.cls-7,.cls-8{stroke:#000;}.cls-3{stroke:#fff;}.cls-4{fill:#0f0c0c;stroke:#020101;}.cls-5{stroke:#0c0c0c;}.cls-6{fill:#140d0d;}.cls-7{font-size:140.89px;fill:#020202;}.cls-7,.cls-8{font-family:Cambria;}.cls-8{font-size:45.98px;fill:#160b0b;}.cls-9{letter-spacing:-0.06em;}.cls-10{letter-spacing:-0.1em;}</style></defs><g id="Layer_2" data-name="Layer 2"><g id="Layer_1-2" data-name="Layer 1"><path class="cls-1" d="M92.86,422.94a308.28,308.28,0,0,0-29.38-13A313.1,313.1,0,0,0,2.72,393.57a170.9,170.9,0,0,1,65.74-1A168.21,168.21,0,0,1,114.28,408a33.82,33.82,0,0,0-13,5.77A32.52,32.52,0,0,0,92.86,422.94Z"/><path class="cls-1" d="M146.15,454.24A198.85,198.85,0,0,1,191,477.35a193.75,193.75,0,0,1,34.87,30.82A187.24,187.24,0,0,0,197,464.83a192.83,192.83,0,0,0-40.84-34.67,44.44,44.44,0,0,0-10,5.78,43.57,43.57,0,0,0-7,6.74Z"/><path class="cls-2" d="M41.56,58.45a31.88,31.88,0,0,0,7,14.45,32.59,32.59,0,0,0,8,6.74A134.22,134.22,0,0,0,72.44,90.23a135.72,135.72,0,0,0,15.94,7.71,177.7,177.7,0,0,1,25.9,17.33,173.12,173.12,0,0,1,13.94,12.52,14.55,14.55,0,0,1,14.94-6.74,14,14,0,0,1,9,6.74c5.2-5.66,9.68-10.23,13-13.48C179.67,99.78,186.2,95.42,190,93.12a91.39,91.39,0,0,1,9-4.81,101.72,101.72,0,0,0,26.9-16.38,98.34,98.34,0,0,0,9-8.66,35,35,0,0,0,6-16.37l-10,10.59-11,7.7c6.47-5.38,19.8-18,25.9-38.52a75.71,75.71,0,0,0,3-26l-3,1a46.69,46.69,0,0,1-10,13.48,54.19,54.19,0,0,1-12.93,8.65l0,0A80.16,80.16,0,0,0,186,45.93a34.76,34.76,0,0,0-3,4.82,34,34,0,0,0-2,4.81l-5,5.78q3-7.7,6-15.41a104.24,104.24,0,0,0-78.69,1.93,54.81,54.81,0,0,1,5,7.7,53.3,53.3,0,0,1,4,9.63q-3.28-4.72-7-9.63-3-4-6-7.7a30.32,30.32,0,0,0-9-7.7,31.53,31.53,0,0,0-12-3.86,62.53,62.53,0,0,1-16.94-2.88,63,63,0,0,1-27.89-18.3,49,49,0,0,0,1,21.18A50.37,50.37,0,0,0,46.54,57.49c3.3,3.17,7,6.4,11,9.63q2.52,2,5,3.85a83.7,83.7,0,0,1-12.95-6.74A82.67,82.67,0,0,1,41.56,58.45Z"/><path class="cls-3" d="M93.36,104.68c-.26.72-3.07,9.07,2,15.4,4.92,6.17,15.27,7.91,23.91,2.89l7,5.78a29.57,29.57,0,0,1-19.92,4.82c-2.46-.32-10.88-1.52-16.94-8.67-.34-.4-7.81-9.52-5-20.22a20,20,0,0,1,2-4.82Z"/><path class="cls-4" d="M162.09,121.05c7.08,3.79,15.78,2.49,20.92-2.89a16.05,16.05,0,0,0,3-17.34l7-5.77a24.12,24.12,0,0,1,3,14.44,24.66,24.66,0,0,1-7,14.45A33.44,33.44,0,0,1,175,129.71a34,34,0,0,1-17.93-1.92Z"/><path class="cls-5" d="M141.17,167.27a52.26,52.26,0,0,1-7-12.52,51.49,51.49,0,0,1-3-11.55,15.17,15.17,0,0,1,1-13.49l4-5.77a4.08,4.08,0,0,1,7,0,26.39,26.39,0,0,1,4,4.81,18.58,18.58,0,0,1,3,6.74,16.5,16.5,0,0,1,0,5.78,60.53,60.53,0,0,1-3,13.48A64.17,64.17,0,0,1,141.17,167.27Z"/><path class="cls-6" d="M69.09,89.27c-9.77,10.76-10.86,20-11,24.07-.28,10.89,5,22.73,8,27a36.8,36.8,0,0,1,6,13.48,36.16,36.16,0,0,1,0,15.41A92.07,92.07,0,0,1,101,166.31a91.09,91.09,0,0,1,14,1.92,153,153,0,0,0-17.93,1c-10.54,1.18-17.36,2-24.91,5.77a47.93,47.93,0,0,0-13.94,10.6A126.28,126.28,0,0,0,37.21,253c-.52,38.47,17.14,65.69,23.91,75.11A533.31,533.31,0,0,0,100,378.16q7.49,8.55,15,16.37c.62.74,3.77,4.57,3,9.63a11.14,11.14,0,0,1-2,4.82A48.1,48.1,0,0,0,92,430.16l1,14.45,14,7.7a21.58,21.58,0,0,1-4-6.74A21.26,21.26,0,0,1,102,435a40.24,40.24,0,0,1,12-11.56,40.84,40.84,0,0,1,8-3.85L106.94,435l3.77,15.67c2.33.8,4.72,1.67,7.18,2.63s4.76,1.91,7,2.88a26.39,26.39,0,0,1-4-7.7,26.06,26.06,0,0,1-1-11.56,23.27,23.27,0,0,1,7-7.7,24.18,24.18,0,0,1,9-3.85l-12.95,12.52a26.36,26.36,0,0,0,2,7.7,27,27,0,0,0,6,8.67l12,1.92-8-14.44a32.65,32.65,0,0,1,19.92-13.48c4.18,2.34,8.51,4.9,12.95,7.7,4.6,2.9,8.91,5.81,13,8.67a127.83,127.83,0,0,1,17.93,18.3,125.66,125.66,0,0,1,10,14.44,210.24,210.24,0,0,0-7-22.15c-4-10.61-7.41-17.12-7-17.33s6.18,8.77,11,19.26a144.29,144.29,0,0,1,6,15.41,41.62,41.62,0,0,0,11.95,10.59,42.41,42.41,0,0,0,6,2.89,15.8,15.8,0,0,0,10,0,14.85,14.85,0,0,0,6-3.86,30.87,30.87,0,0,0,0-8.66,33,33,0,0,0-3-9.63c-1.12-2.49-8.53-19-8-19.26s8,11.2,14.94,26c2.2,4.7,3.85,8.7,5,11.55a34.6,34.6,0,0,0,5,3.86,17.86,17.86,0,0,0,6,2.89,14.11,14.11,0,0,0,6,0,16.24,16.24,0,0,0,7-2.89,15.39,15.39,0,0,0,2.62-2.44l.37-1v-7.12c0-2-.39-5.53-2-12.51-3.09-8.84-6.71-18.19-11-27.93s-8.59-18.69-13-27c-9.55,3.55-20.11,1.66-26.89-4.82-7.47-7.14-7.07-16.71-7-18.3-12.56,2.09-24.73-2.47-30.88-11.55a26.54,26.54,0,0,1-4-18.3,35.81,35.81,0,0,1-24.9-6.74,33.43,33.43,0,0,1-12.95-22.15c-10.3,1.46-20.18-2.79-24.9-10.59-4.6-7.6-2.5-15.58-2-17.33a29.33,29.33,0,0,1-13.95-10.6,27.72,27.72,0,0,1-5-15.41,131.51,131.51,0,0,1,12-44.29l-5,24.07q-1,6.75-2,13.48a28.55,28.55,0,0,0,3,15.41,27.78,27.78,0,0,0,4,5.78,11.57,11.57,0,0,0,9,1.93,11.14,11.14,0,0,0,7-4.82,48.24,48.24,0,0,0-1,30.82c.34.48,4.26,5.84,11,5.77a13.14,13.14,0,0,0,8-2.89,23.38,23.38,0,0,0,7-3.85,21.9,21.9,0,0,0,3-2.89,43.26,43.26,0,0,0-2,13.49,42.74,42.74,0,0,0,1,8.66c.43,1.1,4.43,10.75,14.94,13.48a22.67,22.67,0,0,0,13.94-1l9-2.89a27.25,27.25,0,0,0,4,29.85c7.62,4.72,16.44,5.61,22.91,1.93a17.14,17.14,0,0,0,6-5.78l1,17.34a13.86,13.86,0,0,0,7,12.52,14.56,14.56,0,0,0,10.95,1c7.2-2.14,9.7-8.88,10-9.63,1.08,3,5.53,14.91,12,22.15,2.42,2.73,4.54,4.13,7,4.81a13.62,13.62,0,0,0,7,0,23.68,23.68,0,0,1,7-5.78c.67-.36,1.34-.68,2-1a19.35,19.35,0,0,0,5-10.59,18.64,18.64,0,0,0-1-8.67A137,137,0,0,1,277.27,330a192.28,192.28,0,0,1-3-23.11c-.38-5.58-.39-9.49-1-19.26-.36-5.7-.73-10.38-1-13.48a262.14,262.14,0,0,0-9-46.22c-1.55-5.37-3.23-10.51-5-15.41a66.46,66.46,0,0,0-16.93-22.15,68.5,68.5,0,0,0-16.94-10.59,117.33,117.33,0,0,0-40.83-8.67,77,77,0,0,1,29.88,1,75.53,75.53,0,0,1,29.88,14.45,129.5,129.5,0,0,0-7-22.15,132.88,132.88,0,0,0-10-19.26,91.3,91.3,0,0,0-7-67.41,33.85,33.85,0,0,0-10,8.67,32.7,32.7,0,0,0-4,6.74c8,7.38,11.16,18.26,8,27.93-3.73,11.26-14.32,15.72-15.94,16.37l-28.89,14.44a115.35,115.35,0,0,0-11.95,6.74,112.78,112.78,0,0,0-14.94,11.56,179.65,179.65,0,0,0-17.93-10.59c-7-3.62-10-4.57-16.93-7.71-18.33-8.27-27.49-12.4-31.88-19.26-.57-.88-7.94-12.8-3-25a25,25,0,0,1,6-8.67Z"/><text class="cls-7" transform="matrix(1.56, 0, 0, 1, 302.39, 284.62)">AI EDU</text><text class="cls-8" transform="translate(304.33 340.59) scale(1.38 1)">EDUC<tspan class="cls-9" x="112.52" y="0">A</tspan><tspan x="138.48" y="0">TION IS THE KE</tspan><tspan class="cls-10" x="450.72" y="0">Y</tspan><tspan x="472.23" y="0">.</tspan></text></g></g>
</svg>