<svg xmlns="http://www.w3.org/2000/svg" xmlns:xlink="http://www.w3.org/1999/xlink" viewBox="0 0 484.22 394.02"><defs><style>.cls-1{fill:url(#linear-gradient);}.cls-2{stroke:#fff;fill:url(#linear-gradient-2);}.cls-2,.cls-3,.cls-4{stroke-miterlimit:10;}.cls-3{fill:url(#linear-gradient-3);stroke:url(#linear-gradient-4);}.cls-4{fill:url(#linear-gradient-5);stroke:url(#linear-gradient-6);}</style><linearGradient id="linear-gradient" y1="197.01" x2="484.22" y2="197.01" gradientUnits="userSpaceOnUse"><stop offset="0.01" stop-color="#be278f"/><stop offset="0.51" stop-color="#9e005d"/><stop offset="1" stop-color="#ed1e79"/></linearGradient><linearGradient id="linear-gradient-2" x1="228.92" y1="312.08" x2="255.06" y2="312.08" gradientUnits="userSpaceOnUse"><stop offset="0" stop-color="#93278f"/><stop offset="1" stop-color="#9e005d"/></linearGradient><linearGradient id="linear-gradient-3" x1="170.5" y1="140.65" x2="253.96" y2="140.65" gradientUnits="userSpaceOnUse"><stop offset="0" stop-color="#1b1464"/><stop offset="1" stop-color="#ed1e79"/></linearGradient><linearGradient id="linear-gradient-4" x1="169.84" y1="140.65" x2="255.03" y2="140.65" xlink:href="#linear-gradient-3"/><linearGradient id="linear-gradient-5" x1="227.49" y1="162.55" x2="308.23" y2="162.55" gradientUnits="userSpaceOnUse"><stop offset="0" stop-color="#fcee21"/><stop offset="0.39" stop-color="#fcee21"/><stop offset="1" stop-color="#fbb03b"/></linearGradient><linearGradient id="linear-gradient-6" x1="226.38" y1="162.56" x2="308.89" y2="162.56" gradientUnits="userSpaceOnUse"><stop offset="0.32" stop-color="#fcee21"/><stop offset="1" stop-color="#fbb03b"/></linearGradient></defs><g id="Layer_2" data-name="Layer 2"><g id="Layer_1-2" data-name="Layer 1"><path class="cls-1" d="M60.5,338.83H230.58V359.5l-14.65,14H115.29V394h252V373.08l-99,0-14.66-14V339.92L421,339.45a40.06,40.06,0,0,0,22.16-13.61,36.91,36.91,0,0,0,8.17-24.39V200.16c-.16-1.26-1.21-10.82,6-17.65,6.67-6.34,17.66-7.67,27-3h0V160.2c-1.46.53-12.78,4.45-24.17-1.85a27.8,27.8,0,0,1-13.71-19.08V32.9A40.92,40.92,0,0,0,432.78,11C418.63-.81,401.41,1,398.58,1.39V19.72h0a26.8,26.8,0,0,1,25.51,5.87c8.27,7.77,7.57,18.14,7.43,19.74V140.2s.38,13,8.51,21.29a32.31,32.31,0,0,0,11.55,7.5.23.23,0,0,1,0,.43,30.94,30.94,0,0,0-11.46,7.27c-6.35,6.44-7.76,13.79-7,16.53v85.69H51.06v-83.6a25.67,25.67,0,0,0-5-15.6,28.83,28.83,0,0,0-15-10.29,30.38,30.38,0,0,0,13-8.42,27.63,27.63,0,0,0,7-17.47V37.78A27.08,27.08,0,0,1,64.35,21c10.7-5.8,21.31-2.69,22.94-2.18V.61C86,.37,62.23-3.69,46.71,12.84,36.25,24,36.16,37.36,36.23,40.73v95.38h0a23.56,23.56,0,0,1-5,16.83C24.58,161,12.11,164.22,0,160.74H0v18.41c11.17-4.06,23.45-1.47,30.58,6.23,7.76,8.38,5.94,19.06,5.65,20.59v91.39h0a41.64,41.64,0,0,0,7,26.52A45.35,45.35,0,0,0,60.5,338.83Z"/><ellipse class="cls-2" cx="241.99" cy="312.08" rx="13.07" ry="12.51"/><path class="cls-3" d="M254,89,221.6,88.4,170.5,148l38.61,44.91,32.52-1.09L203.5,148.13Z"/><path class="cls-4" d="M237.32,113l32.25-.42,38.66,45.12q-23.6,27.26-47.2,54.49l-33.54.41,47.64-54.69Z"/></g></g></svg>