<svg xmlns="http://www.w3.org/2000/svg" xmlns:xlink="http://www.w3.org/1999/xlink" viewBox="0 0 1002.59 528.51"><defs><style>.cls-1,.cls-10,.cls-11,.cls-12,.cls-13,.cls-14,.cls-15,.cls-16,.cls-17,.cls-18,.cls-19,.cls-2,.cls-20,.cls-21,.cls-22,.cls-23,.cls-24,.cls-25,.cls-26,.cls-27,.cls-28,.cls-29,.cls-3,.cls-30,.cls-31,.cls-32,.cls-33,.cls-34,.cls-35,.cls-36,.cls-37,.cls-38,.cls-39,.cls-4,.cls-40,.cls-41,.cls-42,.cls-43,.cls-44,.cls-45,.cls-46,.cls-47,.cls-48,.cls-49,.cls-5,.cls-50,.cls-6,.cls-7,.cls-8,.cls-9{stroke-miterlimit:10;}.cls-1{fill:url(#linear-gradient);stroke:url(#linear-gradient-2);}.cls-2{fill:url(#linear-gradient-3);stroke:url(#linear-gradient-4);}.cls-3{fill:url(#linear-gradient-5);stroke:url(#linear-gradient-6);}.cls-4{fill:url(#linear-gradient-7);stroke:url(#linear-gradient-8);}.cls-5{fill:url(#linear-gradient-9);stroke:url(#linear-gradient-10);}.cls-6{fill:url(#linear-gradient-11);stroke:url(#linear-gradient-12);}.cls-7{fill:url(#linear-gradient-13);stroke:url(#linear-gradient-14);}.cls-8{fill:url(#linear-gradient-15);stroke:url(#linear-gradient-16);}.cls-9{fill:url(#linear-gradient-17);stroke:url(#linear-gradient-18);}.cls-10{fill:url(#linear-gradient-19);stroke:url(#linear-gradient-20);}.cls-11{fill:url(#linear-gradient-21);stroke:url(#linear-gradient-22);}.cls-12{fill:url(#linear-gradient-23);stroke:url(#linear-gradient-24);}.cls-13{fill:url(#linear-gradient-25);stroke:url(#linear-gradient-26);}.cls-14{fill:url(#linear-gradient-27);stroke:url(#linear-gradient-28);}.cls-15{fill:url(#linear-gradient-29);stroke:url(#linear-gradient-30);}.cls-16{fill:url(#linear-gradient-31);stroke:url(#linear-gradient-32);}.cls-17{fill:url(#linear-gradient-33);stroke:url(#linear-gradient-34);}.cls-18{fill:url(#linear-gradient-35);stroke:url(#linear-gradient-36);}.cls-19{fill:url(#linear-gradient-37);stroke:url(#linear-gradient-38);}.cls-20{fill:url(#linear-gradient-39);stroke:url(#linear-gradient-40);}.cls-21{fill:url(#linear-gradient-41);stroke:url(#linear-gradient-42);}.cls-22{fill:url(#linear-gradient-43);stroke:url(#linear-gradient-44);}.cls-23{fill:url(#linear-gradient-45);stroke:url(#linear-gradient-46);}.cls-24{fill:url(#linear-gradient-47);stroke:url(#linear-gradient-48);}.cls-25{fill:url(#linear-gradient-49);stroke:url(#linear-gradient-50);}.cls-26{fill:url(#linear-gradient-51);stroke:url(#linear-gradient-52);}.cls-27{fill:url(#linear-gradient-53);stroke:url(#linear-gradient-54);}.cls-28{fill:url(#linear-gradient-55);stroke:url(#linear-gradient-56);}.cls-29{fill:url(#linear-gradient-57);stroke:url(#linear-gradient-58);}.cls-30{fill:url(#linear-gradient-59);stroke:url(#linear-gradient-60);}.cls-31{fill:url(#linear-gradient-61);stroke:url(#linear-gradient-62);}.cls-32{fill:url(#linear-gradient-63);stroke:url(#linear-gradient-64);}.cls-33{fill:url(#linear-gradient-65);stroke:url(#linear-gradient-66);}.cls-34{fill:url(#linear-gradient-67);stroke:url(#linear-gradient-68);}.cls-35{fill:url(#linear-gradient-69);stroke:url(#linear-gradient-70);}.cls-36{fill:url(#linear-gradient-71);stroke:url(#linear-gradient-72);}.cls-37{fill:url(#linear-gradient-73);stroke:url(#linear-gradient-74);}.cls-38{fill:url(#linear-gradient-75);stroke:url(#linear-gradient-76);}.cls-39{fill:url(#linear-gradient-77);stroke:url(#linear-gradient-78);}.cls-40{fill:url(#linear-gradient-79);stroke:url(#linear-gradient-80);}.cls-41{fill:url(#linear-gradient-81);stroke:url(#linear-gradient-82);}.cls-42{fill:url(#linear-gradient-83);stroke:url(#linear-gradient-84);}.cls-43{fill:url(#linear-gradient-85);stroke:url(#linear-gradient-86);}.cls-44{fill:url(#linear-gradient-87);stroke:url(#linear-gradient-88);}.cls-45{fill:url(#linear-gradient-89);stroke:url(#linear-gradient-90);}.cls-46{fill:url(#linear-gradient-91);stroke:url(#linear-gradient-92);}.cls-47{fill:url(#linear-gradient-93);stroke:url(#linear-gradient-94);}.cls-48{fill:url(#linear-gradient-95);stroke:url(#linear-gradient-96);}.cls-49{stroke-linecap:round;fill:url(#linear-gradient-97);stroke:url(#linear-gradient-98);}.cls-50{font-size:47.96px;stroke:#000;stroke-width:2px;font-family:AdobeMyungjoStd-Medium-KSCpc-EUC-H, Adobe Myungjo Std;}</style><linearGradient id="linear-gradient" x1="258.22" y1="264.26" x2="749.5" y2="264.26" gradientUnits="userSpaceOnUse"><stop offset="0" stop-color="#fcee21"/><stop offset="0.23" stop-color="#fcd52b"/><stop offset="0.49" stop-color="#fbc134"/><stop offset="0.75" stop-color="#fbb439"/><stop offset="1" stop-color="#fbb03b"/></linearGradient><linearGradient id="linear-gradient-2" x1="257.72" y1="264.26" x2="750" y2="264.26" xlink:href="#linear-gradient"/><linearGradient id="linear-gradient-3" x1="317.8" y1="164.01" x2="697.27" y2="164.01" xlink:href="#linear-gradient"/><linearGradient id="linear-gradient-4" x1="317.3" y1="164.01" x2="697.77" y2="164.01" xlink:href="#linear-gradient"/><linearGradient id="linear-gradient-5" x1="336.82" y1="220.89" x2="449.56" y2="220.89" xlink:href="#linear-gradient"/><linearGradient id="linear-gradient-6" x1="336.32" y1="221.36" x2="450.06" y2="221.36" xlink:href="#linear-gradient"/><linearGradient id="linear-gradient-7" x1="556.93" y1="221.86" x2="667.12" y2="221.86" xlink:href="#linear-gradient"/><linearGradient id="linear-gradient-8" x1="556.43" y1="222.36" x2="667.62" y2="222.36" xlink:href="#linear-gradient"/><linearGradient id="linear-gradient-9" x1="239.6" y1="153.09" x2="334.76" y2="153.09" xlink:href="#linear-gradient"/><linearGradient id="linear-gradient-10" x1="237.98" y1="152.7" x2="335.29" y2="152.7" xlink:href="#linear-gradient"/><linearGradient id="linear-gradient-11" x1="267.53" y1="178.98" x2="332.75" y2="178.98" xlink:href="#linear-gradient"/><linearGradient id="linear-gradient-12" x1="266.69" y1="178.96" x2="333.25" y2="178.96" xlink:href="#linear-gradient"/><linearGradient id="linear-gradient-13" x1="275.8" y1="195.35" x2="343.52" y2="195.35" xlink:href="#linear-gradient"/><linearGradient id="linear-gradient-14" x1="272.87" y1="195.36" x2="344.02" y2="195.36" xlink:href="#linear-gradient"/><linearGradient id="linear-gradient-15" x1="296.37" y1="210.03" x2="353.71" y2="210.03" xlink:href="#linear-gradient"/><linearGradient id="linear-gradient-16" x1="295.87" y1="210.03" x2="354.21" y2="210.03" xlink:href="#linear-gradient"/><linearGradient id="linear-gradient-17" x1="308.9" y1="224.51" x2="361.09" y2="224.51" xlink:href="#linear-gradient"/><linearGradient id="linear-gradient-18" x1="308.4" y1="224.46" x2="361.59" y2="224.46" xlink:href="#linear-gradient"/><linearGradient id="linear-gradient-19" x1="319.21" y1="239.61" x2="373.8" y2="239.61" xlink:href="#linear-gradient"/><linearGradient id="linear-gradient-20" x1="318.71" y1="239.61" x2="374.3" y2="239.61" xlink:href="#linear-gradient"/><linearGradient id="linear-gradient-21" x1="332.98" y1="253.07" x2="384.09" y2="253.07" xlink:href="#linear-gradient"/><linearGradient id="linear-gradient-22" x1="332.48" y1="253.07" x2="384.59" y2="253.07" xlink:href="#linear-gradient"/><linearGradient id="linear-gradient-23" x1="347.07" y1="265.57" x2="395.99" y2="265.57" xlink:href="#linear-gradient"/><linearGradient id="linear-gradient-24" x1="346.57" y1="265.57" x2="396.49" y2="265.57" xlink:href="#linear-gradient"/><linearGradient id="linear-gradient-25" x1="366.82" y1="276.11" x2="410.99" y2="276.11" xlink:href="#linear-gradient"/><linearGradient id="linear-gradient-26" x1="366.21" y1="276.11" x2="411.49" y2="276.11" xlink:href="#linear-gradient"/><linearGradient id="linear-gradient-27" x1="383.33" y1="285.63" x2="424.86" y2="285.63" xlink:href="#linear-gradient"/><linearGradient id="linear-gradient-28" x1="382.83" y1="285.63" x2="425.36" y2="285.63" xlink:href="#linear-gradient"/><linearGradient id="linear-gradient-29" x1="405.47" y1="294.91" x2="440.02" y2="294.91" xlink:href="#linear-gradient"/><linearGradient id="linear-gradient-30" x1="404.97" y1="294.91" x2="440.52" y2="294.91" xlink:href="#linear-gradient"/><linearGradient id="linear-gradient-31" x1="425.77" y1="302.55" x2="450.85" y2="302.55" xlink:href="#linear-gradient"/><linearGradient id="linear-gradient-32" x1="425.18" y1="301.87" x2="451.35" y2="301.87" xlink:href="#linear-gradient"/><linearGradient id="linear-gradient-33" x1="1.72" y1="151.03" x2="249.95" y2="151.03" xlink:href="#linear-gradient"/><linearGradient id="linear-gradient-34" x1="0" y1="150.97" x2="250.6" y2="150.97" xlink:href="#linear-gradient"/><linearGradient id="linear-gradient-35" x1="23.44" y1="176.86" x2="266.49" y2="176.86" xlink:href="#linear-gradient"/><linearGradient id="linear-gradient-36" x1="21.84" y1="176.78" x2="266.99" y2="176.78" xlink:href="#linear-gradient"/><linearGradient id="linear-gradient-37" x1="35.85" y1="196.46" x2="285.15" y2="196.46" xlink:href="#linear-gradient"/><linearGradient id="linear-gradient-38" x1="33.68" y1="196" x2="285.65" y2="196" xlink:href="#linear-gradient"/><linearGradient id="linear-gradient-39" x1="53.43" y1="221.74" x2="294.42" y2="221.74" xlink:href="#linear-gradient"/><linearGradient id="linear-gradient-40" x1="51.28" y1="221.65" x2="294.92" y2="221.65" xlink:href="#linear-gradient"/><linearGradient id="linear-gradient-41" x1="108.25" y1="244.45" x2="311.01" y2="244.45" xlink:href="#linear-gradient"/><linearGradient id="linear-gradient-42" x1="106.66" y1="244.36" x2="311.51" y2="244.36" xlink:href="#linear-gradient"/><linearGradient id="linear-gradient-43" x1="153.76" y1="268.43" x2="323.48" y2="268.43" xlink:href="#linear-gradient"/><linearGradient id="linear-gradient-44" x1="151.61" y1="268.16" x2="323.98" y2="268.16" xlink:href="#linear-gradient"/><linearGradient id="linear-gradient-45" x1="669.74" y1="155.31" x2="766.05" y2="155.31" xlink:href="#linear-gradient"/><linearGradient id="linear-gradient-46" x1="669.24" y1="154.9" x2="768.12" y2="154.9" xlink:href="#linear-gradient"/><linearGradient id="linear-gradient-47" x1="670.87" y1="181.44" x2="736.06" y2="181.44" xlink:href="#linear-gradient"/><linearGradient id="linear-gradient-48" x1="670.37" y1="181.44" x2="736.81" y2="181.44" xlink:href="#linear-gradient"/><linearGradient id="linear-gradient-49" x1="663.63" y1="196.69" x2="725.71" y2="196.69" xlink:href="#linear-gradient"/><linearGradient id="linear-gradient-50" x1="663.13" y1="196.7" x2="727.71" y2="196.7" xlink:href="#linear-gradient"/><linearGradient id="linear-gradient-51" x1="652.38" y1="210.6" x2="708.19" y2="210.6" xlink:href="#linear-gradient"/><linearGradient id="linear-gradient-52" x1="651.88" y1="210.6" x2="708.69" y2="210.6" xlink:href="#linear-gradient"/><linearGradient id="linear-gradient-53" x1="643.36" y1="226.48" x2="695.73" y2="226.48" xlink:href="#linear-gradient"/><linearGradient id="linear-gradient-54" x1="642.86" y1="226.49" x2="696.23" y2="226.49" xlink:href="#linear-gradient"/><linearGradient id="linear-gradient-55" x1="633.09" y1="239.97" x2="684.58" y2="239.97" xlink:href="#linear-gradient"/><linearGradient id="linear-gradient-56" x1="632.59" y1="239.95" x2="685.08" y2="239.95" xlink:href="#linear-gradient"/><linearGradient id="linear-gradient-57" x1="620.54" y1="253.56" x2="669.86" y2="253.56" xlink:href="#linear-gradient"/><linearGradient id="linear-gradient-58" x1="620.04" y1="253.56" x2="670.34" y2="253.56" xlink:href="#linear-gradient"/><linearGradient id="linear-gradient-59" x1="609.86" y1="266.54" x2="654.54" y2="266.54" xlink:href="#linear-gradient"/><linearGradient id="linear-gradient-60" x1="609.36" y1="266.54" x2="655.04" y2="266.54" xlink:href="#linear-gradient"/><linearGradient id="linear-gradient-61" x1="579.77" y1="286.56" x2="619.18" y2="286.56" xlink:href="#linear-gradient"/><linearGradient id="linear-gradient-62" x1="579.27" y1="286.56" x2="619.71" y2="286.56" xlink:href="#linear-gradient"/><linearGradient id="linear-gradient-63" x1="564.37" y1="295.94" x2="598.76" y2="295.94" xlink:href="#linear-gradient"/><linearGradient id="linear-gradient-64" x1="563.86" y1="295.94" x2="599.26" y2="295.94" xlink:href="#linear-gradient"/><linearGradient id="linear-gradient-65" x1="553.93" y1="301.37" x2="577.81" y2="301.37" xlink:href="#linear-gradient"/><linearGradient id="linear-gradient-66" x1="553.43" y1="300.24" x2="578.55" y2="300.24" xlink:href="#linear-gradient"/><linearGradient id="linear-gradient-67" x1="754.61" y1="152.54" x2="1000.83" y2="152.54" xlink:href="#linear-gradient"/><linearGradient id="linear-gradient-68" x1="754.11" y1="152.38" x2="1002.59" y2="152.38" xlink:href="#linear-gradient"/><linearGradient id="linear-gradient-69" x1="736.04" y1="178.58" x2="982.22" y2="178.58" xlink:href="#linear-gradient"/><linearGradient id="linear-gradient-70" x1="735.54" y1="178.45" x2="984.28" y2="178.45" xlink:href="#linear-gradient"/><linearGradient id="linear-gradient-71" x1="722.6" y1="200.15" x2="967.74" y2="200.15" xlink:href="#linear-gradient"/><linearGradient id="linear-gradient-72" x1="722.1" y1="199.94" x2="969.51" y2="199.94" xlink:href="#linear-gradient"/><linearGradient id="linear-gradient-73" x1="710.19" y1="224.52" x2="950.15" y2="224.52" xlink:href="#linear-gradient"/><linearGradient id="linear-gradient-74" x1="709.69" y1="224.43" x2="952.53" y2="224.43" xlink:href="#linear-gradient"/><linearGradient id="linear-gradient-75" x1="692.5" y1="247.6" x2="892.23" y2="247.6" xlink:href="#linear-gradient"/><linearGradient id="linear-gradient-76" x1="692" y1="247.54" x2="893.81" y2="247.54" xlink:href="#linear-gradient"/><linearGradient id="linear-gradient-77" x1="678.12" y1="270.98" x2="849.83" y2="270.98" xlink:href="#linear-gradient"/><linearGradient id="linear-gradient-78" x1="677.62" y1="270.9" x2="851.74" y2="270.9" xlink:href="#linear-gradient"/><linearGradient id="linear-gradient-79" x1="351.3" y1="332.62" x2="650.21" y2="332.62" xlink:href="#linear-gradient"/><linearGradient id="linear-gradient-80" x1="350.8" y1="332.62" x2="650.71" y2="332.62" xlink:href="#linear-gradient"/><linearGradient id="linear-gradient-81" x1="351.3" y1="385.17" x2="649.18" y2="385.17" xlink:href="#linear-gradient"/><linearGradient id="linear-gradient-82" x1="350.8" y1="385.17" x2="649.68" y2="385.17" xlink:href="#linear-gradient"/><linearGradient id="linear-gradient-83" x1="421.64" y1="444.56" x2="472.25" y2="444.56" xlink:href="#linear-gradient"/><linearGradient id="linear-gradient-84" x1="420.58" y1="444.82" x2="472.75" y2="444.82" xlink:href="#linear-gradient"/><linearGradient id="linear-gradient-85" x1="454.22" y1="438.47" x2="484.78" y2="438.47" xlink:href="#linear-gradient"/><linearGradient id="linear-gradient-86" x1="453.53" y1="437.97" x2="485.28" y2="437.97" xlink:href="#linear-gradient"/><linearGradient id="linear-gradient-87" x1="474.18" y1="432.39" x2="501.09" y2="432.39" xlink:href="#linear-gradient"/><linearGradient id="linear-gradient-88" x1="472.35" y1="433" x2="501.59" y2="433" xlink:href="#linear-gradient"/><linearGradient id="linear-gradient-89" x1="505.62" y1="432.94" x2="530.94" y2="432.94" xlink:href="#linear-gradient"/><linearGradient id="linear-gradient-90" x1="505.12" y1="432.57" x2="531.34" y2="432.57" xlink:href="#linear-gradient"/><linearGradient id="linear-gradient-91" x1="522.48" y1="439.04" x2="553.01" y2="439.04" xlink:href="#linear-gradient"/><linearGradient id="linear-gradient-92" x1="521.98" y1="438.56" x2="553.61" y2="438.56" xlink:href="#linear-gradient"/><linearGradient id="linear-gradient-93" x1="536.14" y1="446.22" x2="584.53" y2="446.22" xlink:href="#linear-gradient"/><linearGradient id="linear-gradient-94" x1="535.64" y1="446.59" x2="585.69" y2="446.59" xlink:href="#linear-gradient"/><linearGradient id="linear-gradient-95" x1="594.01" y1="276.91" x2="636.77" y2="276.91" xlink:href="#linear-gradient"/><linearGradient id="linear-gradient-96" x1="593.51" y1="276.91" x2="637.39" y2="276.91" xlink:href="#linear-gradient"/><linearGradient id="linear-gradient-97" x1="490.93" y1="129.57" x2="496.1" y2="129.57" gradientUnits="userSpaceOnUse"><stop offset="0" stop-color="#fcee21"/><stop offset="0.1" stop-color="#fcd82a"/><stop offset="0.22" stop-color="#fbc632"/><stop offset="0.37" stop-color="#fbb937"/><stop offset="0.56" stop-color="#fbb23a"/><stop offset="1" stop-color="#fbb03b"/></linearGradient><linearGradient id="linear-gradient-98" x1="490.43" y1="129.57" x2="496.6" y2="129.57" gradientUnits="userSpaceOnUse"><stop offset="0" stop-color="#fcee21"/><stop offset="0.01" stop-color="#fceb22"/><stop offset="0.1" stop-color="#fcd52b"/><stop offset="0.2" stop-color="#fbc432"/><stop offset="0.33" stop-color="#fbb937"/><stop offset="0.5" stop-color="#fbb23a"/><stop offset="1" stop-color="#fbb03b"/></linearGradient></defs><g id="Layer_2" data-name="Layer 2"><g id="Layer_1-2" data-name="Layer 1"><path class="cls-1" d="M503.86.5C368.2.5,258.22,118.59,258.22,264.26S368.2,528,503.86,528,749.5,409.93,749.5,264.26,639.52.5,503.86.5Zm1,507.11c-126.53,0-229.1-108.73-229.1-242.84S378.37,21.93,504.9,21.93,734,130.65,734,264.77,631.42,507.61,504.9,507.61Z"/><path class="cls-2" d="M470.25,195.38c-4.73,4.46-14.65,13.82-27.93,12.25a29.46,29.46,0,0,1-16.5-8.12l-.11-.09L403,181.1l-16.08-11.9a2.22,2.22,0,0,0-1.05-.4c-4.68-.46-9.67-.8-14.93-1-4.92-.16-9.61-.15-14,0a2,2,0,0,1-.87-.16,151.11,151.11,0,0,1-21.3-11,149.83,149.83,0,0,1-16.21-11.68,2.06,2.06,0,0,1,2.12-3.47l9.61,3.8a2.35,2.35,0,0,0,.69.14c5.43.19,41.42,1.37,63.77,0a30.48,30.48,0,0,0,14.48-4.08,28.25,28.25,0,0,0,7.72-7,2.08,2.08,0,0,1,3.71,1.6c-.29,1.39-.64,2.85-1.08,4.35A51.09,51.09,0,0,1,411.73,156a2,2,0,0,0-.4,1.3,83.67,83.67,0,0,1,0,9.48c-.17,3-.49,5.71-.88,8.23a2,2,0,0,0,.51,1.68,181.74,181.74,0,0,0,28.69,25.35l7,1.16A51.69,51.69,0,0,0,464,194.36a68.26,68.26,0,0,0,8.28-8.16c10.22-12.23,10.49-37.1,10.38-43.45a4.08,4.08,0,0,0-1.5-1.93c-3.95-3.21-13.83-1.69-16.87,4.69-2.36,5,.62,10.34,1,11a22,22,0,0,1-8-11c-2.82-9.06,1.76-16.87,3-19a36.83,36.83,0,0,1,10.76-10.58,1.37,1.37,0,0,1,.18-.11l.23-.1a63.57,63.57,0,0,1,44.7-.15,2,2,0,0,1,.95.74A60.7,60.7,0,0,1,524,129.06a62.31,62.31,0,0,1,4.14,19.39c.61,8.76,3.46,22.22,13.36,42.68a2.07,2.07,0,0,0,.19.32c3.22,4.46,9.22,11.11,20.28,16.56a2.09,2.09,0,0,0,2.38-.4l28.3-27.91a2.08,2.08,0,0,0,.61-1.54q-.49-11-1-22.09a2,2,0,0,0-.25-.89,72.4,72.4,0,0,1-6-13.87,71,71,0,0,1-1.8-7,2.08,2.08,0,0,1,3.69-1.66,46.33,46.33,0,0,0,15.26,12.48,2.09,2.09,0,0,0,.92.23l66.57,1,.33,0a59,59,0,0,0,12.25-3,58,58,0,0,0,10.76-5.26,2.06,2.06,0,0,1,3,2.65l0,.08a2,2,0,0,1-.7.79l-21.27,14-21.09,13.88a2.17,2.17,0,0,1-1.38.33,171,171,0,0,0-19.93-.94c-12,.12-15.9,1.41-17.58,2a34.53,34.53,0,0,0-13.4,9.13l-.1.1-16.5,15.25-20.72,20.45a2.1,2.1,0,0,1-2.3.43c-14.7-6.41-21.82-14.54-25.59-20.88-8.13-13.64-12-37.72-13.44-46.93a46.74,46.74,0,0,0-3.11-11.22A48.18,48.18,0,0,0,511,123.37a2,2,0,0,0-1-.59,55.63,55.63,0,0,0-32.78.91,2.07,2.07,0,0,0-1.21,1.09,6.3,6.3,0,0,0-.61,4.28c1.1,4.45,7.64,4.59,10.34,10.21.51,1.06.8,2.14,1,5.1a73.92,73.92,0,0,1-1,19.32c0,.05,0,.09,0,.14C485,169.59,482.33,184,470.25,195.38Z"/><path class="cls-3" d="M337.86,172.94h0l47.58-1c-.35,3.4-.69,6.8-1,10.2h9.31v8.16l8.27,1,2.07,12.25h8.28l2.07,9.18h9.3l2.07,10.2h9.31q3.62,7.66,7.24,15.31l2.07,10.2,3.1-4.08a40.27,40.27,0,0,1,0,25.51q-5.16-12.75-10.34-25.51a26.66,26.66,0,0,1-1,13.26,26.38,26.38,0,0,1-3.11,6.13l-8.27-13.27-10.34,4.08q-1.56-5.61-3.11-11.22l-11.37,1-2.07-12.24-10.35,1c-.34-3.06-.69-6.13-1-9.19H376.13v-9.18l-12.41,1q.51-6.12,1-12.24l-9.31-1,2.07-10.21-10.34-1V180.08l-8.28-1c-1.65-1.24-2.05-2.29-2.07-3.06A7.35,7.35,0,0,1,337.86,172.94Z"/><path class="cls-4" d="M666,174.59Q653.4,174,639.87,174q-10.65,0-20.78.23c.39,3.35.77,6.71,1.16,10.07l-9.19.12c0,2.69.07,5.37.11,8.06L603,193.56q-.94,6.06-1.88,12.12l-8.16.11-1.92,9.1-9.19.12q-.95,5.06-1.91,10.11l-9.18.12q-3.46,7.6-6.94,15.22-1,5.06-1.91,10.11l-3.11-4a45,45,0,0,0-.69,23.19L569,246.44a26.24,26.24,0,0,0,1.2,13.09,25.56,25.56,0,0,0,3.14,6l8-13.22,10.25,3.9q1.47-5.56,2.92-11.13l11.24.86q.93-6.06,1.88-12.12l10.21.87.9-9.08,10.21-.14-.12-9.07,12.26.85q-.6-6-1.18-12.09l9.17-1.13q-1.1-5-2.18-10.05l10.19-1.14L657,181.77l8.15-1.12a4.12,4.12,0,0,0,2-3.05A4,4,0,0,0,666,174.59Z"/><path class="cls-5" d="M239.6,136.2a91.22,91.22,0,0,0,24.83,7.15c7.39,1,11.82.69,25.85,1,9.3.21,16.85.67,21.72,1,3.81,2.37,6.95,4.49,9.31,6.12,8.2,5.68,10.07,7.77,11.38,10.2a18.43,18.43,0,0,1,2.07,7.15,117.6,117.6,0,0,1-20.69,1,118.52,118.52,0,0,1-17.58-2,84.75,84.75,0,0,1-30-9.19A83.58,83.58,0,0,1,239.6,136.2Z"/><path class="cls-6" d="M332.69,176c-.8-2.18-9.52-1.54-16.55-1a63.13,63.13,0,0,1-12.41,0,54.42,54.42,0,0,1-12.41-3.06,87,87,0,0,0-23.79-4.08,45,45,0,0,0,10.34,13.26,45.49,45.49,0,0,0,13.45,8.16,49.15,49.15,0,0,0,25.85-2C325.39,184.15,333.54,178.33,332.69,176Z"/><path class="cls-7" d="M275.8,185.18a56.56,56.56,0,0,0,62.06-4.08,5.42,5.42,0,0,1,4.14,1c1.89,1.66,2.16,5.21,0,8.16-1.66,2.26-3.82,7.93-16.55,13.27a81.09,81.09,0,0,1-31,6.12c.34-2.72.69-5.44,1-8.16-2.66-1.83-5.44-3.86-8.27-6.13A135.24,135.24,0,0,1,275.8,185.18Z"/><path class="cls-8" d="M296.49,211.71c3.5-.07,8.5-.31,14.48-1a113.74,113.74,0,0,0,12.41-2c4.57-1.15,13.25-4.28,22.75-14.29a5.48,5.48,0,0,1,6.21,1,5.33,5.33,0,0,1,0,7.15,54.06,54.06,0,0,1-14.48,14.28A54.87,54.87,0,0,1,318.21,225a20.81,20.81,0,0,1-10.35,1,20.11,20.11,0,0,1-6.2-2,13.15,13.15,0,0,1-4.14-5.1A13,13,0,0,1,296.49,211.71Z"/><path class="cls-9" d="M308.9,229.06a78.13,78.13,0,0,0,47.58-23.47,7.57,7.57,0,0,1,4.13,4.08,7.8,7.8,0,0,1-1,7.14,156.49,156.49,0,0,1-33.1,26.53,16.39,16.39,0,0,1-11.38-3.06,16.06,16.06,0,0,1-6.2-11.22"/><path class="cls-10" d="M319.24,249.46a121.94,121.94,0,0,0,46.54-30.61c.15,0,3.79-1.14,6.21,1s2.55,6.15,0,9.19a168.34,168.34,0,0,1-41.37,31.63c-.49,0-6,.24-9.31-4.09A10.52,10.52,0,0,1,319.24,249.46Z"/><path class="cls-11" d="M333.72,264.77a225.06,225.06,0,0,0,24.82-19.39c5.39-4.85,10.2-9.66,14.48-14.28,4.69-2.25,8.78-2.76,10.35-1,1.41,1.55.58,4.62-1,8.16a81.48,81.48,0,0,1-16.55,23.47A101.22,101.22,0,0,1,344.06,277c-4.52.54-8.7-1.59-10.34-5.1A9.16,9.16,0,0,1,333.72,264.77Z"/><path class="cls-12" d="M347.17,282.11c.91-5.38,7.44-5.91,15.51-12.24,4.76-3.73,4.35-5,14.48-17.35,5.14-6.26,9.55-11.17,12.41-14.28,2.3-.77,3.52-.35,4.14,0,2.91,1.66,3.16,8.21,0,16.32a85.57,85.57,0,0,1-11.38,18.37,87.61,87.61,0,0,1-23.79,20.41c-.65,0-6.05.09-9.3-4.08C348.92,288.85,346.55,285.73,347.17,282.11Z"/><path class="cls-13" d="M366.82,296.4a73.9,73.9,0,0,0,11.38-11.23c4.91-6,6.67-10.18,12.41-19.38,2.29-3.67,5.74-9,10.34-15.31.18-.09,4.21-2,7.24,0s4,7,1,11.23A96.59,96.59,0,0,1,402,279.05a98.3,98.3,0,0,1-16.54,22.45,22,22,0,0,1-9.31,1,11.57,11.57,0,0,1-6.21-2A9.87,9.87,0,0,1,366.82,296.4Z"/><path class="cls-14" d="M383.37,309.66a75.34,75.34,0,0,0,16.55-19.38A127.3,127.3,0,0,0,407.16,275c2.81-6.65,4.84-12.3,6.2-16.32.84-.81,4.32-4,7.24-3.07,3.39,1.12,3.89,7.13,4.14,10.21,1.44,17.57-10.07,32.07-11.38,33.67a57,57,0,0,1-19.65,15.3c-3.65,1.85-7.55,1.23-9.31-1A5.74,5.74,0,0,1,383.37,309.66Z"/><path class="cls-15" d="M406.12,318.84c1.91-2.47,4.45-5.93,7.24-10.2.7-1.07,4.68-7.16,7.24-12.24,2.46-4.87,6-13.56,7.24-26.53,2.46-4,5.9-6.74,8.28-6.12,2.88.74,5.18,6.61,3.1,14.28-.49,2.45-1.19,6-2.07,10.2-4.13,19.92-5.47,23.77-8.27,27.55A30.64,30.64,0,0,1,417.5,325a12.31,12.31,0,0,1-7.24,1c-1.45-.27-3.16-.58-4.14-2C404.71,321.84,406,319.11,406.12,318.84Z"/><path class="cls-16" d="M425.77,326a102.89,102.89,0,0,0,20.69-53.06,49.2,49.2,0,0,1,2.07,5.1c2.17,6.4,2.7,12.54,2.07,23.47A207.3,207.3,0,0,1,447.49,327c-5,4.86-11.62,6.44-16.55,4.08A11.93,11.93,0,0,1,425.77,326Z"/><path class="cls-17" d="M1.72,135.18c8.62.57,18,1.53,27.92,3.07,9.3,1.43,17.94,3.19,25.86,5.1l159.28,1a47.8,47.8,0,0,1,22.75,5.1A46.86,46.86,0,0,1,250,158.65a17.35,17.35,0,0,1-4.14,4.08,17.72,17.72,0,0,1-8.28,3.06q-40.62,1.29-83.77,1-26.88-.18-52.75-1A271.9,271.9,0,0,1,69,162.73c-8.88-1.33-16.3-2.85-21.72-4.08-10.95-2.48-18.54-7.29-25.86-11.22A181,181,0,0,1,1.72,135.18Z"/><path class="cls-18" d="M23.44,163.75c7.55.73,15.49,1.72,23.79,3.06q8.6,1.4,16.54,3.07l172.73,2c14-1.2,25.58,2.62,29,10.2a12.35,12.35,0,0,1,1,5.1c-4.56.57-11.79,1.39-20.68,2-17.34,1.27-100.12.52-157.21,0a115.4,115.4,0,0,1-38.27-9.18A114,114,0,0,1,23.44,163.75Z"/><path class="cls-19" d="M35.85,181.1a186.79,186.79,0,0,0,24.82,8.16c5.06,1.28,9.9,2.28,14.48,3.06l195.48,1c9.55,1.3,15,6.74,14.48,10.21-.48,3-5.73,5.75-12.41,6.12q-38.2,1.62-78.61,2-49.69.47-96.18-1A105.61,105.61,0,0,1,35.85,181.1Z"/><path class="cls-20" d="M53.43,210.69q21.41,1.78,43.44,3.06a1708.29,1708.29,0,0,0,176.86,1c17,3.32,20.66,6.16,20.69,8.16s-2.19,3.46-3.1,4.08c-10.93,7.39-128.38,5.88-172.73,5.11a163.27,163.27,0,0,1-39.3-9.19A161.66,161.66,0,0,1,53.43,210.69Z"/><path class="cls-21" d="M108.25,234.16c5.74.63,13.92,1.43,23.79,2,6.05.37,16.28.88,44.47,1,15,.07,24.82,0,24.82,0,16.91-.13,46-.21,99.29,0,6.56.51,10.85,5.65,10.35,10.2-.34,3.07-2.85,5.79-6.21,7.14q-39.74.36-80.67,0-31.92-.28-63.09-1a84.37,84.37,0,0,1-33.1-7.14A82.63,82.63,0,0,1,108.25,234.16Z"/><path class="cls-22" d="M153.76,256.6a109.5,109.5,0,0,0,22.75,3.07c3.18.09,5.51,0,6.21,0,8.31-.24,39.47-.07,117.9,1,12.65.16,21.74,4.59,22.76,10.2a7.62,7.62,0,0,1-1,5.1c-2.37,3.85-7.6,4.06-8.27,4.08q-29.42.35-60,0-24.69-.29-48.61-1a113.74,113.74,0,0,1-30-9.18A112.58,112.58,0,0,1,153.76,256.6Z"/><path class="cls-23" d="M669.86,168.86c-.15-.38-.41-1.3,1-4.09,2.31-4.44,6.16-8.17,16.55-14.28,2.31-1.36,5.46-3.15,9.3-5.1h44.48a112.33,112.33,0,0,0,11.38-2,110.1,110.1,0,0,0,13.44-4.08,114.43,114.43,0,0,1-19.65,15.3c-14.57,9-27.31,12.66-31,13.27-10.65,1.73-19.5,2.59-25.86,3.06C675.7,171.9,670.84,171.24,669.86,168.86Z"/><path class="cls-24" d="M670.9,177c.64-2.2,9.41.55,26.89-1,9.49-.86,14.24-1.29,19.65-3.06a41.08,41.08,0,0,1,8.27-2,39.15,39.15,0,0,1,10.35,0,38.69,38.69,0,0,1-7.24,10.2,39.84,39.84,0,0,1-17.59,10.2,33.7,33.7,0,0,1-8.27,1,33.36,33.36,0,0,1-8.27-1,34.66,34.66,0,0,1-9.31-4.08C675.41,181.48,670.43,178.61,670.9,177Z"/><path class="cls-25" d="M664.69,183.14c1.87-1.46,5.56.8,14.48,5.1,5.53,2.67,10.18,4.72,13.45,6.12a60.08,60.08,0,0,0,33.09-5.1,77.54,77.54,0,0,1-7.24,7.14c-3.53,3.08-5.56,4.28-7.24,7.15a15.81,15.81,0,0,0-2.06,7.14,73,73,0,0,1-25.86-5.1c-7.12-2.84-15.66-6.39-18.62-14.29C663.79,188.9,662.84,184.59,664.69,183.14Z"/><path class="cls-26" d="M690.55,226c6.93,0,16.76-2.4,17.58-7.14.33-1.89-.86-3.74-2.07-5.1a65.81,65.81,0,0,1-31-7.14,63.75,63.75,0,0,1-15.51-11.23,6.06,6.06,0,0,0-6.21,2c-1.78,2.27-.57,5.55,0,7.15.76,2.08,3.15,7.32,16.55,14.28C678.92,223.56,683.6,226,690.55,226Z"/><path class="cls-27" d="M649.18,208.65a74.79,74.79,0,0,0,17.58,13.26,75.94,75.94,0,0,0,18.62,7.15c1.12.26,10.07,2.46,10.34,6.12.24,3.22-6.27,7.19-16.55,9.18A139,139,0,0,1,645,218.85c-2.4-3.47-2.09-7.42,0-9.18A5.6,5.6,0,0,1,649.18,208.65Z"/><path class="cls-28" d="M633.66,228a198.77,198.77,0,0,0,20.69,20.4c5,4.23,9.83,7.95,14.48,11.23,7.54,3.14,14.24.56,15.51-3.07s-2.82-7.87-3.1-8.16a95.24,95.24,0,0,1-42.41-29.59,6.64,6.64,0,0,0-4.13,2A6.78,6.78,0,0,0,633.66,228Z"/><path class="cls-29" d="M669.86,266.81A226.3,226.3,0,0,1,644,245.38c-5.42-5.21-10.23-10.36-14.48-15.3a5.76,5.76,0,0,0-7.24,0,5.62,5.62,0,0,0,0,8.16,111,111,0,0,0,17.58,25.51c7.42,8,15,16.24,21.72,14.28,4.84-1.41,7.21-7.5,8.27-11.22"/><path class="cls-30" d="M611.94,239.26c1-.48,3.35-.39,10.35,7.14C633,258,634.25,265,643,274a61,61,0,0,0,11.38,9.18c.1.49.95,5-2.07,8.17s-8.14,3.64-12.41,1a72.48,72.48,0,0,1-19.65-19.39,84.47,84.47,0,0,1-9.31-19.39,21,21,0,0,1-1-6.12C609.84,245.85,609.73,240.3,611.94,239.26Z"/><path class="cls-31" d="M619.18,311.7a129.13,129.13,0,0,1-27.92-52c-1.28-1.09-5.33-4.31-8.28-3.07-3.65,1.55-3.3,9-3.1,13.27.17,3.7,1.17,15.61,10.34,28.57a63.89,63.89,0,0,0,11.38,12.24c5.93,5.76,12.46,7.42,15.51,5.1A5.8,5.8,0,0,0,619.18,311.7Z"/><path class="cls-32" d="M564.37,268.85A148.13,148.13,0,0,0,567,292.64c3.15,16.18,5.37,26.9,13.87,31.31,6.68,3.45,15.92,2.47,17.59-1,1.75-3.68-5.47-8.41-12.41-21.43a79.11,79.11,0,0,1-6.21-15.31C578.28,274,574,266,569.54,265.79,568.56,265.75,566.74,266.06,564.37,268.85Z"/><path class="cls-33" d="M559.19,271.91A94.15,94.15,0,0,0,554,298.44,111.07,111.07,0,0,0,556.09,324c.39,2.13.76,3.89,1,5.1a25.72,25.72,0,0,0,15.51,1,23.7,23.7,0,0,0,5.17-2,101.48,101.48,0,0,1-18.62-56.12Z"/><path class="cls-34" d="M781.57,145.39q26.76-.09,53.78,0,55.3.17,109.63,1l55.85-10.21a130.39,130.39,0,0,1-33.09,20.41,131.55,131.55,0,0,1-42.41,10.2c-22.83,1.19-46.64,1.92-71.37,2.05-30.33.15-59.33-.61-86.87-2.05-6.46-.35-11.8-2.21-12.42-5.1-.77-3.65,6.27-7.8,10.35-10.2A50.29,50.29,0,0,1,781.57,145.39Z"/><path class="cls-35" d="M736.06,185.18c-.49-3.51,10.3-8.42,15.51-10.2a40.8,40.8,0,0,1,16.55-2q37.43-1,76.54-1,41.79,0,81.7,1l55.86-7.15a157.89,157.89,0,0,1-26.9,14.29,159.62,159.62,0,0,1-44.47,11.22c-25.19.08-55.92.11-91,0C765.8,191.14,736.83,190.76,736.06,185.18Z"/><path class="cls-36" d="M738.13,194.36H848.79l75.51,1,43.44-10.2a119.65,119.65,0,0,1-26.9,18.37,120.9,120.9,0,0,1-35.16,11.22q-44.86.67-92,0-38-.57-74.47-2c-9.43,1.05-16.28-4.09-16.55-8.16S728.52,194.43,738.13,194.36Z"/><path class="cls-37" d="M716.41,231.1c9.3.63,22.46,1.42,38.26,2,19.34.75,34.26.91,53.79,1,21.74.12,50.06.18,83.77,0A191.81,191.81,0,0,0,924.3,226a190.78,190.78,0,0,0,25.85-11.22c-13.61,1-34.86,2.4-61,3.06s-42.44.23-78.61,0c-17.91-.11-44.2-.2-76.53,0q-23.22,2.28-23.79,7.14Q709.89,227.64,716.41,231.1Z"/><path class="cls-38" d="M703,239.26q45.9-.39,93.09,0,35,.3,69.29,1l26.89-2a78,78,0,0,1-14.48,9.18c-12.2,6-23.48,7.51-32.06,8.16-19.06,1.45-72.68,2.17-144.8,0-4.24-.53-7.63-3.1-8.27-6.12C691.73,245.3,695.93,239.61,703,239.26Z"/><path class="cls-39" d="M698.82,261.71q24.81-.84,50.68-1,39.46-.27,76.54,1l23.79-2a133.81,133.81,0,0,1-51.72,20.4q-30.06,1.55-62.05,2-25.42.38-49.65,0c-1.74-.69-7.91-3.23-8.27-7.14C677.7,270.29,685.67,264.41,698.82,261.71Z"/><rect class="cls-40" x="351.3" y="330.07" width="298.91" height="5.1" rx="2.53"/><rect class="cls-41" x="351.3" y="382.11" width="297.87" height="6.12" rx="3.04"/><path class="cls-42" d="M421.64,492.13A412.53,412.53,0,0,0,437.4,449c2.92-9.61,5.34-18.85,7.36-27.65a48,48,0,0,1,10.51-14.39A45.16,45.16,0,0,1,472.08,397a106.38,106.38,0,0,1-7.35,45.36A102.29,102.29,0,0,1,421.64,492.13Z"/><path class="cls-43" d="M478.39,404.73a56.46,56.46,0,0,1,6.3,28.77,53.47,53.47,0,0,1-2.1,12.16,147.51,147.51,0,0,1-10.51,15.49c-7,9-10.26,11.09-13.66,11.07a9.16,9.16,0,0,1-4.2-1.11A229.6,229.6,0,0,0,470,435.71,233,233,0,0,0,478.39,404.73Z"/><path class="cls-44" d="M484.69,395.88c1,8.16,1.74,17,2.11,26.55.34,9.06.3,17.57,0,25.45q-6.32,10.5-12.62,21L491,455.62a16.69,16.69,0,0,0,4.2,0,17.15,17.15,0,0,0,4.21-1.1,110.36,110.36,0,0,0,1-31c-1.35-12.21-4-17-6.31-19.92A27.46,27.46,0,0,0,484.69,395.88Z"/><path class="cls-45" d="M521.48,395.88A40,40,0,0,0,511,408.05c-5.79,10.37-5.47,20.76-5.26,27.66a71.56,71.56,0,0,0,3.16,18.81,23.41,23.41,0,0,0,5.25,1.1,22.55,22.55,0,0,0,4.2,0L530.94,470a59.67,59.67,0,0,1-9.46-21c-1.07-4.65-1.48-9.1-1.05-26.55C520.6,415.53,520.9,406.51,521.48,395.88Z"/><path class="cls-46" d="M529.88,404.73a197.43,197.43,0,0,0,10.51,38.72A192.37,192.37,0,0,0,553,470c-2.16,2.61-4,3.21-5.26,3.32-2.93.27-6-1.85-16.81-16.59-2.64-3.6-4.79-6.66-6.31-8.85a56.73,56.73,0,0,1-1-26.55A54.77,54.77,0,0,1,529.88,404.73Z"/><path class="cls-47" d="M536.19,398.09a115.24,115.24,0,0,0,7.36,44.26,111.32,111.32,0,0,0,41,52,245.23,245.23,0,0,1-18.91-70.8c-2.87-5.64-9.19-16-21-22.13A43.36,43.36,0,0,0,536.19,398.09Z"/><path class="cls-48" d="M595.39,252.52c-5.64,6.41,7.54,26.37,10.35,30.61a103.59,103.59,0,0,0,15.51,18.37c.36.23,5.21,3.28,10.34,1a10.62,10.62,0,0,0,5.18-5.1,72.93,72.93,0,0,1-9.31-9.19,71.18,71.18,0,0,1-7.24-10.2,194.81,194.81,0,0,0-11.38-20.41c-2.12-3.29-4.63-7-8.27-7.14A6.79,6.79,0,0,0,595.39,252.52Z"/><ellipse class="cls-49" cx="493.52" cy="129.57" rx="2.59" ry="2.55"/><text class="cls-50" transform="translate(383.85 376.1) scale(1.2 1)">OYODEL</text></g></g></svg>