<svg xmlns="http://www.w3.org/2000/svg" xmlns:xlink="http://www.w3.org/1999/xlink" viewBox="0 0 590 601"><defs><style>.cls-1,.cls-10,.cls-2,.cls-3,.cls-4,.cls-5,.cls-6,.cls-7,.cls-9{stroke-miterlimit:10;}.cls-1{fill:url(#linear-gradient);stroke:url(#linear-gradient-2);}.cls-2{fill:url(#linear-gradient-3);stroke:url(#linear-gradient-4);}.cls-3{fill:url(#linear-gradient-5);stroke:url(#linear-gradient-6);}.cls-4{fill:url(#linear-gradient-7);stroke:url(#linear-gradient-8);}.cls-5{fill:url(#linear-gradient-9);stroke:url(#linear-gradient-10);}.cls-6{fill:url(#linear-gradient-11);stroke:url(#linear-gradient-12);}.cls-7{fill:#fcfafa;}.cls-7,.cls-9{stroke:#000;}.cls-8{fill:url(#linear-gradient-13);}.cls-9{fill:none;}.cls-10{stroke-width:5px;fill:url(#linear-gradient-14);stroke:url(#linear-gradient-15);}</style><linearGradient id="linear-gradient" x1="548.37" y1="149.14" x2="42.17" y2="441.4" gradientUnits="userSpaceOnUse"><stop offset="0" stop-color="aqua"/><stop offset="1" stop-color="#0071bc"/></linearGradient><linearGradient id="linear-gradient-2" x1="41.74" y1="148.89" x2="548.81" y2="441.65" gradientUnits="userSpaceOnUse"><stop offset="0" stop-color="aqua"/><stop offset="1" stop-color="#2e3192"/></linearGradient><linearGradient id="linear-gradient-3" x1="169.18" y1="406.59" x2="345.25" y2="406.59" gradientUnits="userSpaceOnUse"><stop offset="0" stop-color="#1b1464"/><stop offset="1" stop-color="#0071bc"/></linearGradient><linearGradient id="linear-gradient-4" x1="168.68" y1="406.49" x2="345.81" y2="406.49" xlink:href="#linear-gradient-3"/><linearGradient id="linear-gradient-5" x1="211.94" y1="340.5" x2="422.14" y2="340.5" gradientUnits="userSpaceOnUse"><stop offset="0" stop-color="#2e3192"/><stop offset="1" stop-color="#3fa9f5"/></linearGradient><linearGradient id="linear-gradient-6" x1="211.39" y1="341.04" x2="422.64" y2="341.04" xlink:href="#linear-gradient-5"/><linearGradient id="linear-gradient-7" x1="240.51" y1="152.6" x2="353.58" y2="152.6" gradientUnits="userSpaceOnUse"><stop offset="0" stop-color="#0071bc"/><stop offset="1" stop-color="#3fa9f5"/></linearGradient><linearGradient id="linear-gradient-8" x1="240.01" y1="152.6" x2="354.08" y2="152.6" gradientUnits="userSpaceOnUse"><stop offset="0" stop-color="#29abe2"/><stop offset="1" stop-color="#3fa9f5"/></linearGradient><linearGradient id="linear-gradient-9" x1="241.7" y1="97.57" x2="350.01" y2="97.57" gradientUnits="userSpaceOnUse"><stop offset="0"/><stop offset="1" stop-color="#1b1464"/></linearGradient><linearGradient id="linear-gradient-10" x1="241.19" y1="98.17" x2="350.51" y2="98.17" gradientUnits="userSpaceOnUse"><stop offset="0"/><stop offset="1" stop-color="#1a1a1a"/></linearGradient><linearGradient id="linear-gradient-11" x1="200.04" y1="99.09" x2="395.23" y2="99.09" xlink:href="#linear-gradient-9"/><linearGradient id="linear-gradient-12" x1="198.95" y1="99.06" x2="395.93" y2="99.06" xlink:href="#linear-gradient-10"/><linearGradient id="linear-gradient-13" x1="282.16" y1="313.45" x2="308.94" y2="313.45" gradientUnits="userSpaceOnUse"><stop offset="0" stop-color="#1b1464"/><stop offset="1"/></linearGradient><linearGradient id="linear-gradient-14" x1="40.45" y1="153.53" x2="549.55" y2="447.47" gradientUnits="userSpaceOnUse"><stop offset="0" stop-color="red"/><stop offset="0.15" stop-color="#fc0000"/><stop offset="0.29" stop-color="#f10202"/><stop offset="0.42" stop-color="#df0404"/><stop offset="0.54" stop-color="#c60707"/><stop offset="0.66" stop-color="#a50a0a"/><stop offset="0.78" stop-color="#7d0f0f"/><stop offset="0.89" stop-color="#4f1414"/><stop offset="1" stop-color="#1a1a1a"/></linearGradient><linearGradient id="linear-gradient-15" x1="38.28" y1="152.28" x2="551.72" y2="448.72" gradientUnits="userSpaceOnUse"><stop offset="0" stop-color="red"/><stop offset="0.15" stop-color="#fb0000"/><stop offset="0.28" stop-color="#f10202"/><stop offset="0.41" stop-color="#de0404"/><stop offset="0.54" stop-color="#c40707"/><stop offset="0.66" stop-color="#a30a0a"/><stop offset="0.78" stop-color="#7a0f0f"/><stop offset="0.9" stop-color="#4b1414"/><stop offset="1" stop-color="#1a1a1a"/></linearGradient></defs><g id="Layer_2" data-name="Layer 2"><g id="Layer_1-2" data-name="Layer 1"><ellipse class="cls-1" cx="295.27" cy="295.27" rx="291.91" ry="293.1"/><path class="cls-2" d="M170.28,273a76.94,76.94,0,0,1,19.05-22.11,78.76,78.76,0,0,1,27.37-14A105.85,105.85,0,0,0,225,291.63s9,27.52,21.43,52.36c29.3,58.45,83.53,107.33,96.4,118.68.8,2.71,1.59,5.43,2.39,8.14a157.8,157.8,0,0,0-28.57,40.72A155.62,155.62,0,0,0,301.21,572a2.49,2.49,0,0,1,1.19,3.49,2.6,2.6,0,0,1-3.57,0V484.76a8.62,8.62,0,0,0,0-16.44c-4.19-.51-8.1,1.57-9.52,4.82-1.83,4.14.59,9.78,5.95,11.63v90.75a2.6,2.6,0,0,1-3.57,0,2.49,2.49,0,0,1,1.19-3.49,164.11,164.11,0,0,0-16.67-61.66,165.84,165.84,0,0,0-28.56-40.72q6.54-27.34,13.09-54.69a127.61,127.61,0,0,0-16.66-26.76c-16.26-20.06-27.61-21.43-47.61-43.05-10.09-10.9-18.88-20.61-23.81-36.07A77.59,77.59,0,0,1,170.28,273Z"/><path class="cls-3" d="M211.94,239.28a175.85,175.85,0,0,1,70.22-20.95l9.53,15.13h9.52l10.71-14a159.65,159.65,0,0,1,67.84,18.61,155.22,155.22,0,0,1,41.66,32.58,76.45,76.45,0,0,1,0,20.94c-3.71,26.47-20.82,44.48-27.38,51.2C380.81,356.4,372,358.52,356,376.57A111.7,111.7,0,0,0,333.34,415a231.47,231.47,0,0,0,9.52,47.71,548.4,548.4,0,0,1-41.65-41.89,542.07,542.07,0,0,1-42.85-54.68,381,381,0,0,1-46.42-126.82Z"/><ellipse class="cls-4" cx="297.04" cy="152.6" rx="56.53" ry="55.27"/><path class="cls-5" d="M242.89,122.59c1.44-2.24,18.63-27.9,51.18-29.09,35.54-1.3,55.13,27.83,55.94,29.09V83A145.27,145.27,0,0,0,241.7,83Q242.29,102.8,242.89,122.59Z"/><path class="cls-6" d="M235.75,94.44V78.15a181.44,181.44,0,0,1,71.41-9.31A179.6,179.6,0,0,1,356,79.31V95.64l25-14V137.5A6.16,6.16,0,0,0,379.76,148q-3,10.47-5.95,20.94h21.42L388.09,148a6.17,6.17,0,0,0-1.19-10.47V78.15l6-2.33L295.26,29.28,200,74.66l35.71,19.78"/><path class="cls-7" d="M292.88,239.28h8.33q5.94,50,11.9,100.06-7.74,7-15.47,14l-16.67-14Z"/><path class="cls-8" d="M283.33,317.45l24.45-21.75q.59,6.87,1.16,13.74l-26.78,21.75"/><path class="cls-9" d="M282.16,331.19l27.38-23.27"/><path class="cls-7" d="M290.5,259.05h13.09"/><path class="cls-7" d="M290.5,256.73h13.09"/><path class="cls-10" d="M295,2.5C133.46,2.5,2.5,135.92,2.5,300.5s131,298,292.5,298,292.5-133.42,292.5-298S456.54,2.5,295,2.5Zm-1.07,578.79c-153.26,0-277.5-125.72-277.5-280.79S140.67,19.71,293.93,19.71s277.5,125.72,277.5,280.79S447.19,581.29,293.93,581.29Z"/></g></g></svg>