<svg xmlns="http://www.w3.org/2000/svg" xmlns:xlink="http://www.w3.org/1999/xlink" viewBox="0 0 595.85 532.44"><defs><style>.cls-1,.cls-10,.cls-11,.cls-12,.cls-13,.cls-14,.cls-15,.cls-16,.cls-164,.cls-165,.cls-166,.cls-167,.cls-168,.cls-169,.cls-17,.cls-170,.cls-171,.cls-172,.cls-174,.cls-18,.cls-19,.cls-2,.cls-20,.cls-21,.cls-22,.cls-23,.cls-24,.cls-25,.cls-26,.cls-27,.cls-28,.cls-29,.cls-3,.cls-30,.cls-31,.cls-32,.cls-33,.cls-34,.cls-4,.cls-5,.cls-6,.cls-7,.cls-8,.cls-9,.cls-99{stroke-miterlimit:10;}.cls-1{fill:url(#linear-gradient);stroke:url(#linear-gradient-2);}.cls-2{fill:url(#linear-gradient-3);stroke:url(#linear-gradient-4);}.cls-3{fill:url(#linear-gradient-5);stroke:url(#linear-gradient-6);}.cls-4{fill:url(#linear-gradient-7);stroke:url(#linear-gradient-8);}.cls-5{fill:url(#linear-gradient-9);stroke:url(#linear-gradient-10);}.cls-6{fill:url(#linear-gradient-11);stroke:url(#linear-gradient-12);}.cls-7{fill:url(#linear-gradient-13);stroke:url(#linear-gradient-14);}.cls-8{fill:url(#linear-gradient-15);stroke:url(#linear-gradient-16);}.cls-9{fill:url(#linear-gradient-17);stroke:url(#linear-gradient-18);}.cls-10{fill:url(#linear-gradient-19);stroke:url(#linear-gradient-20);}.cls-11{fill:url(#linear-gradient-21);stroke:url(#linear-gradient-22);}.cls-12{fill:url(#linear-gradient-23);stroke:url(#linear-gradient-24);}.cls-13{fill:url(#linear-gradient-25);stroke:url(#linear-gradient-26);}.cls-14{fill:url(#linear-gradient-27);stroke:url(#linear-gradient-28);}.cls-15{fill:url(#linear-gradient-29);stroke:url(#linear-gradient-30);}.cls-16{fill:url(#linear-gradient-31);stroke:url(#linear-gradient-32);}.cls-17{fill:url(#linear-gradient-33);stroke:url(#linear-gradient-34);}.cls-18{fill:url(#linear-gradient-35);stroke:url(#linear-gradient-36);}.cls-19{fill:url(#linear-gradient-37);stroke:url(#linear-gradient-38);}.cls-20{fill:url(#linear-gradient-39);stroke:url(#linear-gradient-40);}.cls-21{fill:url(#linear-gradient-41);stroke:url(#linear-gradient-42);}.cls-22{fill:url(#linear-gradient-43);stroke:url(#linear-gradient-44);}.cls-23{fill:#040504;}.cls-23,.cls-30{stroke:#000;}.cls-24{fill:#ff3c00;}.cls-24,.cls-33{stroke:red;}.cls-25{fill:#008200;stroke:#118400;}.cls-26,.cls-27{stroke:#ffce00;}.cls-26{fill:url(#linear-gradient-45);}.cls-27{fill:url(#linear-gradient-46);}.cls-28{fill:url(#linear-gradient-47);stroke:url(#linear-gradient-48);}.cls-29{fill:url(#linear-gradient-49);stroke:url(#linear-gradient-50);}.cls-168,.cls-169,.cls-170,.cls-31,.cls-32{fill:none;}.cls-31{stroke-width:8px;stroke:url(#Golden_Ring);}.cls-32{stroke-width:9px;stroke:url(#linear-gradient-51);}.cls-33{fill:red;}.cls-34{fill:url(#linear-gradient-52);stroke:url(#linear-gradient-53);}.cls-35{fill:url(#linear-gradient-54);}.cls-36{fill:url(#linear-gradient-55);}.cls-37{fill:url(#linear-gradient-56);}.cls-38{fill:url(#linear-gradient-57);}.cls-39{fill:url(#linear-gradient-58);}.cls-40{fill:url(#linear-gradient-59);}.cls-41{fill:url(#linear-gradient-60);}.cls-42{fill:url(#linear-gradient-61);}.cls-43{fill:url(#linear-gradient-62);}.cls-44{fill:url(#linear-gradient-63);}.cls-45{fill:url(#linear-gradient-64);}.cls-46{fill:url(#linear-gradient-65);}.cls-47{fill:url(#linear-gradient-66);}.cls-48{fill:url(#linear-gradient-67);}.cls-49{fill:url(#linear-gradient-68);}.cls-50{fill:url(#linear-gradient-69);}.cls-51{fill:url(#linear-gradient-70);}.cls-52{fill:url(#linear-gradient-71);}.cls-53{fill:url(#linear-gradient-72);}.cls-54{fill:url(#linear-gradient-73);}.cls-55{fill:url(#linear-gradient-74);}.cls-56{fill:url(#linear-gradient-75);}.cls-57{fill:url(#linear-gradient-76);}.cls-58{fill:url(#linear-gradient-77);}.cls-59{fill:url(#linear-gradient-78);}.cls-60{fill:url(#linear-gradient-79);}.cls-61{fill:url(#linear-gradient-80);}.cls-62{fill:url(#linear-gradient-81);}.cls-63{fill:url(#linear-gradient-82);}.cls-64{fill:url(#linear-gradient-83);}.cls-65{fill:url(#linear-gradient-84);}.cls-66{fill:url(#linear-gradient-85);}.cls-67{fill:url(#linear-gradient-86);}.cls-68{fill:url(#linear-gradient-87);}.cls-69{fill:url(#linear-gradient-88);}.cls-70{fill:url(#linear-gradient-89);}.cls-71{fill:url(#linear-gradient-90);}.cls-72{fill:url(#linear-gradient-91);}.cls-73{fill:url(#linear-gradient-92);}.cls-74{fill:url(#linear-gradient-93);}.cls-75{fill:url(#linear-gradient-94);}.cls-76{fill:url(#linear-gradient-95);}.cls-77{fill:url(#linear-gradient-96);}.cls-78{fill:url(#linear-gradient-97);}.cls-79{fill:url(#linear-gradient-98);}.cls-80{fill:url(#linear-gradient-99);}.cls-81{fill:url(#linear-gradient-100);}.cls-82{fill:url(#linear-gradient-101);}.cls-83{fill:url(#linear-gradient-102);}.cls-84{fill:url(#linear-gradient-103);}.cls-85{fill:url(#linear-gradient-104);}.cls-86{fill:url(#linear-gradient-105);}.cls-87{fill:url(#linear-gradient-106);}.cls-88{fill:url(#linear-gradient-107);}.cls-89{fill:url(#linear-gradient-108);}.cls-90{fill:url(#linear-gradient-109);}.cls-91{fill:url(#linear-gradient-110);}.cls-92{fill:url(#linear-gradient-111);}.cls-93{fill:url(#linear-gradient-112);}.cls-94{fill:url(#linear-gradient-113);}.cls-95{fill:url(#linear-gradient-114);}.cls-96{fill:url(#linear-gradient-115);}.cls-97{fill:url(#linear-gradient-116);}.cls-98{fill:url(#linear-gradient-117);}.cls-99{fill:url(#linear-gradient-118);stroke:url(#linear-gradient-119);}.cls-100{fill:url(#linear-gradient-120);}.cls-101{fill:url(#linear-gradient-121);}.cls-102{fill:url(#linear-gradient-122);}.cls-103{fill:url(#linear-gradient-123);}.cls-104{fill:url(#linear-gradient-124);}.cls-105{fill:url(#linear-gradient-125);}.cls-106{fill:url(#linear-gradient-126);}.cls-107{fill:url(#linear-gradient-127);}.cls-108{fill:url(#linear-gradient-128);}.cls-109{fill:url(#linear-gradient-129);}.cls-110{fill:url(#linear-gradient-130);}.cls-111{fill:url(#linear-gradient-131);}.cls-112{fill:url(#linear-gradient-132);}.cls-113{fill:url(#linear-gradient-133);}.cls-114{fill:url(#linear-gradient-134);}.cls-115{fill:url(#linear-gradient-135);}.cls-116{fill:url(#linear-gradient-136);}.cls-117{fill:url(#linear-gradient-137);}.cls-118{fill:url(#linear-gradient-138);}.cls-119{fill:url(#linear-gradient-139);}.cls-120{fill:url(#linear-gradient-140);}.cls-121{fill:url(#linear-gradient-141);}.cls-122{fill:url(#linear-gradient-142);}.cls-123{fill:url(#linear-gradient-143);}.cls-124{fill:url(#linear-gradient-144);}.cls-125{fill:url(#linear-gradient-145);}.cls-126{fill:url(#linear-gradient-146);}.cls-127{fill:url(#linear-gradient-147);}.cls-128{fill:url(#linear-gradient-148);}.cls-129{fill:url(#linear-gradient-149);}.cls-130{fill:url(#linear-gradient-150);}.cls-131{fill:url(#linear-gradient-151);}.cls-132{fill:url(#linear-gradient-152);}.cls-133{fill:url(#linear-gradient-153);}.cls-134{fill:url(#linear-gradient-154);}.cls-135{fill:url(#linear-gradient-155);}.cls-136{fill:url(#linear-gradient-156);}.cls-137{fill:url(#linear-gradient-157);}.cls-138{fill:url(#linear-gradient-158);}.cls-139{fill:url(#linear-gradient-159);}.cls-140{fill:url(#linear-gradient-160);}.cls-141{fill:url(#linear-gradient-161);}.cls-142{fill:url(#linear-gradient-162);}.cls-143{fill:url(#linear-gradient-163);}.cls-144{fill:url(#linear-gradient-164);}.cls-145{fill:url(#linear-gradient-165);}.cls-146{fill:url(#linear-gradient-166);}.cls-147{fill:url(#linear-gradient-167);}.cls-148{fill:url(#linear-gradient-168);}.cls-149{fill:url(#linear-gradient-169);}.cls-150{fill:url(#linear-gradient-170);}.cls-151{fill:url(#linear-gradient-171);}.cls-152{fill:url(#linear-gradient-172);}.cls-153{fill:url(#linear-gradient-173);}.cls-154{fill:url(#linear-gradient-174);}.cls-155{fill:url(#linear-gradient-175);}.cls-156{fill:url(#linear-gradient-176);}.cls-157{fill:url(#linear-gradient-177);}.cls-158{fill:url(#linear-gradient-178);}.cls-159{fill:url(#linear-gradient-179);}.cls-160{fill:url(#linear-gradient-180);}.cls-161{fill:url(#linear-gradient-181);}.cls-162{fill:url(#linear-gradient-182);}.cls-163{fill:url(#linear-gradient-183);}.cls-164{fill:url(#linear-gradient-184);stroke:url(#linear-gradient-185);}.cls-165{fill:url(#linear-gradient-186);stroke:url(#linear-gradient-187);}.cls-166{fill:url(#linear-gradient-188);stroke:url(#linear-gradient-189);}.cls-167,.cls-171,.cls-173,.cls-174{fill:#fff;}.cls-167,.cls-171,.cls-174{stroke:#fff;}.cls-168{stroke:url(#White_Black);}.cls-169{stroke:url(#White_Black-2);}.cls-170{stroke:url(#White_Black-3);}.cls-171{font-size:37px;font-family:TimesNewRomanPSMT, Times New Roman;}.cls-172{fill:#156b00;stroke:#037c00;}.cls-174{font-size:35px;font-family:MS-PGothic, MS PGothic;}</style><linearGradient id="linear-gradient" x1="449.47" y1="400.11" x2="531.32" y2="400.11" gradientTransform="translate(111.79 -106.24) rotate(14.61)" gradientUnits="userSpaceOnUse"><stop offset="0" stop-color="#fbb03b"/><stop offset="1" stop-color="#fcee21"/></linearGradient><linearGradient id="linear-gradient-2" x1="448.19" y1="400.11" x2="532.6" y2="400.11" xlink:href="#linear-gradient"/><linearGradient id="linear-gradient-3" x1="442.52" y1="381.09" x2="465.76" y2="381.09" gradientTransform="matrix(0.18, 0.98, -0.98, 0.18, 743.62, -130.68)" xlink:href="#linear-gradient"/><linearGradient id="linear-gradient-4" x1="442.02" y1="381.09" x2="466.26" y2="381.09" gradientTransform="matrix(0.18, 0.98, -0.98, 0.18, 743.62, -130.68)" xlink:href="#linear-gradient"/><linearGradient id="linear-gradient-5" x1="413.49" y1="429.03" x2="499.02" y2="429.03" gradientTransform="matrix(0.99, 0.16, -0.16, 0.99, 70.03, -65.47)" xlink:href="#linear-gradient"/><linearGradient id="linear-gradient-6" x1="412.12" y1="429.03" x2="500.39" y2="429.03" gradientTransform="matrix(0.99, 0.16, -0.16, 0.99, 70.03, -65.47)" xlink:href="#linear-gradient"/><linearGradient id="linear-gradient-7" x1="410.33" y1="406.97" x2="437.45" y2="406.97" gradientTransform="matrix(0.37, 0.93, -0.93, 0.37, 641.22, -134.86)" xlink:href="#linear-gradient"/><linearGradient id="linear-gradient-8" x1="409.83" y1="406.97" x2="437.95" y2="406.97" gradientTransform="matrix(0.37, 0.93, -0.93, 0.37, 641.22, -134.86)" xlink:href="#linear-gradient"/><linearGradient id="linear-gradient-9" x1="372.96" y1="454.64" x2="460.7" y2="454.64" gradientTransform="matrix(1, 0.08, -0.08, 1, 28.66, -28.59)" xlink:href="#linear-gradient"/><linearGradient id="linear-gradient-10" x1="371.53" y1="454.64" x2="462.13" y2="454.64" gradientTransform="matrix(1, 0.08, -0.08, 1, 28.66, -28.59)" xlink:href="#linear-gradient"/><linearGradient id="linear-gradient-11" x1="372.04" y1="429.91" x2="405.8" y2="429.91" gradientTransform="matrix(0.53, 0.85, -0.85, 0.53, 542.68, -126.66)" xlink:href="#linear-gradient"/><linearGradient id="linear-gradient-12" x1="371.54" y1="429.91" x2="406.3" y2="429.91" gradientTransform="matrix(0.53, 0.85, -0.85, 0.53, 542.68, -126.66)" xlink:href="#linear-gradient"/><linearGradient id="linear-gradient-13" x1="328.57" y1="476.48" x2="417.02" y2="476.48" gradientTransform="translate(837.52 98.75) rotate(89.4)" xlink:href="#linear-gradient"/><linearGradient id="linear-gradient-14" x1="327.12" y1="476.48" x2="418.48" y2="476.48" gradientTransform="translate(837.52 98.75) rotate(89.4)" xlink:href="#linear-gradient"/><linearGradient id="linear-gradient-15" x1="328.29" y1="449.51" x2="371.33" y2="449.51" gradientTransform="translate(452.56 -110.25) rotate(48.98)" xlink:href="#linear-gradient"/><linearGradient id="linear-gradient-16" x1="327.77" y1="449.51" x2="371.85" y2="449.51" gradientTransform="translate(452.56 -110.25) rotate(48.98)" xlink:href="#linear-gradient"/><linearGradient id="linear-gradient-17" x1="281.08" y1="494.18" x2="368.74" y2="494.18" gradientTransform="matrix(0.1, 1, -1, 0.1, 776.9, 121.23)" xlink:href="#linear-gradient"/><linearGradient id="linear-gradient-18" x1="279.65" y1="494.18" x2="370.17" y2="494.18" gradientTransform="matrix(0.1, 1, -1, 0.1, 776.9, 121.23)" xlink:href="#linear-gradient"/><linearGradient id="linear-gradient-19" x1="280.87" y1="465.44" x2="333.61" y2="465.44" gradientTransform="translate(372 -90.01) rotate(40.86)" xlink:href="#linear-gradient"/><linearGradient id="linear-gradient-20" x1="280.19" y1="465.44" x2="334.29" y2="465.44" gradientTransform="translate(372 -90.01) rotate(40.86)" xlink:href="#linear-gradient"/><linearGradient id="linear-gradient-21" x1="231.3" y1="507.45" x2="316.67" y2="507.45" gradientTransform="translate(713.58 141.23) rotate(79.42)" xlink:href="#linear-gradient"/><linearGradient id="linear-gradient-22" x1="229.93" y1="507.45" x2="318.04" y2="507.45" gradientTransform="translate(713.58 141.23) rotate(79.42)" xlink:href="#linear-gradient"/><linearGradient id="linear-gradient-23" x1="231.16" y1="477.42" x2="292.71" y2="477.42" gradientTransform="translate(300.37 -69.33) rotate(33.62)" xlink:href="#linear-gradient"/><linearGradient id="linear-gradient-24" x1="230.32" y1="477.42" x2="293.54" y2="477.42" gradientTransform="translate(300.37 -69.33) rotate(33.62)" xlink:href="#linear-gradient"/><linearGradient id="linear-gradient-25" x1="180.08" y1="516.06" x2="261.69" y2="516.06" gradientTransform="translate(648.17 157.36) rotate(74.21)" xlink:href="#linear-gradient"/><linearGradient id="linear-gradient-26" x1="178.8" y1="516.06" x2="262.98" y2="516.06" gradientTransform="translate(648.17 157.36) rotate(74.21)" xlink:href="#linear-gradient"/><linearGradient id="linear-gradient-27" x1="180.01" y1="485.25" x2="249.32" y2="485.25" gradientTransform="translate(236.47 -50.47) rotate(27.09)" xlink:href="#linear-gradient"/><linearGradient id="linear-gradient-28" x1="179.02" y1="485.25" x2="250.31" y2="485.25" gradientTransform="translate(236.47 -50.47) rotate(27.09)" xlink:href="#linear-gradient"/><linearGradient id="linear-gradient-29" x1="140.17" y1="366.98" x2="169.3" y2="366.98" gradientTransform="translate(-202.35 118.99) rotate(-26.89)" xlink:href="#linear-gradient"/><linearGradient id="linear-gradient-30" x1="139.67" y1="366.98" x2="169.8" y2="366.98" gradientTransform="translate(-202.35 118.99) rotate(-26.89)" xlink:href="#linear-gradient"/><linearGradient id="linear-gradient-31" x1="96.76" y1="372.72" x2="139.98" y2="372.72" gradientTransform="translate(243.3 47.67) rotate(43.38)" xlink:href="#linear-gradient"/><linearGradient id="linear-gradient-32" x1="96.11" y1="372.72" x2="140.63" y2="372.72" gradientTransform="translate(243.3 47.67) rotate(43.38)" xlink:href="#linear-gradient"/><linearGradient id="linear-gradient-33" x1="145.96" y1="404.05" x2="168.7" y2="404.05" gradientTransform="translate(-151.77 71.27) rotate(-18.03)" xlink:href="#linear-gradient"/><linearGradient id="linear-gradient-34" x1="145.46" y1="404.05" x2="169.2" y2="404.05" gradientTransform="translate(-151.77 71.27) rotate(-18.03)" xlink:href="#linear-gradient"/><linearGradient id="linear-gradient-35" x1="96.52" y1="414.23" x2="147.41" y2="414.23" gradientTransform="translate(350.11 83.3) rotate(52.17)" xlink:href="#linear-gradient"/><linearGradient id="linear-gradient-36" x1="95.74" y1="414.23" x2="148.18" y2="414.23" gradientTransform="translate(350.11 83.3) rotate(52.17)" xlink:href="#linear-gradient"/><linearGradient id="linear-gradient-37" x1="156.57" y1="440.09" x2="175.51" y2="440.09" gradientTransform="translate(-82.27 23.6) rotate(-8.75)" xlink:href="#linear-gradient"/><linearGradient id="linear-gradient-38" x1="156.07" y1="440.09" x2="176.01" y2="440.09" gradientTransform="translate(-82.27 23.6) rotate(-8.75)" xlink:href="#linear-gradient"/><linearGradient id="linear-gradient-39" x1="103.65" y1="454.5" x2="161.16" y2="454.5" gradientTransform="translate(-211.48 132.27) rotate(-29.46)" xlink:href="#linear-gradient"/><linearGradient id="linear-gradient-40" x1="102.76" y1="454.5" x2="162.05" y2="454.5" gradientTransform="translate(-211.48 132.27) rotate(-29.46)" xlink:href="#linear-gradient"/><linearGradient id="linear-gradient-41" x1="171.76" y1="474.34" x2="189.62" y2="474.34" gradientTransform="translate(5.28 -21.77) rotate(0.84)" xlink:href="#linear-gradient"/><linearGradient id="linear-gradient-42" x1="171.26" y1="474.34" x2="190.12" y2="474.34" gradientTransform="translate(5.28 -21.77) rotate(0.84)" xlink:href="#linear-gradient"/><linearGradient id="linear-gradient-43" x1="118.02" y1="492.68" x2="180.95" y2="492.68" gradientTransform="matrix(0.93, -0.37, 0.37, 0.93, -158, 83.25)" xlink:href="#linear-gradient"/><linearGradient id="linear-gradient-44" x1="117.02" y1="492.68" x2="181.95" y2="492.68" gradientTransform="matrix(0.93, -0.37, 0.37, 0.93, -158, 83.25)" xlink:href="#linear-gradient"/><linearGradient id="linear-gradient-45" x1="293.86" y1="452.04" x2="293.86" y2="78.98" gradientUnits="userSpaceOnUse"><stop offset="0" stop-color="#fbb03b"/><stop offset="1" stop-color="#ff0"/></linearGradient><linearGradient id="linear-gradient-46" x1="66.99" y1="265.17" x2="527.82" y2="265.17" gradientUnits="userSpaceOnUse"><stop offset="0" stop-color="#0071bc"/><stop offset="1" stop-color="#2e3192"/></linearGradient><linearGradient id="linear-gradient-47" x1="159.19" y1="291.41" x2="433.54" y2="291.41" gradientUnits="userSpaceOnUse"><stop offset="0" stop-color="#1b1464"/><stop offset="1"/></linearGradient><linearGradient id="linear-gradient-48" x1="158.69" y1="291.42" x2="434.04" y2="291.42" xlink:href="#linear-gradient-47"/><linearGradient id="linear-gradient-49" x1="295.73" y1="139.54" x2="295.73" y2="439.08" gradientUnits="userSpaceOnUse"><stop offset="0" stop-color="#0071bc"/><stop offset="1" stop-color="#29abe2"/></linearGradient><linearGradient id="linear-gradient-50" x1="295.73" y1="139" x2="295.73" y2="439.66" xlink:href="#linear-gradient-49"/><radialGradient id="Golden_Ring" cx="296.28" cy="263.58" r="189.33" gradientUnits="userSpaceOnUse"><stop offset="0.74" stop-color="#fff" stop-opacity="0"/><stop offset="0.76" stop-color="#fff" stop-opacity="0.01"/><stop offset="0.77" stop-color="#fff" stop-opacity="0.04"/><stop offset="0.79" stop-color="#fff" stop-opacity="0.1"/><stop offset="0.79" stop-color="#fff" stop-opacity="0.18"/><stop offset="0.8" stop-color="#fff" stop-opacity="0.28"/><stop offset="0.81" stop-color="#fff" stop-opacity="0.4"/><stop offset="0.82" stop-color="#fff" stop-opacity="0.5"/><stop offset="0.82" stop-color="#dbc01f"/><stop offset="0.83" stop-color="#f1dc3a"/><stop offset="0.84" stop-color="#f5e13f"/><stop offset="0.84" stop-color="#dbc01f"/><stop offset="0.85" stop-color="#e1cb46"/><stop offset="0.87" stop-color="#e9d976"/><stop offset="0.89" stop-color="#f0e4a0"/><stop offset="0.91" stop-color="#f5eec3"/><stop offset="0.93" stop-color="#faf5dd"/><stop offset="0.95" stop-color="#fdfbf0"/><stop offset="0.98" stop-color="#fefefb"/><stop offset="1" stop-color="#fff"/></radialGradient><linearGradient id="linear-gradient-51" x1="53" y1="265.59" x2="539.12" y2="265.59" gradientUnits="userSpaceOnUse"><stop offset="0.01" stop-color="#fcee21"/><stop offset="1" stop-color="#fbb03b"/></linearGradient><linearGradient id="linear-gradient-52" x1="320.69" y1="292.52" x2="326.48" y2="307.55" gradientTransform="translate(158.43 -192.38) rotate(21.05)" xlink:href="#linear-gradient"/><linearGradient id="linear-gradient-53" x1="310.26" y1="300.04" x2="336.91" y2="300.04" gradientTransform="translate(158.43 -192.38) rotate(21.05)" xlink:href="#linear-gradient"/><linearGradient id="linear-gradient-54" x1="386.24" y1="379.49" x2="394.22" y2="400.23" gradientTransform="translate(158.43 -192.38) rotate(21.05)" xlink:href="#linear-gradient"/><linearGradient id="linear-gradient-55" x1="377.31" y1="309.79" x2="387.81" y2="313.83" gradientTransform="matrix(1, 0, 0, 1, 0, 0)" xlink:href="#linear-gradient"/><linearGradient id="linear-gradient-56" x1="398.73" y1="384.04" x2="403.61" y2="396.72" gradientTransform="translate(158.43 -192.38) rotate(21.05)" xlink:href="#linear-gradient"/><linearGradient id="linear-gradient-57" x1="386.83" y1="314" x2="398.32" y2="318.42" gradientTransform="matrix(1, 0, 0, 1, 0, 0)" xlink:href="#linear-gradient"/><linearGradient id="linear-gradient-58" x1="385.49" y1="393.15" x2="393.43" y2="413.8" gradientTransform="translate(158.43 -192.38) rotate(21.05)" xlink:href="#linear-gradient"/><linearGradient id="linear-gradient-59" x1="372.76" y1="322.64" x2="381.12" y2="325.85" gradientTransform="matrix(1, 0, 0, 1, 0, 0)" xlink:href="#linear-gradient"/><linearGradient id="linear-gradient-60" x1="398.28" y1="400.52" x2="402.15" y2="410.6" gradientTransform="translate(158.43 -192.38) rotate(21.05)" xlink:href="#linear-gradient"/><linearGradient id="linear-gradient-61" x1="379.01" y1="327.23" x2="393.48" y2="332.8" gradientTransform="matrix(1, 0, 0, 1, 0, 0)" xlink:href="#linear-gradient"/><linearGradient id="linear-gradient-62" x1="382.63" y1="406.73" x2="390.36" y2="426.81" gradientTransform="translate(158.43 -192.38) rotate(21.05)" xlink:href="#linear-gradient"/><linearGradient id="linear-gradient-63" x1="365.84" y1="334.24" x2="372.94" y2="336.97" gradientTransform="matrix(1, 0, 0, 1, 0, 0)" xlink:href="#linear-gradient"/><linearGradient id="linear-gradient-64" x1="395.31" y1="416.43" x2="398.34" y2="424.31" gradientTransform="translate(158.43 -192.38) rotate(21.05)" xlink:href="#linear-gradient"/><linearGradient id="linear-gradient-65" x1="369.2" y1="339.3" x2="386.34" y2="345.9" gradientTransform="matrix(1, 0, 0, 1, 0, 0)" xlink:href="#linear-gradient"/><linearGradient id="linear-gradient-66" x1="377.75" y1="419.93" x2="385.08" y2="438.97" gradientTransform="translate(158.43 -192.38) rotate(21.05)" xlink:href="#linear-gradient"/><linearGradient id="linear-gradient-67" x1="356.72" y1="344.31" x2="363.47" y2="346.91" gradientTransform="matrix(1, 0, 0, 1, 0, 0)" xlink:href="#linear-gradient"/><linearGradient id="linear-gradient-68" x1="389.85" y1="431.29" x2="392.3" y2="437.66" gradientTransform="translate(158.43 -192.38) rotate(21.05)" xlink:href="#linear-gradient"/><linearGradient id="linear-gradient-69" x1="357.65" y1="349.94" x2="377.05" y2="357.41" gradientTransform="matrix(1, 0, 0, 1, 0, 0)" xlink:href="#linear-gradient"/><linearGradient id="linear-gradient-70" x1="370.96" y1="432.43" x2="377.72" y2="449.99" gradientTransform="translate(158.43 -192.38) rotate(21.05)" xlink:href="#linear-gradient"/><linearGradient id="linear-gradient-71" x1="345.62" y1="352.64" x2="352.91" y2="355.44" gradientTransform="matrix(1, 0, 0, 1, 0, 0)" xlink:href="#linear-gradient"/><linearGradient id="linear-gradient-72" x1="382.02" y1="444.73" x2="384.19" y2="450.36" gradientTransform="translate(158.43 -192.38) rotate(21.05)" xlink:href="#linear-gradient"/><linearGradient id="linear-gradient-73" x1="344.61" y1="358.92" x2="365.83" y2="367.09" gradientTransform="matrix(1, 0, 0, 1, 0, 0)" xlink:href="#linear-gradient"/><linearGradient id="linear-gradient-74" x1="362.4" y1="443.94" x2="368.44" y2="459.62" gradientTransform="translate(158.43 -192.38) rotate(21.05)" xlink:href="#linear-gradient"/><linearGradient id="linear-gradient-75" x1="332.83" y1="359.03" x2="341.47" y2="362.36" gradientTransform="matrix(1, 0, 0, 1, 0, 0)" xlink:href="#linear-gradient"/><linearGradient id="linear-gradient-76" x1="371.99" y1="456.41" x2="374.2" y2="462.14" gradientTransform="translate(158.43 -192.38) rotate(21.05)" xlink:href="#linear-gradient"/><linearGradient id="linear-gradient-77" x1="330.39" y1="366.02" x2="352.94" y2="374.7" gradientTransform="matrix(1, 0, 0, 1, 0, 0)" xlink:href="#linear-gradient"/><linearGradient id="linear-gradient-78" x1="352.29" y1="454.19" x2="357.46" y2="467.62" gradientTransform="translate(158.43 -192.38) rotate(21.05)" xlink:href="#linear-gradient"/><linearGradient id="linear-gradient-79" x1="318.67" y1="363.35" x2="329.41" y2="367.48" gradientTransform="matrix(1, 0, 0, 1, 0, 0)" xlink:href="#linear-gradient"/><linearGradient id="linear-gradient-80" x1="359.99" y1="466.05" x2="362.56" y2="472.74" gradientTransform="translate(158.43 -192.38) rotate(21.05)" xlink:href="#linear-gradient"/><linearGradient id="linear-gradient-81" x1="315.32" y1="371.06" x2="338.67" y2="380.05" gradientTransform="matrix(1, 0, 0, 1, 0, 0)" xlink:href="#linear-gradient"/><linearGradient id="linear-gradient-82" x1="340.85" y1="462.96" x2="345.03" y2="473.82" gradientTransform="translate(158.43 -192.38) rotate(21.05)" xlink:href="#linear-gradient"/><linearGradient id="linear-gradient-83" x1="303.47" y1="365.5" x2="316.98" y2="370.7" gradientTransform="matrix(1, 0, 0, 1, 0, 0)" xlink:href="#linear-gradient"/><linearGradient id="linear-gradient-84" x1="346.29" y1="473.42" x2="349.56" y2="481.93" gradientTransform="translate(158.43 -192.38) rotate(21.05)" xlink:href="#linear-gradient"/><linearGradient id="linear-gradient-85" x1="299.77" y1="373.93" x2="323.37" y2="383.02" gradientTransform="matrix(1, 0, 0, 1, 0, 0)" xlink:href="#linear-gradient"/><linearGradient id="linear-gradient-86" x1="384.93" y1="366.31" x2="392.76" y2="386.66" gradientTransform="translate(158.43 -192.38) rotate(21.05)" xlink:href="#linear-gradient"/><linearGradient id="linear-gradient-87" x1="379.38" y1="296.24" x2="392.77" y2="301.39" gradientTransform="matrix(1, 0, 0, 1, 0, 0)" xlink:href="#linear-gradient"/><linearGradient id="linear-gradient-88" x1="396.82" y1="367.97" x2="402.59" y2="382.97" gradientTransform="translate(158.43 -192.38) rotate(21.05)" xlink:href="#linear-gradient"/><linearGradient id="linear-gradient-89" x1="392.03" y1="300.04" x2="401.09" y2="303.52" gradientTransform="matrix(1, 0, 0, 1, 0, 0)" xlink:href="#linear-gradient"/><linearGradient id="linear-gradient-90" x1="381.61" y1="353.66" x2="389.12" y2="373.18" gradientTransform="translate(158.43 -192.38) rotate(21.05)" xlink:href="#linear-gradient"/><linearGradient id="linear-gradient-91" x1="379.45" y1="282.24" x2="395.6" y2="288.46" gradientTransform="matrix(1, 0, 0, 1, 0, 0)" xlink:href="#linear-gradient"/><linearGradient id="linear-gradient-92" x1="392.64" y1="352.39" x2="399.17" y2="369.37" gradientTransform="translate(158.43 -192.38) rotate(21.05)" xlink:href="#linear-gradient"/><linearGradient id="linear-gradient-93" x1="394.5" y1="285.37" x2="401.99" y2="288.25" gradientTransform="matrix(1, 0, 0, 1, 0, 0)" xlink:href="#linear-gradient"/><linearGradient id="linear-gradient-94" x1="376.36" y1="341.82" x2="383.38" y2="360.06" gradientTransform="translate(158.43 -192.38) rotate(21.05)" xlink:href="#linear-gradient"/><linearGradient id="linear-gradient-95" x1="377.61" y1="268.14" x2="396.15" y2="275.28" gradientTransform="matrix(1, 0, 0, 1, 0, 0)" xlink:href="#linear-gradient"/><linearGradient id="linear-gradient-96" x1="386.28" y1="337.66" x2="393.43" y2="356.23" gradientTransform="translate(158.43 -192.38) rotate(21.05)" xlink:href="#linear-gradient"/><linearGradient id="linear-gradient-97" x1="394.21" y1="270.33" x2="400.99" y2="272.94" gradientTransform="matrix(1, 0, 0, 1, 0, 0)" xlink:href="#linear-gradient"/><linearGradient id="linear-gradient-98" x1="369.29" y1="331.06" x2="375.66" y2="347.62" gradientTransform="translate(158.43 -192.38) rotate(21.05)" xlink:href="#linear-gradient"/><linearGradient id="linear-gradient-99" x1="373.9" y1="254.25" x2="394.41" y2="262.15" gradientTransform="matrix(1, 0, 0, 1, 0, 0)" xlink:href="#linear-gradient"/><linearGradient id="linear-gradient-100" x1="377.88" y1="324.09" x2="385.48" y2="343.84" gradientTransform="translate(158.43 -192.38) rotate(21.05)" xlink:href="#linear-gradient"/><linearGradient id="linear-gradient-101" x1="391.16" y1="255.25" x2="398.11" y2="257.93" gradientTransform="matrix(1, 0, 0, 1, 0, 0)" xlink:href="#linear-gradient"/><linearGradient id="linear-gradient-102" x1="360.56" y1="321.63" x2="366.14" y2="336.13" gradientTransform="translate(158.43 -192.38) rotate(21.05)" xlink:href="#linear-gradient"/><linearGradient id="linear-gradient-103" x1="368.38" y1="240.92" x2="390.41" y2="249.4" gradientTransform="matrix(1, 0, 0, 1, 0, 0)" xlink:href="#linear-gradient"/><linearGradient id="linear-gradient-104" x1="367.63" y1="312" x2="375.51" y2="332.49" gradientTransform="translate(158.43 -192.38) rotate(21.05)" xlink:href="#linear-gradient"/><linearGradient id="linear-gradient-105" x1="385.44" y1="240.49" x2="393.38" y2="243.55" gradientTransform="matrix(1, 0, 0, 1, 0, 0)" xlink:href="#linear-gradient"/><linearGradient id="linear-gradient-106" x1="350.37" y1="313.72" x2="355.04" y2="325.84" gradientTransform="translate(158.43 -192.38) rotate(21.05)" xlink:href="#linear-gradient"/><linearGradient id="linear-gradient-107" x1="361.2" y1="228.41" x2="384.25" y2="237.28" gradientTransform="matrix(1, 0, 0, 1, 0, 0)" xlink:href="#linear-gradient"/><linearGradient id="linear-gradient-108" x1="355.76" y1="301.66" x2="363.75" y2="322.43" gradientTransform="translate(158.43 -192.38) rotate(21.05)" xlink:href="#linear-gradient"/><linearGradient id="linear-gradient-109" x1="377.21" y1="226.39" x2="386.89" y2="230.11" gradientTransform="matrix(1, 0, 0, 1, 0, 0)" xlink:href="#linear-gradient"/><linearGradient id="linear-gradient-110" x1="338.93" y1="307.47" x2="342.62" y2="317.05" gradientTransform="translate(158.43 -192.38) rotate(21.05)" xlink:href="#linear-gradient"/><linearGradient id="linear-gradient-111" x1="352.59" y1="216.83" x2="376.13" y2="225.89" gradientTransform="matrix(1, 0, 0, 1, 0, 0)" xlink:href="#linear-gradient"/><linearGradient id="linear-gradient-112" x1="342.54" y1="293.3" x2="350.46" y2="313.88" gradientTransform="translate(158.43 -192.38) rotate(21.05)" xlink:href="#linear-gradient"/><linearGradient id="linear-gradient-113" x1="366.68" y1="213.26" x2="378.77" y2="217.91" gradientTransform="matrix(1, 0, 0, 1, 0, 0)" xlink:href="#linear-gradient"/><linearGradient id="linear-gradient-114" x1="326.37" y1="302.7" x2="329.28" y2="310.25" gradientTransform="translate(158.43 -192.38) rotate(21.05)" xlink:href="#linear-gradient"/><linearGradient id="linear-gradient-115" x1="342.62" y1="206.73" x2="366.13" y2="215.78" gradientTransform="matrix(1, 0, 0, 1, 0, 0)" xlink:href="#linear-gradient"/><linearGradient id="linear-gradient-116" x1="328.26" y1="287.1" x2="335.93" y2="307.03" gradientTransform="translate(158.43 -192.38) rotate(21.05)" xlink:href="#linear-gradient"/><linearGradient id="linear-gradient-117" x1="354.14" y1="201.43" x2="369.11" y2="207.19" gradientTransform="matrix(1, 0, 0, 1, 0, 0)" xlink:href="#linear-gradient"/><linearGradient id="linear-gradient-118" x1="211.75" y1="355.63" x2="218.07" y2="370.91" gradientTransform="matrix(-0.92, 0.38, 0.38, 0.92, 299.18, -214.9)" xlink:href="#linear-gradient"/><linearGradient id="linear-gradient-119" x1="200.92" y1="363.27" x2="228.91" y2="363.27" gradientTransform="matrix(-0.92, 0.38, 0.38, 0.92, 299.18, -214.9)" xlink:href="#linear-gradient"/><linearGradient id="linear-gradient-120" x1="278.71" y1="442.53" x2="287.27" y2="463.21" gradientTransform="matrix(-0.92, 0.38, 0.38, 0.92, 299.18, -214.9)" xlink:href="#linear-gradient"/><linearGradient id="linear-gradient-121" x1="216.19" y1="309.77" x2="205.67" y2="314.13" gradientTransform="matrix(1, 0, 0, 1, 0, 0)" xlink:href="#linear-gradient"/><linearGradient id="linear-gradient-122" x1="292.05" y1="446.89" x2="297.16" y2="459.23" gradientTransform="matrix(-0.92, 0.38, 0.38, 0.92, 299.18, -214.9)" xlink:href="#linear-gradient"/><linearGradient id="linear-gradient-123" x1="206.59" y1="313.95" x2="193.96" y2="319.18" gradientTransform="matrix(1, 0, 0, 1, 0, 0)" xlink:href="#linear-gradient"/><linearGradient id="linear-gradient-124" x1="277.49" y1="456.54" x2="285.99" y2="477.07" gradientTransform="matrix(-0.92, 0.38, 0.38, 0.92, 299.18, -214.9)" xlink:href="#linear-gradient"/><linearGradient id="linear-gradient-125" x1="221.63" y1="322.61" x2="213.2" y2="326.1" gradientTransform="matrix(1, 0, 0, 1, 0, 0)" xlink:href="#linear-gradient"/><linearGradient id="linear-gradient-126" x1="291.1" y1="463.71" x2="295.14" y2="473.46" gradientTransform="matrix(-0.92, 0.38, 0.38, 0.92, 299.18, -214.9)" xlink:href="#linear-gradient"/><linearGradient id="linear-gradient-127" x1="215.44" y1="327.08" x2="199.71" y2="333.58" gradientTransform="matrix(1, 0, 0, 1, 0, 0)" xlink:href="#linear-gradient"/><linearGradient id="linear-gradient-128" x1="274.06" y1="470.53" x2="282.29" y2="490.43" gradientTransform="matrix(-0.92, 0.38, 0.38, 0.92, 299.18, -214.9)" xlink:href="#linear-gradient"/><linearGradient id="linear-gradient-129" x1="229.59" y1="334.13" x2="222.31" y2="337.14" gradientTransform="matrix(1, 0, 0, 1, 0, 0)" xlink:href="#linear-gradient"/><linearGradient id="linear-gradient-130" x1="287.47" y1="480" x2="290.63" y2="487.64" gradientTransform="matrix(-0.92, 0.38, 0.38, 0.92, 299.18, -214.9)" xlink:href="#linear-gradient"/><linearGradient id="linear-gradient-131" x1="226.39" y1="339.01" x2="207.92" y2="346.65" gradientTransform="matrix(1, 0, 0, 1, 0, 0)" xlink:href="#linear-gradient"/><linearGradient id="linear-gradient-132" x1="268.48" y1="484.18" x2="276.27" y2="503" gradientTransform="matrix(-0.92, 0.38, 0.38, 0.92, 299.18, -214.9)" xlink:href="#linear-gradient"/><linearGradient id="linear-gradient-133" x1="239.86" y1="344.07" x2="232.78" y2="347" gradientTransform="matrix(1, 0, 0, 1, 0, 0)" xlink:href="#linear-gradient"/><linearGradient id="linear-gradient-134" x1="281.21" y1="495.3" x2="283.78" y2="501.52" gradientTransform="matrix(-0.92, 0.38, 0.38, 0.92, 299.18, -214.9)" xlink:href="#linear-gradient"/><linearGradient id="linear-gradient-135" x1="239.17" y1="349.48" x2="218.39" y2="358.08" gradientTransform="matrix(1, 0, 0, 1, 0, 0)" xlink:href="#linear-gradient"/><linearGradient id="linear-gradient-136" x1="260.9" y1="497.18" x2="268.06" y2="514.48" gradientTransform="matrix(-0.92, 0.38, 0.38, 0.92, 299.18, -214.9)" xlink:href="#linear-gradient"/><linearGradient id="linear-gradient-137" x1="252.21" y1="352.21" x2="244.4" y2="355.44" gradientTransform="matrix(1, 0, 0, 1, 0, 0)" xlink:href="#linear-gradient"/><linearGradient id="linear-gradient-138" x1="272.45" y1="509.23" x2="274.76" y2="514.8" gradientTransform="matrix(-0.92, 0.38, 0.38, 0.92, 299.18, -214.9)" xlink:href="#linear-gradient"/><linearGradient id="linear-gradient-139" x1="253.49" y1="358.26" x2="230.89" y2="367.62" gradientTransform="matrix(1, 0, 0, 1, 0, 0)" xlink:href="#linear-gradient"/><linearGradient id="linear-gradient-140" x1="251.48" y1="509.22" x2="257.84" y2="524.59" gradientTransform="matrix(-0.92, 0.38, 0.38, 0.92, 299.18, -214.9)" xlink:href="#linear-gradient"/><linearGradient id="linear-gradient-141" x1="266.3" y1="358.36" x2="256.91" y2="362.24" gradientTransform="matrix(1, 0, 0, 1, 0, 0)" xlink:href="#linear-gradient"/><linearGradient id="linear-gradient-142" x1="261.39" y1="521.43" x2="263.78" y2="527.2" gradientTransform="matrix(-0.92, 0.38, 0.38, 0.92, 299.18, -214.9)" xlink:href="#linear-gradient"/><linearGradient id="linear-gradient-143" x1="269.02" y1="365.15" x2="245.12" y2="375.04" gradientTransform="matrix(1, 0, 0, 1, 0, 0)" xlink:href="#linear-gradient"/><linearGradient id="linear-gradient-144" x1="240.45" y1="520.02" x2="245.87" y2="533.11" gradientTransform="matrix(-0.92, 0.38, 0.38, 0.92, 299.18, -214.9)" xlink:href="#linear-gradient"/><linearGradient id="linear-gradient-145" x1="281.79" y1="362.4" x2="270.06" y2="367.25" gradientTransform="matrix(1, 0, 0, 1, 0, 0)" xlink:href="#linear-gradient"/><linearGradient id="linear-gradient-146" x1="248.29" y1="531.61" x2="251.11" y2="538.45" gradientTransform="matrix(-0.92, 0.38, 0.38, 0.92, 299.18, -214.9)" xlink:href="#linear-gradient"/><linearGradient id="linear-gradient-147" x1="285.39" y1="369.97" x2="260.76" y2="380.16" gradientTransform="matrix(1, 0, 0, 1, 0, 0)" xlink:href="#linear-gradient"/><linearGradient id="linear-gradient-148" x1="228.06" y1="529.33" x2="232.41" y2="539.84" gradientTransform="matrix(-0.92, 0.38, 0.38, 0.92, 299.18, -214.9)" xlink:href="#linear-gradient"/><linearGradient id="linear-gradient-149" x1="298.29" y1="364.23" x2="283.56" y2="370.33" gradientTransform="matrix(1, 0, 0, 1, 0, 0)" xlink:href="#linear-gradient"/><linearGradient id="linear-gradient-150" x1="233.43" y1="539.54" x2="237.05" y2="548.28" gradientTransform="matrix(-0.92, 0.38, 0.38, 0.92, 299.18, -214.9)" xlink:href="#linear-gradient"/><linearGradient id="linear-gradient-151" x1="302.22" y1="372.61" x2="277.45" y2="382.86" gradientTransform="matrix(1, 0, 0, 1, 0, 0)" xlink:href="#linear-gradient"/><linearGradient id="linear-gradient-152" x1="277.73" y1="429.09" x2="286.15" y2="449.43" gradientTransform="matrix(-0.92, 0.38, 0.38, 0.92, 299.18, -214.9)" xlink:href="#linear-gradient"/><linearGradient id="linear-gradient-153" x1="213.42" y1="296.17" x2="199.96" y2="301.74" gradientTransform="matrix(1, 0, 0, 1, 0, 0)" xlink:href="#linear-gradient"/><linearGradient id="linear-gradient-154" x1="290.48" y1="430.53" x2="296.56" y2="445.21" gradientTransform="matrix(-0.92, 0.38, 0.38, 0.92, 299.18, -214.9)" xlink:href="#linear-gradient"/><linearGradient id="linear-gradient-155" x1="200.42" y1="300.09" x2="190.54" y2="304.18" gradientTransform="matrix(1, 0, 0, 1, 0, 0)" xlink:href="#linear-gradient"/><linearGradient id="linear-gradient-156" x1="274.6" y1="416.24" x2="282.69" y2="435.81" gradientTransform="matrix(-0.92, 0.38, 0.38, 0.92, 299.18, -214.9)" xlink:href="#linear-gradient"/><linearGradient id="linear-gradient-157" x1="212.87" y1="282.06" x2="196.46" y2="288.84" gradientTransform="matrix(1, 0, 0, 1, 0, 0)" xlink:href="#linear-gradient"/><linearGradient id="linear-gradient-158" x1="286.48" y1="414.75" x2="293.39" y2="431.44" gradientTransform="matrix(-0.92, 0.38, 0.38, 0.92, 299.18, -214.9)" xlink:href="#linear-gradient"/><linearGradient id="linear-gradient-159" x1="197.17" y1="285.44" x2="189.11" y2="288.78" gradientTransform="matrix(1, 0, 0, 1, 0, 0)" xlink:href="#linear-gradient"/><linearGradient id="linear-gradient-160" x1="269.39" y1="404.29" x2="276.98" y2="422.63" gradientTransform="matrix(-0.92, 0.38, 0.38, 0.92, 299.18, -214.9)" xlink:href="#linear-gradient"/><linearGradient id="linear-gradient-161" x1="214.39" y1="267.8" x2="195.4" y2="275.66" gradientTransform="matrix(1, 0, 0, 1, 0, 0)" xlink:href="#linear-gradient"/><linearGradient id="linear-gradient-162" x1="280.14" y1="399.89" x2="287.72" y2="418.22" gradientTransform="matrix(-0.92, 0.38, 0.38, 0.92, 299.18, -214.9)" xlink:href="#linear-gradient"/><linearGradient id="linear-gradient-163" x1="196.9" y1="270.36" x2="189.75" y2="273.32" gradientTransform="matrix(1, 0, 0, 1, 0, 0)" xlink:href="#linear-gradient"/><linearGradient id="linear-gradient-164" x1="262.23" y1="393.49" x2="269.15" y2="410.2" gradientTransform="matrix(-0.92, 0.38, 0.38, 0.92, 299.18, -214.9)" xlink:href="#linear-gradient"/><linearGradient id="linear-gradient-165" x1="217.96" y1="253.74" x2="196.8" y2="262.49" gradientTransform="matrix(1, 0, 0, 1, 0, 0)" xlink:href="#linear-gradient"/><linearGradient id="linear-gradient-166" x1="271.6" y1="386.29" x2="279.69" y2="405.84" gradientTransform="matrix(-0.92, 0.38, 0.38, 0.92, 299.18, -214.9)" xlink:href="#linear-gradient"/><linearGradient id="linear-gradient-167" x1="199.59" y1="255.19" x2="192.43" y2="258.15" gradientTransform="matrix(1, 0, 0, 1, 0, 0)" xlink:href="#linear-gradient"/><linearGradient id="linear-gradient-168" x1="253.27" y1="384.1" x2="259.35" y2="398.81" gradientTransform="matrix(-0.92, 0.38, 0.38, 0.92, 299.18, -214.9)" xlink:href="#linear-gradient"/><linearGradient id="linear-gradient-169" x1="223.5" y1="240.2" x2="200.65" y2="249.66" gradientTransform="matrix(1, 0, 0, 1, 0, 0)" xlink:href="#linear-gradient"/><linearGradient id="linear-gradient-170" x1="261.05" y1="374.25" x2="269.47" y2="394.59" gradientTransform="matrix(-0.92, 0.38, 0.38, 0.92, 299.18, -214.9)" xlink:href="#linear-gradient"/><linearGradient id="linear-gradient-171" x1="205.17" y1="240.27" x2="197.13" y2="243.6" gradientTransform="matrix(1, 0, 0, 1, 0, 0)" xlink:href="#linear-gradient"/><linearGradient id="linear-gradient-172" x1="242.71" y1="376.32" x2="247.83" y2="388.69" gradientTransform="matrix(-0.92, 0.38, 0.38, 0.92, 299.18, -214.9)" xlink:href="#linear-gradient"/><linearGradient id="linear-gradient-173" x1="230.87" y1="227.46" x2="206.84" y2="237.41" gradientTransform="matrix(1, 0, 0, 1, 0, 0)" xlink:href="#linear-gradient"/><linearGradient id="linear-gradient-174" x1="248.73" y1="364.04" x2="257.29" y2="384.72" gradientTransform="matrix(-0.92, 0.38, 0.38, 0.92, 299.18, -214.9)" xlink:href="#linear-gradient"/><linearGradient id="linear-gradient-175" x1="213.49" y1="225.95" x2="203.75" y2="229.98" gradientTransform="matrix(1, 0, 0, 1, 0, 0)" xlink:href="#linear-gradient"/><linearGradient id="linear-gradient-176" x1="230.78" y1="370.29" x2="234.85" y2="380.11" gradientTransform="matrix(-0.92, 0.38, 0.38, 0.92, 299.18, -214.9)" xlink:href="#linear-gradient"/><linearGradient id="linear-gradient-177" x1="239.82" y1="215.62" x2="215.15" y2="225.82" gradientTransform="matrix(1, 0, 0, 1, 0, 0)" xlink:href="#linear-gradient"/><linearGradient id="linear-gradient-178" x1="234.92" y1="355.89" x2="243.42" y2="376.44" gradientTransform="matrix(-0.92, 0.38, 0.38, 0.92, 299.18, -214.9)" xlink:href="#linear-gradient"/><linearGradient id="linear-gradient-179" x1="224.34" y1="212.56" x2="212.19" y2="217.59" gradientTransform="matrix(1, 0, 0, 1, 0, 0)" xlink:href="#linear-gradient"/><linearGradient id="linear-gradient-180" x1="217.62" y1="365.85" x2="220.82" y2="373.57" gradientTransform="matrix(-0.92, 0.38, 0.38, 0.92, 299.18, -214.9)" xlink:href="#linear-gradient"/><linearGradient id="linear-gradient-181" x1="250.31" y1="205.3" x2="225.56" y2="215.54" gradientTransform="matrix(1, 0, 0, 1, 0, 0)" xlink:href="#linear-gradient"/><linearGradient id="linear-gradient-182" x1="219.92" y1="349.99" x2="228.18" y2="369.94" gradientTransform="matrix(-0.92, 0.38, 0.38, 0.92, 299.18, -214.9)" xlink:href="#linear-gradient"/><linearGradient id="linear-gradient-183" x1="237.42" y1="200.42" x2="222.28" y2="206.68" gradientTransform="matrix(1, 0, 0, 1, 0, 0)" xlink:href="#linear-gradient"/><linearGradient id="linear-gradient-184" x1="278.38" y1="171.88" x2="318.33" y2="171.88" gradientUnits="userSpaceOnUse"><stop offset="0.1" stop-color="#fcee21"/><stop offset="0.72" stop-color="#fbb03b"/></linearGradient><linearGradient id="linear-gradient-185" x1="277.88" y1="171.84" x2="318.83" y2="171.84" xlink:href="#linear-gradient-184"/><linearGradient id="linear-gradient-186" x1="312.31" y1="201.73" x2="283.08" y2="218.61" xlink:href="#linear-gradient-184"/><linearGradient id="linear-gradient-187" x1="308.46" y1="198.18" x2="284.97" y2="221.67" xlink:href="#linear-gradient-184"/><linearGradient id="linear-gradient-188" x1="296.82" y1="224.3" x2="296.82" y2="288.88" gradientTransform="matrix(1, 0, 0, 1, 0, 0)" xlink:href="#linear-gradient"/><linearGradient id="linear-gradient-189" x1="296.83" y1="223.8" x2="296.83" y2="289.38" gradientTransform="matrix(1, 0, 0, 1, 0, 0)" xlink:href="#linear-gradient"/><linearGradient id="White_Black" x1="297.45" y1="307.98" x2="297.45" y2="298.48" gradientUnits="userSpaceOnUse"><stop offset="0" stop-color="#fff"/><stop offset="1"/></linearGradient><linearGradient id="White_Black-2" x1="222.04" y1="289.6" x2="295.26" y2="289.6" xlink:href="#White_Black"/><linearGradient id="White_Black-3" x1="298.66" y1="289.05" x2="371.92" y2="289.05" xlink:href="#White_Black"/></defs><g id="Layer_2" data-name="Layer 2"><g id="Layer_1-2" data-name="Layer 1"><ellipse class="cls-1" cx="485.37" cy="404.65" rx="42.49" ry="7.87" transform="translate(-75.8 114.1) rotate(-12.44)"/><ellipse class="cls-2" cx="449.86" cy="384.27" rx="30.38" ry="11.01" transform="translate(-22.46 740.57) rotate(-77.53)"/><ellipse class="cls-3" cx="450.16" cy="432.27" rx="43.43" ry="7.7" transform="translate(-50.78 60.03) rotate(-7.22)"/><ellipse class="cls-4" cx="418.66" cy="408.99" rx="31.18" ry="10.73" transform="translate(-124.3 627.51) rotate(-66.25)"/><ellipse class="cls-5" cx="409.8" cy="456.36" rx="44.02" ry="7.6" transform="translate(-17.08 15.94) rotate(-2.18)"/><ellipse class="cls-6" cx="382.84" cy="430.59" rx="32.46" ry="10.3" transform="translate(-188.26 506.9) rotate(-55.97)"/><ellipse class="cls-7" cx="364.97" cy="476.51" rx="7.56" ry="44.23" transform="matrix(0.05, -1, 1, 0.05, -128.61, 818.04)"/><ellipse class="cls-8" cx="343.02" cy="448.7" rx="34.07" ry="9.82" transform="translate(-218.89 391.69) rotate(-46.81)"/><ellipse class="cls-9" cx="316.45" cy="492.4" rx="7.59" ry="44.05" transform="translate(-213.98 739.86) rotate(-82.28)"/><ellipse class="cls-10" cx="299.88" cy="463.01" rx="35.85" ry="9.33" transform="translate(-223.62 289.07) rotate(-38.69)"/><ellipse class="cls-11" cx="265.06" cy="503.73" rx="7.69" ry="43.48" transform="translate(-284.74 651.09) rotate(-77.25)"/><ellipse class="cls-12" cx="254.15" cy="473.26" rx="37.67" ry="8.88" transform="translate(-209.6 202.14) rotate(-31.45)"/><ellipse class="cls-13" cx="211.67" cy="510.32" rx="7.86" ry="42.56" transform="translate(-339.05 554.36) rotate(-72.04)"/><ellipse class="cls-14" cx="206.62" cy="479.3" rx="39.41" ry="8.49" transform="translate(-182.72 131.68) rotate(-24.92)"/><ellipse class="cls-15" cx="101.64" cy="376.31" rx="8.5" ry="32.43" transform="translate(-25.66 7.89) rotate(-3.95)"/><ellipse class="cls-16" cx="73.36" cy="399.88" rx="8.65" ry="31.88" transform="translate(-331.4 361.67) rotate(-74.21)"/><ellipse class="cls-17" cx="122.87" cy="406.81" rx="8.68" ry="31.78" transform="translate(-87.15 37.37) rotate(-12.81)"/><ellipse class="cls-18" cx="97.72" cy="433.68" rx="8.47" ry="32.55" transform="translate(-344.63 477.89) rotate(-83.01)"/><ellipse class="cls-19" cx="148.82" cy="433.29" rx="8.83" ry="31.24" transform="translate(-151.97 87.73) rotate(-22.08)"/><ellipse class="cls-20" cx="127.32" cy="462.9" rx="33.27" ry="8.29" transform="translate(-11.1 3.2) rotate(-1.38)"/><ellipse class="cls-21" cx="178.96" cy="455.19" rx="8.93" ry="30.88" transform="translate(-212.4 161.82) rotate(-31.68)"/><ellipse class="cls-22" cx="161.56" cy="486.93" rx="33.98" ry="8.11" transform="translate(-76.95 32.71) rotate(-9.35)"/><path class="cls-23" d="M19.55,377.4l-12.7-2.31a111.39,111.39,0,0,0,10.63,26.76,109.55,109.55,0,0,0,20,25.85A255.53,255.53,0,0,0,14,452.15C9.13,458,4.75,463.75.87,469.26l18.68,3.15A1655.73,1655.73,0,0,0,298.39,492a1657,1657,0,0,0,283.67-28.64l12.81-1.72-14.19-16.45-20-22.35q10-15.37,20-30.74,5.22-10,10.45-20l-22.84,2.57a1994.52,1994.52,0,0,1-263,20.26A1996.17,1996.17,0,0,1,19.55,377.4Z"/><path class="cls-24" d="M19.29,383.23a1750.56,1750.56,0,0,0,275.1,19.35A1749.52,1749.52,0,0,0,573.62,377.7a9.5,9.5,0,0,1,2.76,5.53c.62,5.3-3.9,8.81-4.13,9l-20.69,29,26.2,27a6.64,6.64,0,0,1,0,5.53,6.47,6.47,0,0,1-6.2,3.45,1558.58,1558.58,0,0,1-244.77,27A1559.93,1559.93,0,0,1,17.22,462.71a10.44,10.44,0,0,1,.69-6.91,10,10,0,0,1,2.76-3.45l25.51-25.58L20,392.22a7.21,7.21,0,0,1-2.07-5.53,6.71,6.71,0,0,1,1.38-3.46"/><path class="cls-25" d="M28.08,388.77A1513.69,1513.69,0,0,0,311.39,411,1513.25,1513.25,0,0,0,568.7,384.74l-27.38,39,29.43,26.88a1872.58,1872.58,0,0,1-281.94,23.52A1871.84,1871.84,0,0,1,24,457.31l32.84-29.57Z"/><ellipse class="cls-26" cx="293.86" cy="265.51" rx="178.17" ry="186.53"/><path class="cls-27" d="M297.4,18.3C170.15,18.3,67,128.83,67,265.17S170.15,512,297.4,512,527.82,401.5,527.82,265.17,424.66,18.3,297.4,18.3ZM298.07,452c-96.55,0-174.82-83.51-174.82-186.53S201.52,79,298.07,79,472.9,162.49,472.9,265.51,394.62,452,298.07,452Z"/><path class="cls-28" d="M163.84,154.46a251.73,251.73,0,0,0,54.7-2.81,259.79,259.79,0,0,0,77.29-25.56,303.09,303.09,0,0,0,64.88,22.41,295.6,295.6,0,0,0,67.43,7A296.17,296.17,0,0,1,431.32,248c-7.86,63.33-34.29,105.9-45.8,124a289.16,289.16,0,0,1-82.06,84.77,247.87,247.87,0,0,1-66.79-51.14A272.91,272.91,0,0,1,189,334.14a280,280,0,0,1-22.9-64.45A294.2,294.2,0,0,1,163.84,154.46Z"/><path class="cls-29" d="M174.43,168.78a420.4,420.4,0,0,0,52.77-7.84,427.55,427.55,0,0,0,69.92-21.4,300.34,300.34,0,0,0,64,21.4,293.85,293.85,0,0,0,58.05,6.41c3.36,26.09,6.34,75.66-12.54,131.94A276.81,276.81,0,0,1,301.74,439.08a227.35,227.35,0,0,1-65.31-51.35c-30.26-34.31-44.3-70.35-50.79-91.29a225.18,225.18,0,0,1-15.83-84.16A222.35,222.35,0,0,1,174.43,168.78Z"/><path class="cls-30" d="M296,66.44c-103.81,0-188,88.37-188,197.39s84.15,197.38,188,197.38,188-88.37,188-197.38S399.79,66.44,296,66.44Zm-3.91,377.69c-95.39-2.09-171-84.89-168.85-184.92S204.44,79.78,299.83,81.88s171,84.89,168.84,184.92S387.47,446.23,292.08,444.13Z"/><ellipse class="cls-31" cx="296.28" cy="263.58" rx="180.57" ry="189.97"/><path d="M296.06,0C159,0,47.81,119.19,47.81,266.22S159,532.44,296.06,532.44,544.31,413.25,544.31,266.22,433.17,0,296.06,0ZM290.9,509.4c-126-2.83-225.83-114.49-223-249.41S175.15,18,301.14,20.82,527,135.31,524.14,270.23,416.89,512.22,290.9,509.4Z"/><ellipse class="cls-32" cx="296.06" cy="265.59" rx="238.56" ry="256.36"/><path class="cls-30" d="M91,408.86a1584.7,1584.7,0,0,0,212.82,11,1582.12,1582.12,0,0,0,204.62-16.51c.65,10.49.94,21.76.68,33.71a405.87,405.87,0,0,1-4.11,49.54A1786.13,1786.13,0,0,1,293.6,501a1785.82,1785.82,0,0,1-195-8.94A281.83,281.83,0,0,1,91,408.86"/><path class="cls-33" d="M98.36,421.11a1852.17,1852.17,0,0,0,203.19,8.35,1847.21,1847.21,0,0,0,195.82-13.13q-.67,30.14-1.34,60.27a1692.19,1692.19,0,0,1-189.78,13.72,1693.16,1693.16,0,0,1-203.19-8.95Q100.7,451.23,98.36,421.11Z"/><path class="cls-34" d="M354.82,201.34a26.35,26.35,0,0,1,8,10.55,26.79,26.79,0,0,1-12.27-5.54,26.13,26.13,0,0,1-8-10.56A26.88,26.88,0,0,1,354.82,201.34Z"/><path class="cls-35" d="M385.66,311.25a22.28,22.28,0,0,1-1.84,11.46A21.19,21.19,0,0,1,379.6,312a22.14,22.14,0,0,1,1.86-11.47A21.42,21.42,0,0,1,385.66,311.25Z"/><path class="cls-36" d="M386.16,311.2a22.7,22.7,0,0,1-2,11.67l-.27.57-.37-.5a21.6,21.6,0,0,1-4.17-11,22.47,22.47,0,0,1,2-11.52l.09-.19.13.17a21.49,21.49,0,0,1,4.1,10.83Zm-.5.05a21.41,21.41,0,0,0-4.3-10.68l.21,0a22.05,22.05,0,0,0-1.73,11.36,21.14,21.14,0,0,0,4.28,10.58l-.64.07a22,22,0,0,0,1.69-11.25Z"/><path class="cls-37" d="M394.4,318.57A20.37,20.37,0,0,1,384,322.82a21.68,21.68,0,0,1,6.9-9.36,20.28,20.28,0,0,1,10.44-4.23A21.75,21.75,0,0,1,394.4,318.57Z"/><path class="cls-38" d="M394.71,319A20.86,20.86,0,0,1,384,323.19l-.62.06.23-.57a22,22,0,0,1,7-9.3,20.6,20.6,0,0,1,10.71-4.28h.21l-.08.19a21.76,21.76,0,0,1-7,9.29Zm-.31-.4a21.64,21.64,0,0,0,6.8-9.39l.13.18a20.12,20.12,0,0,0-10.43,4.41,21.44,21.44,0,0,0-6.57,9.18l-.39-.51a20,20,0,0,0,10.16-4.26Z"/><path class="cls-39" d="M380.1,324.14a22,22,0,0,1-3.64,11,20.73,20.73,0,0,1-2.52-11.17,21.89,21.89,0,0,1,3.65-11A20.89,20.89,0,0,1,380.1,324.14Z"/><path class="cls-40" d="M380.59,324.17a22.28,22.28,0,0,1-3.82,11.13l-.35.52-.29-.54a21.18,21.18,0,0,1-2.44-11.41,22.19,22.19,0,0,1,3.79-11l.12-.17.1.18a21,21,0,0,1,2.4,11.23Zm-.49,0A20.86,20.86,0,0,0,377.48,313h.21a21.72,21.72,0,0,0-3.5,10.86,20.45,20.45,0,0,0,2.6,11l-.64,0a21.51,21.51,0,0,0,3.45-10.78Z"/><path class="cls-41" d="M387.66,332.6a20.84,20.84,0,0,1-11.06,2.62,21.86,21.86,0,0,1,8.35-8.14A20.83,20.83,0,0,1,396,324.47,21.91,21.91,0,0,1,387.66,332.6Z"/><path class="cls-42" d="M387.9,333a21.46,21.46,0,0,1-11.31,2.56l-.63,0,.32-.53a22.2,22.2,0,0,1,8.42-8.1A21.13,21.13,0,0,1,396,324.34l.21,0-.11.18a22,22,0,0,1-8.46,8.06Zm-.24-.44a22,22,0,0,0,8.25-8.19l.1.19A20.66,20.66,0,0,0,385,327.37a21.56,21.56,0,0,0-8,8l-.31-.57a20.48,20.48,0,0,0,10.8-2.68Z"/><path class="cls-43" d="M372.53,335.94a21.73,21.73,0,0,1-5.34,10.2,20.06,20.06,0,0,1-.76-11.31,21.57,21.57,0,0,1,5.35-10.2A20.33,20.33,0,0,1,372.53,335.94Z"/><path class="cls-44" d="M373,336.05a22.32,22.32,0,0,1-5.56,10.35l-.42.44-.2-.57a20.5,20.5,0,0,1-.64-11.58,21.85,21.85,0,0,1,5.49-10.15l.14-.14.06.18a20.37,20.37,0,0,1,.64,11.36Zm-.49-.11a20.32,20.32,0,0,0-.87-11.27l.21,0a21.5,21.5,0,0,0-5.18,10.09,19.92,19.92,0,0,0,.85,11.21l-.63-.12A21.33,21.33,0,0,0,372,335.84Z"/><path class="cls-45" d="M378.74,345.36a21.37,21.37,0,0,1-11.43.92,22.24,22.24,0,0,1,9.6-6.74,21.37,21.37,0,0,1,11.43-.92A22.33,22.33,0,0,1,378.74,345.36Z"/><path class="cls-46" d="M378.91,345.83a22,22,0,0,1-11.67.82l-.62-.12.4-.49a22.64,22.64,0,0,1,9.68-6.69,21.59,21.59,0,0,1,11.67-.85l.21,0-.14.16a22.4,22.4,0,0,1-9.7,6.66Zm-.17-.47a22.32,22.32,0,0,0,9.51-6.82l.07.21a21.28,21.28,0,0,0-11.45,1.07,22,22,0,0,0-9.27,6.7l-.22-.6a21.12,21.12,0,0,0,11.19-1Z"/><path class="cls-47" d="M363.14,346.39a21.82,21.82,0,0,1-6.92,9.21,19.63,19.63,0,0,1,1-11.21,21.67,21.67,0,0,1,6.93-9.2A19.78,19.78,0,0,1,363.14,346.39Z"/><path class="cls-48" d="M363.6,346.57a22.29,22.29,0,0,1-7.15,9.32l-.49.37-.11-.59a20.07,20.07,0,0,1,1.2-11.49,21.85,21.85,0,0,1,7-9.09l.16-.12,0,.2a19.92,19.92,0,0,1-1.14,11.22Zm-.46-.18a19.86,19.86,0,0,0,.9-11.18l.2.08a21.46,21.46,0,0,0-6.73,9.08,19.42,19.42,0,0,0-.93,11.15l-.59-.22a21.35,21.35,0,0,0,6.68-9.09Z"/><path class="cls-49" d="M367.86,356.53a21.91,21.91,0,0,1-11.54-.78,22.71,22.71,0,0,1,10.62-5.19,21.91,21.91,0,0,1,11.54.8A22.87,22.87,0,0,1,367.86,356.53Z"/><path class="cls-50" d="M368,357a22.62,22.62,0,0,1-11.76-.92l-.61-.22.49-.42a23.15,23.15,0,0,1,10.7-5.13,22.16,22.16,0,0,1,11.75.9l.21.07-.17.14a23,23,0,0,1-10.7,5.08Zm-.09-.5a22.79,22.79,0,0,0,10.54-5.27l0,.22a21.82,21.82,0,0,0-11.58-.64,22.48,22.48,0,0,0-10.3,5.2l-.12-.64a21.66,21.66,0,0,0,11.32.64Z"/><path class="cls-51" d="M352.14,355.24a22,22,0,0,1-8.34,8,19.22,19.22,0,0,1,2.76-10.83,22,22,0,0,1,8.35-8A19.43,19.43,0,0,1,352.14,355.24Z"/><path class="cls-52" d="M352.57,355.49a22.35,22.35,0,0,1-8.59,8.07l-.53.29,0-.6a19.74,19.74,0,0,1,3-11.13,22.22,22.22,0,0,1,8.41-7.81l.18-.1v.2a19.54,19.54,0,0,1-2.9,10.83Zm-.43-.25a19.44,19.44,0,0,0,2.65-10.82l.18.1a21.75,21.75,0,0,0-8.1,7.86,19.1,19.1,0,0,0-2.7,10.84l-.55-.31a21.61,21.61,0,0,0,8.09-7.93Z"/><path class="cls-53" d="M355.25,365.88a22.5,22.5,0,0,1-11.38-2.47,23.42,23.42,0,0,1,11.4-3.52,22.28,22.28,0,0,1,11.38,2.49A23.45,23.45,0,0,1,355.25,365.88Z"/><path class="cls-54" d="M355.27,366.38a23,23,0,0,1-11.57-2.64l-.58-.31.55-.34a23.65,23.65,0,0,1,11.45-3.44,22.72,22.72,0,0,1,11.59,2.61l.2.11-.19.11a23.54,23.54,0,0,1-11.47,3.4Zm0-.5a23.46,23.46,0,0,0,11.34-3.61v.22a22.31,22.31,0,0,0-11.45-2.34,23.15,23.15,0,0,0-11.08,3.57l0-.65a22.11,22.11,0,0,0,11.18,2.31Z"/><path class="cls-55" d="M339.79,362.28a22.45,22.45,0,0,1-9.57,6.61,19.16,19.16,0,0,1,4.45-10.21,22.32,22.32,0,0,1,9.58-6.6A19.18,19.18,0,0,1,339.79,362.28Z"/><path class="cls-56" d="M340.17,362.6a22.76,22.76,0,0,1-9.82,6.64l-.57.19.07-.58a19.59,19.59,0,0,1,4.79-10.51,22.47,22.47,0,0,1,9.57-6.37l.19-.06,0,.19a19.36,19.36,0,0,1-4.58,10.18Zm-.38-.32a19.2,19.2,0,0,0,4.34-10.21l.16.13a22.14,22.14,0,0,0-9.27,6.47,18.92,18.92,0,0,0-4.43,10.26l-.49-.39a22,22,0,0,0,9.31-6.58Z"/><path class="cls-57" d="M341.23,373.17a22.66,22.66,0,0,1-11-4.11,24,24,0,0,1,11.92-1.75,22.68,22.68,0,0,1,10.95,4.12A24.09,24.09,0,0,1,341.23,373.17Z"/><path class="cls-58" d="M341.18,373.67a23.37,23.37,0,0,1-11.13-4.3l-.54-.4.61-.25A24.35,24.35,0,0,1,342,367a22.91,22.91,0,0,1,11.17,4.28l.19.14-.21.08a24.24,24.24,0,0,1-12,1.63Zm.05-.5a24.06,24.06,0,0,0,11.86-1.86l0,.22a22.64,22.64,0,0,0-11.08-4,23.64,23.64,0,0,0-11.57,1.87l.07-.65a22.47,22.47,0,0,0,10.79,3.91Z"/><path class="cls-59" d="M326.38,367.36a22.84,22.84,0,0,1-10.57,5.05,19,19,0,0,1,6-9.34,22.72,22.72,0,0,1,10.58-5A19.15,19.15,0,0,1,326.38,367.36Z"/><path class="cls-60" d="M326.7,367.74a23.31,23.31,0,0,1-10.82,5l-.59.11.16-.57a19.47,19.47,0,0,1,6.45-9.62,23.06,23.06,0,0,1,10.5-4.79l.19,0,0,.19a19.34,19.34,0,0,1-6.16,9.3Zm-.32-.38A19.18,19.18,0,0,0,332.3,358l.14.15a22.7,22.7,0,0,0-10.22,4.94,18.82,18.82,0,0,0-6.05,9.43l-.43-.46A22.39,22.39,0,0,0,326.05,367Z"/><path class="cls-61" d="M326.11,378.24a23,23,0,0,1-10.28-5.64,24.62,24.62,0,0,1,12.15,0,22.74,22.74,0,0,1,10.27,5.65A24.71,24.71,0,0,1,326.11,378.24Z"/><path class="cls-62" d="M326,378.73a23.42,23.42,0,0,1-10.41-5.86l-.49-.48.66-.16a25,25,0,0,1,12.1.11,23.15,23.15,0,0,1,10.5,5.86l.16.16-.22.06a24.94,24.94,0,0,1-12.17-.18Zm.13-.49a24.7,24.7,0,0,0,12.11-.07l-.06.22a22.72,22.72,0,0,0-10.44-5.56,24.41,24.41,0,0,0-11.8.13l.17-.64a22.5,22.5,0,0,0,10.14,5.44Z"/><path class="cls-63" d="M312.21,370.35a23.56,23.56,0,0,1-11.32,3.39,19.13,19.13,0,0,1,7.47-8.26,23.41,23.41,0,0,1,11.34-3.38A19.21,19.21,0,0,1,312.21,370.35Z"/><path class="cls-64" d="M312.48,370.77a23.87,23.87,0,0,1-11.58,3.34l-.61,0,.26-.55a19.56,19.56,0,0,1,8-8.48A23.77,23.77,0,0,1,319.7,362h.19l-.08.18a19.41,19.41,0,0,1-7.6,8.2Zm-.27-.42a19.24,19.24,0,0,0,7.38-8.3l.12.17a23.26,23.26,0,0,0-10.94,3.3,19.07,19.07,0,0,0-7.55,8.38l-.35-.53A23.12,23.12,0,0,0,312,369.92Z"/><path class="cls-65" d="M310.24,381a22.8,22.8,0,0,1-9.36-7.05,25.21,25.21,0,0,1,12.1,1.84,22.74,22.74,0,0,1,9.36,7.06A25.34,25.34,0,0,1,310.24,381Z"/><path class="cls-66" d="M310.05,381.44a23.43,23.43,0,0,1-9.47-7.29l-.42-.55.68-.06a25.49,25.49,0,0,1,12,1.89,23.1,23.1,0,0,1,9.6,7.31l.14.19-.23,0a25.46,25.46,0,0,1-12.11-2Zm.19-.47a25.4,25.4,0,0,0,12.09,1.73l-.09.2a22.7,22.7,0,0,0-9.59-7,24.8,24.8,0,0,0-11.74-1.6l.27-.61a22.45,22.45,0,0,0,9.25,6.82Z"/><path class="cls-67" d="M389.06,297.84a22.69,22.69,0,0,1-.05,11.69,21.84,21.84,0,0,1-5.79-10.11,22.62,22.62,0,0,1,.06-11.7A22,22,0,0,1,389.06,297.84Z"/><path class="cls-68" d="M389.54,297.71a23.16,23.16,0,0,1-.17,11.92l-.17.62-.45-.45A22.24,22.24,0,0,1,383,299.47a23,23,0,0,1,.19-11.78l.06-.21.15.15a22.14,22.14,0,0,1,5.69,10.21Zm-.48.13a22,22,0,0,0-5.87-10l.21-.05a22.4,22.4,0,0,0,.06,11.58,21.63,21.63,0,0,0,5.81,9.93l-.62.17a22.3,22.3,0,0,0-.08-11.47Z"/><path class="cls-69" d="M398.75,303.87a19.75,19.75,0,0,1-9.57,5.74,21.77,21.77,0,0,1,5.34-10.33,19.81,19.81,0,0,1,9.58-5.73A21.8,21.8,0,0,1,398.75,303.87Z"/><path class="cls-70" d="M399.12,304.21a20.41,20.41,0,0,1-9.84,5.77l-.6.14.13-.59a22,22,0,0,1,5.37-10.25,20.13,20.13,0,0,1,9.88-5.86l.2-.05,0,.2a21.82,21.82,0,0,1-5.47,10.3Zm-.37-.34A21.79,21.79,0,0,0,404,293.52l.16.15a19.7,19.7,0,0,0-9.58,5.95,21.41,21.41,0,0,0-5,10.07l-.46-.44a19.48,19.48,0,0,0,9.3-5.73Z"/><path class="cls-71" d="M390.32,284a23.39,23.39,0,0,1,1.76,11.67,22.37,22.37,0,0,1-7.24-9.24,23.26,23.26,0,0,1-1.74-11.67A22.26,22.26,0,0,1,390.32,284Z"/><path class="cls-72" d="M390.78,283.78a23.76,23.76,0,0,1,1.67,11.9l-.08.65-.52-.39a22.68,22.68,0,0,1-7.25-9.47A23.57,23.57,0,0,1,383,274.71l0-.21.17.13a22.5,22.5,0,0,1,7.15,9.34Zm-.46.19a22.28,22.28,0,0,0-7.29-9.14l.19-.09a23.11,23.11,0,0,0,1.84,11.53,22,22,0,0,0,7.24,9.07l-.6.26a22.83,22.83,0,0,0-1.84-11.43Z"/><path class="cls-73" d="M400.76,288.57a19.51,19.51,0,0,1-8.5,7.12,21.76,21.76,0,0,1,3.64-11.07,19.4,19.4,0,0,1,8.51-7.11A21.86,21.86,0,0,1,400.76,288.57Z"/><path class="cls-74" d="M401.17,288.85a20,20,0,0,1-8.76,7.19l-.57.23,0-.6a22.2,22.2,0,0,1,3.66-11,19.67,19.67,0,0,1,8.82-7.32l.19-.08v.2a22,22,0,0,1-3.78,11.06Zm-.41-.28a21.9,21.9,0,0,0,3.52-11.07l.18.12A19.32,19.32,0,0,0,396,285a21.54,21.54,0,0,0-3.32,10.72l-.53-.37a19,19,0,0,0,8.23-7Z"/><path class="cls-75" d="M389.43,270A24,24,0,0,1,393,281.34a22.66,22.66,0,0,1-8.52-8.16,23.81,23.81,0,0,1-3.5-11.39A22.71,22.71,0,0,1,389.43,270Z"/><path class="cls-76" d="M389.86,269.7a24.53,24.53,0,0,1,3.46,11.62l0,.67-.57-.32a23,23,0,0,1-8.58-8.41,24.13,24.13,0,0,1-3.39-11.46v-.22l.19.1a22.83,22.83,0,0,1,8.45,8.28Zm-.43.26a22.76,22.76,0,0,0-8.56-8.06l.18-.11A23.68,23.68,0,0,0,384.62,273a22.32,22.32,0,0,0,8.5,8l-.55.35A23.52,23.52,0,0,0,389,270.22Z"/><path class="cls-77" d="M400.37,273a19.12,19.12,0,0,1-7.24,8.33A22.14,22.14,0,0,1,395,269.8a19.08,19.08,0,0,1,7.25-8.33A22.25,22.25,0,0,1,400.37,273Z"/><path class="cls-78" d="M400.82,273.24a19.77,19.77,0,0,1-7.49,8.45l-.52.31-.06-.6A22.69,22.69,0,0,1,394.63,270a19.47,19.47,0,0,1,7.55-8.63l.18-.11,0,.21a22.44,22.44,0,0,1-2,11.57Zm-.45-.21a22.26,22.26,0,0,0,1.75-11.55l.2.1a19,19,0,0,0-7.22,8.62,21.88,21.88,0,0,0-1.59,11.13l-.58-.29a18.88,18.88,0,0,0,7-8.22Z"/><path class="cls-79" d="M386.4,256.12A24.75,24.75,0,0,1,391.6,267a22.67,22.67,0,0,1-9.61-6.9,24.55,24.55,0,0,1-5.19-10.84A23,23,0,0,1,386.4,256.12Z"/><path class="cls-80" d="M386.79,255.8A25.13,25.13,0,0,1,392,266.88l.13.66-.62-.24a23.18,23.18,0,0,1-9.73-7.16,24.71,24.71,0,0,1-5.06-10.9l0-.22.21.08a23,23,0,0,1,9.55,7Zm-.39.32a22.85,22.85,0,0,0-9.64-6.79l.17-.14a24.29,24.29,0,0,0,5.2,10.64,22.53,22.53,0,0,0,9.6,6.77l-.5.43A24.29,24.29,0,0,0,386,256.44Z"/><path class="cls-81" d="M397.6,257.59a19,19,0,0,1-5.82,9.36,22.71,22.71,0,0,1,.05-11.8,19.12,19.12,0,0,1,5.83-9.36A22.81,22.81,0,0,1,397.6,257.59Z"/><path class="cls-82" d="M398.08,257.73a19.66,19.66,0,0,1-6.05,9.51l-.47.4-.14-.59a23,23,0,0,1,.07-11.6,19.35,19.35,0,0,1,6.09-9.76l.16-.13.05.2a22.92,22.92,0,0,1-.19,11.83Zm-.48-.14a22.7,22.7,0,0,0-.06-11.77l.21.07a19,19,0,0,0-5.77,9.69,22.45,22.45,0,0,0,.17,11.28l-.62-.19a18.83,18.83,0,0,0,5.59-9.21Z"/><path class="cls-83" d="M381.3,242.76a25.24,25.24,0,0,1,6.76,10.05,22.83,22.83,0,0,1-10.48-5.48,25.15,25.15,0,0,1-6.75-10.06A22.92,22.92,0,0,1,381.3,242.76Z"/><path class="cls-84" d="M381.64,242.39a25.7,25.7,0,0,1,6.77,10.29l.23.64-.66-.15a23.11,23.11,0,0,1-10.66-5.75,25.24,25.24,0,0,1-6.61-10.11l-.07-.21.21.05a23.07,23.07,0,0,1,10.45,5.61Zm-.34.37a23,23,0,0,0-10.5-5.37l.14-.16a25,25,0,0,0,6.71,9.82,22.55,22.55,0,0,0,10.49,5.39l-.43.5a24.74,24.74,0,0,0-6.75-9.81Z"/><path class="cls-85" d="M392.51,242.6a19.13,19.13,0,0,1-4.27,10.18A23.19,23.19,0,0,1,386.48,241a19.06,19.06,0,0,1,4.27-10.18A23.29,23.29,0,0,1,392.51,242.6Z"/><path class="cls-86" d="M393,242.66A19.77,19.77,0,0,1,388.54,253l-.41.47-.24-.57a23.84,23.84,0,0,1-1.71-11.53,19.5,19.5,0,0,1,4.47-10.65l.14-.17.08.2a23.48,23.48,0,0,1,1.64,11.82Zm-.49-.06a23.31,23.31,0,0,0-1.88-11.72l.22,0a19.08,19.08,0,0,0-4.16,10.54,23,23,0,0,0,1.9,11.18l-.64-.09a18.82,18.82,0,0,0,4.06-10Z"/><path class="cls-87" d="M374.24,230.19a25.61,25.61,0,0,1,8.18,9,22.6,22.6,0,0,1-11.12-3.94,25.55,25.55,0,0,1-8.17-9.05A22.73,22.73,0,0,1,374.24,230.19Z"/><path class="cls-88" d="M374.52,229.77a26.18,26.18,0,0,1,8.23,9.27l.32.6-.68,0A23,23,0,0,1,371,235.37a25.65,25.65,0,0,1-8-9.08l-.1-.2.22,0a22.84,22.84,0,0,1,11.1,4.08Zm-.28.42a22.73,22.73,0,0,0-11.12-3.84l.12-.18a25.27,25.27,0,0,0,8.05,8.8,22.49,22.49,0,0,0,11.15,3.88l-.35.55a25.23,25.23,0,0,0-8.13-8.8Z"/><path class="cls-89" d="M385.21,228.4a19.36,19.36,0,0,1-2.62,10.77,24,24,0,0,1-3.54-11.49,19.28,19.28,0,0,1,2.63-10.77A24,24,0,0,1,385.21,228.4Z"/><path class="cls-90" d="M385.71,228.38a20,20,0,0,1-2.79,11l-.33.54-.32-.54a24.36,24.36,0,0,1-3.45-11.21,19.68,19.68,0,0,1,2.75-11.3l.11-.19.11.19a24.11,24.11,0,0,1,3.42,11.55Zm-.5,0A24.08,24.08,0,0,0,381.57,217h.22a19.35,19.35,0,0,0-2.46,11.14A23.8,23.8,0,0,0,382.92,239h-.65a19,19,0,0,0,2.44-10.55Z"/><path class="cls-91" d="M365.39,218.67a26.09,26.09,0,0,1,9.41,7.82,22.33,22.33,0,0,1-11.52-2.32,25.8,25.8,0,0,1-9.4-7.83A22.41,22.41,0,0,1,365.39,218.67Z"/><path class="cls-92" d="M365.61,218.22a26.35,26.35,0,0,1,9.48,8.05l.4.55-.66,0A22.81,22.81,0,0,1,363,224.29a26.21,26.21,0,0,1-9.18-7.87l-.13-.18.22,0a22.61,22.61,0,0,1,11.52,2.45Zm-.22.45a22.45,22.45,0,0,0-11.5-2.2l.09-.2a25.7,25.7,0,0,0,9.21,7.58,22.15,22.15,0,0,0,11.58,2.27l-.27.59a25.54,25.54,0,0,0-9.33-7.59Z"/><path class="cls-93" d="M375.87,215.29a19.81,19.81,0,0,1-.91,11.12,24.46,24.46,0,0,1-5.24-10.93,19.64,19.64,0,0,1,.92-11.12A24.76,24.76,0,0,1,375.87,215.29Z"/><path class="cls-94" d="M376.36,215.2a20.36,20.36,0,0,1-1.05,11.35l-.24.6-.4-.5A25,25,0,0,1,369.56,216a20.09,20.09,0,0,1,1-11.68l.08-.2.14.17a24.74,24.74,0,0,1,5.13,11Zm-.49.09a24.69,24.69,0,0,0-5.33-10.85l.22,0a19.7,19.7,0,0,0-.7,11.47,24.32,24.32,0,0,0,5.19,10.29l-.64.1a19.5,19.5,0,0,0,.77-10.88Z"/><path class="cls-95" d="M354.94,208.48a26,26,0,0,1,10.42,6.43,21.93,21.93,0,0,1-11.64-.64,25.87,25.87,0,0,1-10.42-6.44A22,22,0,0,1,354.94,208.48Z"/><path class="cls-96" d="M355.09,208a26.67,26.67,0,0,1,10.54,6.64l.47.49-.65.14a22.37,22.37,0,0,1-12.08-.86,26.23,26.23,0,0,1-10.16-6.49l-.16-.16.22,0a22.15,22.15,0,0,1,11.67.77Zm-.15.48a22.07,22.07,0,0,0-11.62-.53l.06-.21A25.83,25.83,0,0,0,353.53,214a21.67,21.67,0,0,0,11.75.59l-.18.63A25.69,25.69,0,0,0,354.78,209Z"/><path class="cls-97" d="M364.69,203.59a20.3,20.3,0,0,1,.82,11.21,25,25,0,0,1-6.82-10.14,20.11,20.11,0,0,1-.81-11.21A25.17,25.17,0,0,1,364.69,203.59Z"/><path class="cls-98" d="M365.16,203.42a20.84,20.84,0,0,1,.72,11.47l-.15.64-.48-.44a25.52,25.52,0,0,1-6.63-9.89,20.53,20.53,0,0,1-.87-11.78l.05-.22.17.15a25.24,25.24,0,0,1,6.72,10.24Zm-.47.17a25.11,25.11,0,0,0-6.9-10.05l.22-.07A20.18,20.18,0,0,0,359.09,205a24.82,24.82,0,0,0,6.68,9.5l-.63.2a19.9,19.9,0,0,0-.92-11Z"/><path class="cls-99" d="M237.11,200.46a26.11,26.11,0,0,0-8.27,10.75,29.64,29.64,0,0,0,13.06-5.78,26,26,0,0,0,8.26-10.76A29.51,29.51,0,0,0,237.11,200.46Z"/><path class="cls-100" d="M207.57,311.46A21.24,21.24,0,0,0,210,323a20.2,20.2,0,0,0,4.19-10.89,21.12,21.12,0,0,0-2.4-11.48A20.33,20.33,0,0,0,207.57,311.46Z"/><path class="cls-101" d="M208.07,311.5a20.8,20.8,0,0,0,2.21,11.27l-.62,0A20.06,20.06,0,0,0,213.89,312a21,21,0,0,0-2.26-11.38l.21,0a20.35,20.35,0,0,0-4.27,10.81Zm-.5,0a20.38,20.38,0,0,1,4.07-11l.12-.15.09.17a21.37,21.37,0,0,1,2.54,11.53,20.66,20.66,0,0,1-4.14,11.13l-.35.46-.28-.52a21.7,21.7,0,0,1-2.55-11.7Z"/><path class="cls-102" d="M198.38,319a23.22,23.22,0,0,0,11.4,4.08,22.61,22.61,0,0,0-7.77-9.28,23.2,23.2,0,0,0-11.4-4.07A22.52,22.52,0,0,0,198.38,319Z"/><path class="cls-103" d="M198.67,318.56a22.94,22.94,0,0,0,11.14,4.12l-.37.53a22.3,22.3,0,0,0-7.57-9.23,23.16,23.16,0,0,0-11.27-4.16l.12-.17a22.69,22.69,0,0,0,7.66,9.32Zm-.29.41a22.83,22.83,0,0,1-7.89-9.22l-.09-.19.21,0a23.38,23.38,0,0,1,11.54,4,22.83,22.83,0,0,1,8,9.33l.27.57-.64,0a23.85,23.85,0,0,1-11.65-4.05Z"/><path class="cls-104" d="M214,324.31a21.39,21.39,0,0,0,4.29,10.95A19.33,19.33,0,0,0,220.65,324a21.24,21.24,0,0,0-4.31-10.95A19.48,19.48,0,0,0,214,324.31Z"/><path class="cls-105" d="M214.52,324.27A21,21,0,0,0,218.61,335l-.62,0a19.23,19.23,0,0,0,2.4-11.18,21.08,21.08,0,0,0-4.15-10.78h.21a19.47,19.47,0,0,0-2.43,11.2Zm-.5,0A19.64,19.64,0,0,1,216.23,313l.09-.17.12.15a21.55,21.55,0,0,1,4.45,10.88,19.81,19.81,0,0,1-2.25,11.59l-.27.5-.35-.45a21.85,21.85,0,0,1-4.5-11.13Z"/><path class="cls-106" d="M206.14,333a24.25,24.25,0,0,0,12,2.44,23.49,23.49,0,0,0-9.28-8,24.14,24.14,0,0,0-12-2.43A23.57,23.57,0,0,0,206.14,333Z"/><path class="cls-107" d="M206.36,332.5A23.9,23.9,0,0,0,218.14,335l-.29.58a23.33,23.33,0,0,0-9.07-8,24,24,0,0,0-11.93-2.53l.1-.2a23.64,23.64,0,0,0,9.19,8.1Zm-.22.45a23.75,23.75,0,0,1-9.4-8l-.12-.17.22,0A24.31,24.31,0,0,1,209,327.13a23.94,23.94,0,0,1,9.49,8.05l.36.54-.65,0a24.66,24.66,0,0,1-12.27-2.36Z"/><path class="cls-108" d="M222.59,336a21.9,21.9,0,0,0,6.11,10.16,18.86,18.86,0,0,0,.44-11.38A21.86,21.86,0,0,0,223,324.66,18.94,18.94,0,0,0,222.59,336Z"/><path class="cls-109" d="M223.07,335.91a21.35,21.35,0,0,0,5.89,10l-.61.15a18.76,18.76,0,0,0,.49-11.41,21.77,21.77,0,0,0-5.91-9.92l.2-.05a18.92,18.92,0,0,0-.54,11.34Zm-.48.13a19,19,0,0,1,.31-11.42l.06-.18.14.13a22.17,22.17,0,0,1,6.22,10,19.31,19.31,0,0,1-.27,11.79l-.19.53-.42-.39a22.32,22.32,0,0,1-6.33-10.3Z"/><path class="cls-110" d="M216.2,345.61a24.88,24.88,0,0,0,12.37.74A24.59,24.59,0,0,0,218,339.74a24.86,24.86,0,0,0-12.37-.73A24.73,24.73,0,0,0,216.2,345.61Z"/><path class="cls-111" d="M216.35,345.14a24.67,24.67,0,0,0,12.15.84l-.2.62a24.91,24.91,0,0,0-22.67-7.46l.07-.21a24.76,24.76,0,0,0,10.5,6.68Zm-.15.47a24.79,24.79,0,0,1-10.68-6.51l-.16-.16.22-.05a25.4,25.4,0,0,1,23.27,7.2l.46.49-.67.14a25.48,25.48,0,0,1-12.59-.63Z"/><path class="cls-112" d="M233.08,346.38a22.72,22.72,0,0,0,7.78,9.13,18.56,18.56,0,0,0-1.47-11.24,22.55,22.55,0,0,0-7.8-9.13A18.73,18.73,0,0,0,233.08,346.38Z"/><path class="cls-113" d="M233.54,346.17a22.18,22.18,0,0,0,7.54,9l-.58.23A18.4,18.4,0,0,0,239,344.09a22.61,22.61,0,0,0-7.5-8.85l.18-.08a18.77,18.77,0,0,0,1.37,11.22Zm-.46.21a18.9,18.9,0,0,1-1.61-11.26l0-.18.15.1a22.92,22.92,0,0,1,7.82,8.84,19,19,0,0,1,1.75,11.7l-.1.56-.48-.32a23.11,23.11,0,0,1-8-9.23Z"/><path class="cls-114" d="M228.33,356.66a25.35,25.35,0,0,0,12.43-1,25.8,25.8,0,0,0-11.64-5,25.25,25.25,0,0,0-12.43,1A26.1,26.1,0,0,0,228.33,356.66Z"/><path class="cls-115" d="M228.41,356.16a25,25,0,0,0,12.23-.84l-.11.65a25.77,25.77,0,0,0-23.8-4.21l0-.22a26,26,0,0,0,11.56,5.12Zm-.08.5a26.26,26.26,0,0,1-11.72-4.92l-.18-.14.22-.08A26.29,26.29,0,0,1,241,355.37l.55.42-.66.24a25.92,25.92,0,0,1-12.63,1.12Z"/><path class="cls-116" d="M245.25,355.08a23.73,23.73,0,0,0,9.28,7.89,18.63,18.63,0,0,0-3.35-10.83,23.69,23.69,0,0,0-9.29-7.89A18.74,18.74,0,0,0,245.25,355.08Z"/><path class="cls-117" d="M245.67,354.8a23.2,23.2,0,0,0,9,7.84l-.53.33a18.47,18.47,0,0,0-3.42-11,23.52,23.52,0,0,0-8.9-7.59l.17-.11a18.8,18.8,0,0,0,3.24,10.83Zm-.42.28a18.87,18.87,0,0,1-3.48-10.83v-.19l.17.08a24,24,0,0,1,9.21,7.53A19.11,19.11,0,0,1,254.9,363v.58l-.52-.25a24.16,24.16,0,0,1-9.53-7.95Z"/><path class="cls-118" d="M242.25,365.83a25.42,25.42,0,0,0,12.2-2.68A26.88,26.88,0,0,0,242,359.81a25.34,25.34,0,0,0-12.2,2.7A27.14,27.14,0,0,0,242.25,365.83Z"/><path class="cls-119" d="M242.27,365.33a25.09,25.09,0,0,0,12-2.52v.67a26.56,26.56,0,0,0-12.07-3.41,25.34,25.34,0,0,0-12.31,2.55v-.22a27,27,0,0,0,12.36,3.43Zm0,.5a27.14,27.14,0,0,1-12.48-3.21l-.21-.11.21-.12a25.71,25.71,0,0,1,12.45-2.82,27.16,27.16,0,0,1,12.42,3.25l.62.33-.64.33a26,26,0,0,1-12.38,2.85Z"/><path class="cls-120" d="M258.82,361.94a24.85,24.85,0,0,0,10.55,6.48,18.91,18.91,0,0,0-5.15-10.18,24.78,24.78,0,0,0-10.56-6.46A19,19,0,0,0,258.82,361.94Z"/><path class="cls-121" d="M259.19,361.6a24.4,24.4,0,0,0,10.29,6.46l-.47.41a18.89,18.89,0,0,0-5.29-10.39,24.73,24.73,0,0,0-10.1-6.19l.16-.13a19,19,0,0,0,5,10.18Zm-.37.34a19.23,19.23,0,0,1-5.28-10.15l0-.19.19.06a25,25,0,0,1,10.37,6.08,19.41,19.41,0,0,1,5.67,10.62l.09.58-.57-.17a25.24,25.24,0,0,1-10.8-6.48Z"/><path class="cls-122" d="M257.64,372.91a25.29,25.29,0,0,0,11.69-4.31A27.72,27.72,0,0,0,256.41,367a25.09,25.09,0,0,0-11.69,4.33A28.11,28.11,0,0,0,257.64,372.91Z"/><path class="cls-123" d="M257.58,372.42a25,25,0,0,0,11.53-4.13l.08.66a27.5,27.5,0,0,0-12.49-1.69,25.1,25.1,0,0,0-11.9,4.21l0-.22a28,28,0,0,0,12.87,1.66Zm.06.49a28,28,0,0,1-13-1.42l-.23-.09.2-.14a25.58,25.58,0,0,1,12-4.5,28.21,28.21,0,0,1,12.81,1.48l.67.24-.59.42a25.85,25.85,0,0,1-11.84,4.51Z"/><path class="cls-124" d="M273.47,366.81a26,26,0,0,0,11.58,4.9,19.49,19.49,0,0,0-6.83-9.28,25.88,25.88,0,0,0-11.59-4.89A19.56,19.56,0,0,0,273.47,366.81Z"/><path class="cls-125" d="M273.78,366.42a25.61,25.61,0,0,0,11.33,4.93l-.41.48a19.38,19.38,0,0,0-7-9.5,25.78,25.78,0,0,0-11.06-4.67l.13-.16a19.7,19.7,0,0,0,6.73,9.31Zm-.31.39a19.75,19.75,0,0,1-7-9.23l-.07-.19.2,0A26.3,26.3,0,0,1,278,361.93a20.07,20.07,0,0,1,7.44,9.66l.2.58-.61-.09a26.49,26.49,0,0,1-11.82-4.87Z"/><path class="cls-126" d="M274.14,377.75a24.82,24.82,0,0,0,10.9-5.86,28.72,28.72,0,0,0-13.12.25A24.74,24.74,0,0,0,261,378,28.68,28.68,0,0,0,274.14,377.75Z"/><path class="cls-127" d="M274,377.26a24.48,24.48,0,0,0,10.77-5.64l.18.64a28.3,28.3,0,0,0-12.62.05,24.61,24.61,0,0,0-11.22,5.79l-.07-.22a28.66,28.66,0,0,0,13.09-.13Zm.13.49a28.87,28.87,0,0,1-13.14.39l-.24-.05.18-.17a25,25,0,0,1,11.28-6.11,29,29,0,0,1,12.9-.29l.7.15-.52.5a25.32,25.32,0,0,1-11,6.06Z"/><path class="cls-128" d="M288.86,369.57a27.08,27.08,0,0,0,12.34,3.21,20.37,20.37,0,0,0-8.35-8.17,27,27,0,0,0-12.35-3.2A20.38,20.38,0,0,0,288.86,369.57Z"/><path class="cls-129" d="M289.1,369.13a26.61,26.61,0,0,0,12.11,3.28l-.33.55a20.25,20.25,0,0,0-8.6-8.37,26.92,26.92,0,0,0-11.78-3.06l.1-.18a20.55,20.55,0,0,0,8.26,8.22Zm-.24.44a20.59,20.59,0,0,1-8.47-8.1l-.09-.18h.2a27.41,27.41,0,0,1,12,2.86,20.93,20.93,0,0,1,9,8.46l.3.55h-.64A27.5,27.5,0,0,1,288.62,370Z"/><path class="cls-130" d="M291.36,380.22a24,24,0,0,0,9.86-7.26,28.86,28.86,0,0,0-13,2.06,24,24,0,0,0-9.85,7.26A29,29,0,0,0,291.36,380.22Z"/><path class="cls-131" d="M291.17,379.75a23.63,23.63,0,0,0,9.75-7l.27.61a28.62,28.62,0,0,0-12.46,1.75,24,24,0,0,0-10.27,7.27l-.09-.2a29,29,0,0,0,13-1.94Zm.19.47a29.07,29.07,0,0,1-13,2.19h-.24l.15-.2a24.3,24.3,0,0,1,10.28-7.58,29.12,29.12,0,0,1,12.7-2l.71,0-.43.57a24.64,24.64,0,0,1-10,7.48Z"/><path class="cls-132" d="M203.45,298a21.25,21.25,0,0,0,.45,11.75,21.32,21.32,0,0,0,5.44-22A21.18,21.18,0,0,0,203.45,298Z"/><path class="cls-133" d="M203.93,298.16a21,21,0,0,0,.32,11.51l-.61-.15a21,21,0,0,0,5.58-21.71l.21.05a21.18,21.18,0,0,0-6,10.18Zm-.48-.12a21.34,21.34,0,0,1,5.8-10.36l.14-.14.07.19a21.53,21.53,0,0,1-5.3,22.33l-.43.42-.19-.57a21.92,21.92,0,0,1-.58-12Z"/><path class="cls-134" d="M193.19,304.26a22.18,22.18,0,0,0,10.52,5.61,21.79,21.79,0,0,0-6.1-10.28,22.13,22.13,0,0,0-10.54-5.6A21.8,21.8,0,0,0,193.19,304.26Z"/><path class="cls-135" d="M193.53,303.9a21.92,21.92,0,0,0,10.26,5.61l-.44.46a21.6,21.6,0,0,0-5.9-10.19A22.16,22.16,0,0,0,187,294.11l.15-.16a21.77,21.77,0,0,0,6,10.31Zm-.34.36A21.93,21.93,0,0,1,187,294l0-.2.2,0a22.45,22.45,0,0,1,10.69,5.56,22.13,22.13,0,0,1,6.29,10.36l.16.59-.61-.13a22.82,22.82,0,0,1-10.79-5.61Z"/><path class="cls-136" d="M201.61,284.12a21.92,21.92,0,0,0-1.5,11.76,22.24,22.24,0,0,0,7.5-9.41,21.81,21.81,0,0,0,1.48-11.76A22.2,22.2,0,0,0,201.61,284.12Z"/><path class="cls-137" d="M202.07,284.32a21.47,21.47,0,0,0-1.59,11.5l-.59-.25A21.83,21.83,0,0,0,209,274.72l.2.09a22.17,22.17,0,0,0-7.55,9.31Zm-.46-.2A22.41,22.41,0,0,1,209,274.6l.16-.12,0,.21a22,22,0,0,1-1.41,12,22.45,22.45,0,0,1-7.47,9.53l-.49.36-.1-.61a22.32,22.32,0,0,1,1.41-12Z"/><path class="cls-138" d="M190.5,288.93a21.33,21.33,0,0,0,9.42,7,21.34,21.34,0,0,0-13.74-18.07A21.41,21.41,0,0,0,190.5,288.93Z"/><path class="cls-139" d="M190.9,288.62a20.8,20.8,0,0,0,9.15,7l-.5.39a21.12,21.12,0,0,0-13.41-18l.17-.13a21.42,21.42,0,0,0,4.19,11.07Zm-.4.31a21.51,21.51,0,0,1-4.44-11.05l0-.19.19.06a21.58,21.58,0,0,1,14.06,18.15l.06.59-.56-.2a21.84,21.84,0,0,1-9.69-7.06Z"/><path class="cls-140" d="M202.09,270a22.61,22.61,0,0,0-3.4,11.49,23.11,23.11,0,0,0,8.91-8.35,22.41,22.41,0,0,0,3.39-11.5A23.25,23.25,0,0,0,202.09,270Z"/><path class="cls-141" d="M202.52,270.29a22.28,22.28,0,0,0-3.46,11.24l-.55-.34a22.72,22.72,0,0,0,8.82-8.06,22.48,22.48,0,0,0,3.54-11.46l.18.11a23.3,23.3,0,0,0-9,8.25Zm-.43-.26a23.3,23.3,0,0,1,8.85-8.47l.18-.1v.21a22.69,22.69,0,0,1-3.37,11.73,23.36,23.36,0,0,1-8.89,8.45l-.55.3v-.63a23,23,0,0,1,3.36-11.75Z"/><path class="cls-142" d="M190.39,273.3a20.25,20.25,0,0,0,8.1,8.25A21.18,21.18,0,0,0,196.08,270a20.19,20.19,0,0,0-8.11-8.24A21.17,21.17,0,0,0,190.39,273.3Z"/><path class="cls-143" d="M190.83,273.07a19.91,19.91,0,0,0,7.84,8.15l-.56.3a20.76,20.76,0,0,0-2.19-11.32,20.07,20.07,0,0,0-8-8.37l.19-.1a21.14,21.14,0,0,0,2.29,11.57Zm-.44.23a21.3,21.3,0,0,1-2.55-11.59l0-.2.17.1a20.51,20.51,0,0,1,8.34,8.35,21.49,21.49,0,0,1,2.49,11.62l0,.58-.52-.28a20.84,20.84,0,0,1-8.36-8.34Z"/><path class="cls-144" d="M204.89,256.07a23.69,23.69,0,0,0-5.24,11,24.06,24.06,0,0,0,10.14-7.1A23.49,23.49,0,0,0,215,249,24.11,24.11,0,0,0,204.89,256.07Z"/><path class="cls-145" d="M205.27,256.39A23.37,23.37,0,0,0,200,267.11l-.5-.42a23.8,23.8,0,0,0,10-6.83,23.42,23.42,0,0,0,5.36-10.93l.17.14a24.22,24.22,0,0,0-10.17,7Zm-.38-.32A24.28,24.28,0,0,1,215,248.84l.21-.08,0,.22a23.83,23.83,0,0,1-5.23,11.2,24.35,24.35,0,0,1-10.13,7.22l-.61.22.11-.64a24.16,24.16,0,0,1,5.23-11.24Z"/><path class="cls-146" d="M192.85,257.74a19.61,19.61,0,0,0,6.6,9.31,21.35,21.35,0,0,0-.45-11.87,19.48,19.48,0,0,0-6.62-9.3A21.41,21.41,0,0,0,192.85,257.74Z"/><path class="cls-147" d="M193.33,257.58a19.18,19.18,0,0,0,6.35,9.17l-.59.21a21,21,0,0,0-.27-11.48,19.33,19.33,0,0,0-6.51-9.5l.2-.07a21.44,21.44,0,0,0,.34,11.83Zm-.48.16a21.56,21.56,0,0,1-.59-11.89l0-.19.16.12a19.67,19.67,0,0,1,6.84,9.54,21.59,21.59,0,0,1,.52,11.82l-.13.56-.47-.36a20,20,0,0,1-6.84-9.44Z"/><path class="cls-148" d="M209.94,242.55A24.67,24.67,0,0,0,203,252.77a25.12,25.12,0,0,0,18.07-15.92A24.78,24.78,0,0,0,209.94,242.55Z"/><path class="cls-149" d="M210.27,242.93a24.38,24.38,0,0,0-6.93,10l-.43-.49a24.85,24.85,0,0,0,18-15.59l.14.16a24.91,24.91,0,0,0-11.14,5.58Zm-.33-.38A24.9,24.9,0,0,1,221,236.73l.22,0-.07.21a25.33,25.33,0,0,1-18.11,16.24l-.66.15.22-.64a25.31,25.31,0,0,1,7-10.46Z"/><path class="cls-150" d="M197.84,242.59a19,19,0,0,0,4.95,10.15,21.74,21.74,0,0,0,1.5-11.86,18.91,18.91,0,0,0-5-10.16A21.87,21.87,0,0,0,197.84,242.59Z"/><path class="cls-151" d="M198.33,242.51a18.67,18.67,0,0,0,4.73,10l-.62.12a21.53,21.53,0,0,0,1.65-11.37,18.91,18.91,0,0,0-4.85-10.42l.21,0a21.86,21.86,0,0,0-1.61,11.82Zm-.49.08a21.92,21.92,0,0,1,1.37-11.92l.08-.18.13.14a19.24,19.24,0,0,1,5.17,10.53,22.13,22.13,0,0,1-1.45,11.73l-.22.53-.41-.42a19.47,19.47,0,0,1-5.16-10.34Z"/><path class="cls-152" d="M217.13,229.79a25.86,25.86,0,0,0-8.52,9.22,25.17,25.17,0,0,0,11.87-4.16,25.68,25.68,0,0,0,8.51-9.23A25.4,25.4,0,0,0,217.13,229.79Z"/><path class="cls-153" d="M217.4,230.21a25.55,25.55,0,0,0-8.46,9l-.36-.55a25.69,25.69,0,0,0,20.3-13.08l.12.19a25.28,25.28,0,0,0-11.87,4Zm-.27-.42A25.33,25.33,0,0,1,229,225.5l.23,0-.11.2a26.18,26.18,0,0,1-20.46,13.7l-.68.07.32-.62a26.47,26.47,0,0,1,8.57-9.46Z"/><path class="cls-154" d="M205.23,228.18A18.72,18.72,0,0,0,208.42,239a22.6,22.6,0,0,0,3.44-11.6,18.66,18.66,0,0,0-3.21-10.78A22.58,22.58,0,0,0,205.23,228.18Z"/><path class="cls-155" d="M205.73,228.19a18.35,18.35,0,0,0,3,10.56h-.64a22.24,22.24,0,0,0,3.49-11,18.59,18.59,0,0,0-3-11.12h.21a22.53,22.53,0,0,0-3.53,11.53Zm-.5,0a22.66,22.66,0,0,1,3.31-11.67l.1-.17.12.17a19,19,0,0,1,3.34,11.27,23,23,0,0,1-3.35,11.38l-.3.5-.34-.49a19.22,19.22,0,0,1-3.38-11Z"/><path class="cls-156" d="M226.29,218.07a26.78,26.78,0,0,0-9.88,8,25.49,25.49,0,0,0,12.34-2.53,26.84,26.84,0,0,0,9.88-8A25.51,25.51,0,0,0,226.29,218.07Z"/><path class="cls-157" d="M226.51,218.52a26.49,26.49,0,0,0-9.8,7.79l-.28-.6a25.2,25.2,0,0,0,12.27-2.4,26.67,26.67,0,0,0,9.83-7.86l.1.2a25.44,25.44,0,0,0-12.34,2.42Zm-.22-.45a25.61,25.61,0,0,1,12.35-2.67h.23l-.14.19a27,27,0,0,1-9.82,8.15,25.68,25.68,0,0,1-12.52,2.71l-.7,0,.42-.57a27.52,27.52,0,0,1,10-8.25Z"/><path class="cls-158" d="M214.87,214.85A18.73,18.73,0,0,0,216.23,226a23.55,23.55,0,0,0,5.28-11.08,18.58,18.58,0,0,0-1.37-11.16A23.53,23.53,0,0,0,214.87,214.85Z"/><path class="cls-159" d="M215.36,214.94a18.4,18.4,0,0,0,1.21,10.91l-.63-.09a23.34,23.34,0,0,0,5.23-10.39A18.6,18.6,0,0,0,220,203.83l.22,0a23.58,23.58,0,0,0-5.37,11Zm-.49-.09A23.64,23.64,0,0,1,220,203.69l.13-.16.09.19a19.06,19.06,0,0,1,1.41,11.75,24,24,0,0,1-5.15,10.78l-.38.46-.26-.54a19.27,19.27,0,0,1-1.5-11.4Z"/><path class="cls-160" d="M237.23,207.64a27.89,27.89,0,0,0-11,6.64,25.18,25.18,0,0,0,12.55-.84,27.84,27.84,0,0,0,11-6.66A25.28,25.28,0,0,0,237.23,207.64Z"/><path class="cls-161" d="M237.38,208.12a27.38,27.38,0,0,0-10.93,6.43l-.18-.64a24.93,24.93,0,0,0,12.53-.76,27.59,27.59,0,0,0,10.88-6.45l.07.21a25.33,25.33,0,0,0-12.52.73Zm-.15-.48a25.5,25.5,0,0,1,12.56-1l.23,0-.16.17A28.13,28.13,0,0,1,239,213.63a25.63,25.63,0,0,1-12.83,1l-.69-.13.5-.51a28.45,28.45,0,0,1,11.14-6.85Z"/><path class="cls-162" d="M226.53,202.89a19,19,0,0,0-.5,11.29,24.66,24.66,0,0,0,7-10.31,18.94,18.94,0,0,0,.49-11.29A24.73,24.73,0,0,0,226.53,202.89Z"/><path class="cls-163" d="M227,203.06a18.6,18.6,0,0,0-.61,11l-.62-.19a24.39,24.39,0,0,0,6.83-9.58,19,19,0,0,0,.8-11.69l.21.06a24.73,24.73,0,0,0-7.09,10.21Zm-.48-.17a24.88,24.88,0,0,1,6.92-10.41l.15-.14.06.21a19.22,19.22,0,0,1-.57,11.94,25.08,25.08,0,0,1-6.81,10l-.45.41-.17-.59a19.62,19.62,0,0,1,.4-11.55Z"/><path class="cls-164" d="M305.11,202c.73.14,1.33-3,3.64-6a15.46,15.46,0,0,1,4.77-4.1,21.45,21.45,0,0,0,4.77-12.3A22.08,22.08,0,0,0,314.64,166a20,20,0,0,1-1.4,7.89,17.86,17.86,0,0,1-3.93,6,30.24,30.24,0,0,0,2-17.66,27.88,27.88,0,0,0-7.3-14.19,25.23,25.23,0,0,1,.57,12.3A23.34,23.34,0,0,1,298.38,172a32.12,32.12,0,0,0,3.36-15.14,31.72,31.72,0,0,0-4.21-15.14,49.83,49.83,0,0,1-5.32,15.14,45.13,45.13,0,0,1-8.14,10.72,22.23,22.23,0,0,0-5.6,12.93,23.66,23.66,0,0,0,6.45,18c-1-3.44-2.43-10.41.28-17.34,2.06-5.29,5.86-8.78,6.17-8.51s-3.65,4.57-4.77,10.72c-1.21,6.65,1.39,12.93,3.92,17.34-.82-5.18-1-6.45-.56-7.88a7.65,7.65,0,0,1,3.09-4.1c-1.38,2.71-.88,5.56.56,6.62a2.63,2.63,0,0,0,3.08,0c1.48-1.14,1.8-4.49,0-7.88l3.37-3.47c-.52,3.65.58,6.39,1.68,6.62s2.94-1.86,3.65-5.36a13.32,13.32,0,0,1,.84,4.1,13.74,13.74,0,0,1-2,7.57C304.32,201,304.72,201.92,305.11,202Z"/><path class="cls-165" d="M278.76,205.23h35.58l-1.72,5.89h-2.3l-.57,8h-26.4c-.19-2.65-.39-5.3-.58-8h-1.72c-.76-2-1.53-3.92-2.29-5.89"/><path class="cls-166" d="M245.84,277.86c7.61-1.24,21.77-2.3,36.67,4.59a59.54,59.54,0,0,1,10.73,6.43h6.56a62.63,62.63,0,0,1,48-11c-.17-4.89-1.33-21.63-14-36.11a54.87,54.87,0,0,0-25-16.22,60.92,60.92,0,0,0-12.82-1.23,62.1,62.1,0,0,0-11.63,1.23,52.86,52.86,0,0,0-24.15,15c-13.56,14.84-14.27,32.77-14.31,37.34"/><path class="cls-167" d="M237.78,280.92A71,71,0,0,1,295,293.17a68.27,68.27,0,0,0-16.4-3.68,70.13,70.13,0,0,0-32.2,4.6,31.66,31.66,0,0,1-15.5,2.44,31,31,0,0,1-8.65-2.14Z"/><path class="cls-167" d="M356.16,280.92a71,71,0,0,0-57.25,12.25,68.27,68.27,0,0,1,16.4-3.68,70.13,70.13,0,0,1,32.2,4.6,31.69,31.69,0,0,0,15.5,2.44,31,31,0,0,0,8.65-2.14Z"/><path class="cls-167" d="M218.4,295a25.64,25.64,0,0,0,12.53,4.9c4.11.38,6.94.19,13.71-2.45a77.09,77.09,0,0,1,40.55-4.28,23.79,23.79,0,0,1,6.86,2.14,24.06,24.06,0,0,1,4.77,3.06,29.3,29.3,0,0,1,8.95-5.2c6-2.17,11.27-1.7,21.46,0,6.92,1.14,15.27,2.72,24.75,4.89a20.5,20.5,0,0,0,21.77-2.75,14,14,0,0,1,2.38,6.73,14.5,14.5,0,0,1-3,9.8,103.44,103.44,0,0,1-39.65-4.29,66.08,66.08,0,0,0-26.84-.3,6.08,6.08,0,0,1-1.19,3.67,5.7,5.7,0,0,1-1.79,1.53h-14a3.74,3.74,0,0,1-2.06-1.84,4,4,0,0,1,0-3.36c-4.37-.41-9.16-.65-14.31-.62-4.36,0-8.45.26-12.23.62-2.54.76-5.23,1.49-8.05,2.14a122.08,122.08,0,0,1-17.29,2.75,115.87,115.87,0,0,1-14.31.31A6.61,6.61,0,0,1,219,310a6.87,6.87,0,0,1-.89-3.06Q218.24,301,218.4,295Z"/><path class="cls-168" d="M218.7,305.41a32.71,32.71,0,0,0,24.15-1.53,83.41,83.41,0,0,1,28-4.9c5.69,0,15,1.06,26.24,7a48.13,48.13,0,0,1,10.44-4.59c10.1-3.07,18.55-1.87,28.92-.31A133.19,133.19,0,0,1,360,306.94a24,24,0,0,0,16.1-2.14"/><path class="cls-169" d="M222.28,294.39A78.83,78.83,0,0,1,295,293.17"/><path class="cls-170" d="M298.91,293.17a71.21,71.21,0,0,1,72.75,1.22"/><path class="cls-167" d="M283.11,218.18h26.53l-9.84,70.7h-6.56q-5.07-35.34-10.13-70.7"/><text class="cls-171" transform="matrix(0.06, -0.99, 1, 0.07, 102.15, 254.93)">S</text><text class="cls-171" transform="matrix(0.17, -0.97, 0.98, 0.18, 103.24, 235.3)">H</text><text class="cls-171" transform="matrix(0.26, -0.95, 0.96, 0.27, 108.08, 209.91)">I</text><text class="cls-171" transform="matrix(0.35, -0.92, 0.94, 0.35, 110.83, 198.62)">V</text><text class="cls-171" transform="matrix(0.44, -0.88, 0.89, 0.45, 118.01, 178.79)">A</text><text class="cls-171" transform="matrix(0.54, -0.83, 0.84, 0.55, 129.58, 155.85)">L</text><text class="cls-171" transform="matrix(0.61, -0.78, 0.79, 0.62, 141.69, 137.71)">I</text><text class="cls-171" transform="matrix(0.68, -0.72, 0.73, 0.69, 148.55, 128.32)">K</text><text class="cls-171" transform="matrix(0.74, -0.66, 0.67, 0.75, 166.5, 109.71)"> </text><text class="cls-171" transform="matrix(0.77, -0.62, 0.63, 0.78, 173.05, 103.78)">I</text><text class="cls-171" transform="matrix(0.82, -0.54, 0.55, 0.83, 181.85, 96.21)">N</text><text class="cls-171" transform="matrix(0.88, -0.44, 0.45, 0.9, 203.29, 82.13)">T</text><text class="cls-171" transform="matrix(0.93, -0.33, 0.34, 0.94, 222.64, 72.48)">E</text><text class="cls-171" transform="matrix(0.96, -0.22, 0.22, 0.98, 242.91, 65.06)">R</text><text class="cls-171" transform="matrix(0.98, -0.08, 0.09, 1, 265.92, 59.74)">N</text><text class="cls-171" transform="matrix(0.99, 0.06, -0.05, 1, 291.39, 57.48)">A</text><text class="cls-171" transform="matrix(0.98, 0.16, -0.16, 0.99, 313.07, 58.55)">T</text><text class="cls-171" transform="matrix(0.96, 0.25, -0.25, 0.97, 334.53, 62.31)">I</text><text class="cls-171" transform="matrix(0.93, 0.34, -0.34, 0.94, 345.86, 64.86)">O</text><text class="cls-171" transform="matrix(0.87, 0.46, -0.47, 0.88, 369.92, 73.7)">N</text><text class="cls-171" transform="matrix(0.81, 0.57, -0.58, 0.82, 392.65, 85.66)">A</text><text class="cls-171" transform="matrix(0.74, 0.66, -0.67, 0.74, 413.63, 100.58)">L</text><text class="cls-171" transform="matrix(0.69, 0.71, -0.72, 0.7, 428.81, 114.44)"> </text><text class="cls-171" transform="matrix(0.64, 0.76, -0.76, 0.64, 435.06, 120.57)">S</text><text class="cls-171" transform="matrix(0.56, 0.82, -0.83, 0.56, 447.89, 135.54)">C</text><text class="cls-171" transform="matrix(0.45, 0.88, -0.89, 0.46, 461.27, 155.1)">H</text><text class="cls-171" transform="matrix(0.34, 0.93, -0.94, 0.34, 473.08, 177.92)">O</text><text class="cls-171" transform="matrix(0.22, 0.96, -0.98, 0.22, 481.93, 202.04)">O</text><text class="cls-171" transform="matrix(0.11, 0.98, -0.99, 0.11, 487.55, 227.12)">L</text><path class="cls-172" d="M113.26,478.53a102.17,102.17,0,0,1-2.71-51,1386.27,1386.27,0,0,0,178.74,10.73,1387.42,1387.42,0,0,0,198.6-15.2,89.65,89.65,0,0,1,.91,47.39c-57.62,6.46-120.74,11.1-188.68,12.52C233,484.4,170.5,482.47,113.26,478.53Z"/><polygon class="cls-173" points="85.15 270.09 92.64 278.94 104.41 277.78 98.03 287.64 102.61 298.26 91.18 295.51 82.23 303.23 81.55 291.66 71.44 285.82 82.45 281.42 85.15 270.09"/><polygon class="cls-173" points="95.63 320.49 104.7 329.5 117.64 327.13 111.44 338.55 117.45 349.77 104.54 347.82 95.31 357.13 93.53 344.51 81.83 339.04 93.63 333.18 95.63 320.49"/><polygon class="cls-173" points="113.48 368.95 123.35 377.28 135.73 373.81 130.94 385.84 138.06 396.65 125.23 395.76 117.25 405.91 114.11 393.32 102.06 388.78 112.94 381.9 113.48 368.95"/><polygon class="cls-173" points="508.93 266.29 501.44 275.14 489.67 273.98 496.04 283.85 491.47 294.47 502.9 291.71 511.84 299.43 512.53 287.87 522.63 282.02 511.63 277.63 508.93 266.29"/><polygon class="cls-173" points="498.45 316.7 489.37 325.71 476.43 323.33 482.63 334.75 476.63 345.98 489.53 344.03 498.77 353.34 500.54 340.71 512.25 335.24 500.44 329.39 498.45 316.7"/><polygon class="cls-173" points="480.6 365.15 470.73 373.48 458.35 370.01 463.13 382.04 456.02 392.86 468.84 391.96 476.83 402.11 479.97 389.53 492.01 384.99 481.13 378.11 480.6 365.15"/><text class="cls-174" transform="translate(117.34 467.83) scale(0.81 1)">EXCELLENCE IS OUR MOTTO</text></g></g></svg>