<svg xmlns="http://www.w3.org/2000/svg" xmlns:xlink="http://www.w3.org/1999/xlink" viewBox="0 0 750 625"><defs><style>.cls-1{fill:#4d4018;}.cls-2{fill:#00c6f4;stroke:#00c6f4;}.cls-13,.cls-2,.cls-20,.cls-21,.cls-22,.cls-23,.cls-24,.cls-25,.cls-26,.cls-3,.cls-30,.cls-32,.cls-33,.cls-34,.cls-35,.cls-36,.cls-7,.cls-8{stroke-miterlimit:10;}.cls-3{fill:#fa0;stroke:#fa0;}.cls-4{fill:#e18c39;}.cls-5{fill:#e68a22;}.cls-6,.cls-7,.cls-8{fill:#fff;}.cls-7{stroke:#fff;}.cls-13,.cls-20,.cls-21,.cls-22,.cls-23,.cls-24,.cls-25,.cls-26,.cls-32,.cls-33,.cls-34,.cls-36,.cls-7,.cls-8{stroke-width:0.5px;}.cls-13,.cls-26,.cls-8{stroke:#000;}.cls-9{fill:#cbccce;}.cls-10,.cls-35,.cls-36{fill:#b2b7b5;}.cls-11{fill:#a65d31;}.cls-12{fill:#f1c336;}.cls-13{fill:none;}.cls-14{fill:#f2c133;}.cls-15{fill:#e9cc25;}.cls-16{fill:#e88327;}.cls-17{fill:#f1c429;}.cls-18{fill:#f2c62b;}.cls-19{fill:#e38325;}.cls-20{fill:url(#linear-gradient);stroke:url(#linear-gradient-2);}.cls-21{fill:url(#linear-gradient-3);stroke:url(#linear-gradient-4);}.cls-22,.cls-26{fill:#331f00;}.cls-22{stroke:#331f00;}.cls-23{fill:url(#linear-gradient-5);stroke:url(#linear-gradient-6);}.cls-24{fill:url(#linear-gradient-7);stroke:url(#linear-gradient-8);}.cls-25{fill:url(#linear-gradient-9);stroke:url(#linear-gradient-10);}.cls-27{fill:#f2d018;}.cls-28{fill:#fdf402;}.cls-29{fill:#fef202;}.cls-30{fill:#fef100;stroke:#fff002;}.cls-31{fill:#f1c529;}.cls-32{fill:url(#linear-gradient-11);stroke:url(#linear-gradient-12);}.cls-33{fill:url(#linear-gradient-13);stroke:url(#linear-gradient-14);}.cls-34{fill:url(#linear-gradient-15);stroke:url(#linear-gradient-16);}.cls-35,.cls-36{stroke:#b2b7b5;}</style><linearGradient id="linear-gradient" x1="269.19" y1="131.95" x2="291.49" y2="131.95" gradientUnits="userSpaceOnUse"><stop offset="0" stop-color="#fff"/><stop offset="0.45" stop-color="#eaeaea"/><stop offset="1" stop-color="#ccc"/></linearGradient><linearGradient id="linear-gradient-2" x1="268.94" y1="131.9" x2="291.75" y2="131.9" gradientUnits="userSpaceOnUse"><stop offset="0" stop-color="#fff"/><stop offset="1" stop-color="#ccc"/></linearGradient><linearGradient id="linear-gradient-3" x1="194.22" y1="129.69" x2="207.67" y2="129.69" xlink:href="#linear-gradient"/><linearGradient id="linear-gradient-4" x1="193.97" y1="129.67" x2="207.92" y2="129.67" xlink:href="#linear-gradient"/><linearGradient id="linear-gradient-5" x1="100.53" y1="450.44" x2="130.06" y2="450.44" xlink:href="#linear-gradient-2"/><linearGradient id="linear-gradient-6" x1="100.28" y1="450.85" x2="130.31" y2="450.85" xlink:href="#linear-gradient-2"/><linearGradient id="linear-gradient-7" x1="172.88" y1="448.86" x2="209.25" y2="448.86" xlink:href="#linear-gradient-2"/><linearGradient id="linear-gradient-8" x1="172.63" y1="448.97" x2="209.51" y2="448.97" xlink:href="#linear-gradient-2"/><linearGradient id="linear-gradient-9" x1="240.19" y1="450.41" x2="276.76" y2="450.41" xlink:href="#linear-gradient-2"/><linearGradient id="linear-gradient-10" x1="239.94" y1="450.51" x2="277.01" y2="450.51" xlink:href="#linear-gradient-2"/><linearGradient id="linear-gradient-11" x1="399.35" y1="447.86" x2="428.46" y2="447.86" xlink:href="#linear-gradient-2"/><linearGradient id="linear-gradient-12" x1="399.1" y1="448.26" x2="428.71" y2="448.26" xlink:href="#linear-gradient-2"/><linearGradient id="linear-gradient-13" x1="471.61" y1="441.49" x2="507.46" y2="441.49" xlink:href="#linear-gradient-2"/><linearGradient id="linear-gradient-14" x1="471.36" y1="441.6" x2="507.72" y2="441.6" xlink:href="#linear-gradient-2"/><linearGradient id="linear-gradient-15" x1="537.95" y1="443.04" x2="573.98" y2="443.04" xlink:href="#linear-gradient-2"/><linearGradient id="linear-gradient-16" x1="537.7" y1="443.14" x2="574.24" y2="443.14" xlink:href="#linear-gradient-2"/></defs><g id="Layer_2" data-name="Layer 2"><g id="Layer_1-2" data-name="Layer 1"><path class="cls-1" d="M86.5,420.83c6-7.69-1.69-16.19,4.35-35.38,3.53-11.23,11.45-21.15,20.28-26.53,16.38-10,39.78-6.7,59.39,7.37a50.29,50.29,0,0,1,68.09,0c.95-.63,19.67-12.63,39.12-3,15.08,7.51,19.58,22.56,20.28,25.06,2.29-2.73,38.51-47.22,21.73-89.92a66.76,66.76,0,0,0-15.94-23.59c-1.3,4.31-5.9,17.48-18.83,25.06a37.87,37.87,0,0,1-11.59,4.42l8.69,4.43a56.22,56.22,0,0,1-37.66,5.89c-22.56-4.54-34.1-21.77-36.22-25.06a41,41,0,0,1-5.8-29.48h-13a51.33,51.33,0,0,1-11.59-10.32c-9.44-11.42-11.33-24-13-35.38-1.42-9.41-2.64-17.57,0-28a56.15,56.15,0,0,1,10.14-20.64,51.12,51.12,0,0,1,0-41.27c-2.7-5.91-7.5-18.93-2.9-32.43C175,83.3,180.68,78,189.36,70A122.53,122.53,0,0,1,214,52.29c-.14-5.23.37-14.56,5.8-23.58C226.26,17.94,235.92,14,250.2,8.07,265.14,1.91,277.06-3,289.32,2.17a33,33,0,0,1,13,10.32l57.95-5.9a137,137,0,0,1,75.33,36.86l37.67-3a20.26,20.26,0,0,1,10.14,7.37c6.8,9.61,1.72,21.5,1.45,22.11a114.15,114.15,0,0,1,31.87,29.49A115.42,115.42,0,0,1,531.25,126a276,276,0,0,0,29,53.07,273.38,273.38,0,0,0,43.46,48.65,101.24,101.24,0,0,1,42,14.74c36.08,22.72,45.76,61.5,47.81,70.76a268.32,268.32,0,0,1,15.94,107.61l26.07-3.68q-2.18,12.53-4.34,25.06-2.89,47.91-5.8,95.82L750,613.21l-152.11-28L345.82,610.26,89.4,579.3,2.48,625,3.92,476.11c-8.07-34.42-2.2-47.45,4.35-53.07C27.72,406.36,73.71,437.26,86.5,420.83Z"/><path class="cls-2" d="M140.45,445.1c-9,1.84-10.24,3.31-13.7,18.37-4.23,18.36-14.47,65-21.52,97.89h-4.35c-6.66-28.65-15.24-64.1-21.9-91.28-7.43,31.59-15,63-21.64,91.28H53.11c-6.4-31.59-13.7-65.94-20.62-98.08-3.33-14.87-4.74-16.89-13.06-18.18V440H51.06v5.14c-9.48,1.47-9.73,3.49-7.94,12.67,5,24.8,10.12,49.22,15.37,75.12,7-29.2,14.73-61.16,21.26-91.28h4.1c7.17,31.22,14.34,60.24,21.77,91.46C111,508.65,118.3,476,121.11,460c1.93-10.65.9-13-10-14.88V440h29.32Z"/><path class="cls-2" d="M212.68,530.13c-.76,4.78-4.22,23.7-5.5,29.2H144.94v-5.14c11.91-1.28,12.8-2.94,12.8-18V463.65c0-16.34-1.41-17.26-11-18.55V440h39.19c12,0,17-.18,18.57-.37.13,4.59.64,18.37,1.15,28.1l-3.84.92a79.21,79.21,0,0,0-3.84-14c-2.05-6.06-5-7.34-12.68-7.34H173.11c-4,0-4.23.55-4.23,5.87v40.59H183.1c9.61,0,10.25-2.75,11.78-15.24h4v37.83h-4c-1.66-13.22-2.69-15.06-11.91-15.06H168.88v36.55c0,12.85,2.82,13.95,9.23,14.14H190c7.81,0,9.09-1.65,11.91-6.43,2.43-3.86,5.12-11.39,6.91-16.89Z"/><path class="cls-2" d="M265.45,494.69c12.29,2.94,22.28,11.39,22.28,29.2,0,12.49-4.87,22.41-12.42,28.28-6.66,5.33-13.19,7.16-22.16,7.16h-31.5v-5.14c10.88-1.47,11.52-3.12,11.52-17.63V462.92c0-15.25-1.15-16.53-11.52-17.82V440H255.2c9.61,0,15.63,2.39,19.72,6.43,4.49,4.4,7.56,11.2,7.56,20.57C282.48,484.22,272.62,492.12,265.45,494.69Zm-14.73-2.21c14.09,0,19.85-8.08,19.85-23.14,0-12.85-5.51-22.77-17.8-22.77-3.59,0-5.89.55-7.17,1.84-1,1.1-1.41,3.12-1.41,9v35.07Zm-6.53,43.71c0,13.23,2.18,16.53,11.27,16.53,10,0,19.72-7.71,19.72-27,0-18.74-9.22-26.82-24.84-26.82h-6.15Z"/><path class="cls-3" d="M387.37,445.1c-10.63,1.47-11.66,2.39-11.66,17.82v73.64c0,15.43,1.16,16,11.66,17.63v5.14H353.05v-5.14c10.63-1.83,11.65-2.2,11.65-17.63V499.83H320.9v36.73c0,15.24,1,15.8,11.53,17.63v5.14h-34.2v-5.14c10.38-1.65,11.53-2.2,11.53-17.63V462.92c0-15.43-1.15-16.35-11.53-17.82V440h34.2v5.14c-10.25,1.29-11.53,2.57-11.53,17.82v29.2h43.8v-29.2c0-15.25-1.41-16.53-11.65-17.82V440h34.32Z"/><path class="cls-3" d="M442.82,437.39c21.9,0,41.49,24.06,41.49,60.6,0,39.49-18.69,64.1-42.26,64.1-24.59,0-42.52-26.81-42.52-61.34C399.53,467.88,415.8,437.39,442.82,437.39Zm-2.56,6.79c-14.34,0-27.41,17.27-27.41,51.61,0,34.16,13.07,59.32,31.25,59.32,15.5,0,27.15-16.53,27.15-52C471.25,464.57,457,444.18,440.26,444.18Z"/><path class="cls-3" d="M541.3,467.88c-2.17-12.13-5.76-24.06-17.8-24.06-10,0-13.44,10.46-13.44,20,0,12.68,5.63,19.1,16.26,27,15.37,11.39,22,19.84,22,37.28,0,19.29-11.66,34-28.18,34-7.68,0-14.34-3.12-19.59-6.06-1-5.14-2.56-17.63-3.46-27.55l4-1.47c2.56,12.31,8.2,28.28,21.52,28.28,9.22,0,14.85-9.18,14.85-21.12,0-14.14-5.25-19.83-16.52-28.65-13.44-10.46-21-19.28-21-36.36,0-16.34,9.48-31.77,26.38-31.77,7.17,0,14.22,2.75,16.91,3.49.51,6.61,1,13.95,2,25.89Z"/><path class="cls-3" d="M605,559.33v-5.14c7.94-1.28,8.71-3.12,6.41-9.18-3-7.16-8.58-20.94-16.52-38.93-6,13.4-11.66,26.07-15.88,36.91-3,7.71-1.92,9.73,6.66,11.2v5.14H555.78v-5.14c7.68-1.1,11.27-3.85,15-10.65,4.74-8.81,9.86-19.47,21-44.08C585.1,484,579.34,471,575.11,461.26c-5.5-12.3-7.17-14.69-16.52-16.16V440h31.89v5.14c-7.94,1.1-8.19,3.12-6.15,8.08,4.1,10.29,8.84,20.94,14.48,33.43,5-11,9.6-21.49,12.93-29.94,3.07-7.9,2.18-10.1-6.27-11.57V440h29.2v5.14c-9.61,1.84-11.92,3.31-17.42,14.51-4.23,8.63-6.79,14-15.63,33.06,6.92,15.61,13.45,30.85,19.47,44.26,6.15,14,8.71,16,17.93,17.26v5.14Z"/><path class="cls-3" d="M713,468.79c-1.15-5.87-2.69-11.93-4.1-15.24-2.05-5-3.33-6.24-10.37-6.24H685.76v89.44c0,14.32,1,16.34,13.19,17.44v5.14H661.69v-5.14c11.91-1.1,12.93-2.94,12.93-17.44V447.31H663c-7.05,0-9.1,1.1-11.27,6.61-1.54,3.67-2.56,8.08-4.23,14.87h-3.84c.77-11.2,1.54-22.77,1.92-33.05h3c1.92,4.4,3.33,4.22,6.91,4.22h50.72c3.58,0,4.61-.74,6.53-4.22h3.07c0,8.63.51,21.85,1.15,32.5Z"/><path class="cls-4" d="M182.84,96.52a32.92,32.92,0,0,1,5.79-8.85,32.21,32.21,0,0,1,7.25-5.89,55.37,55.37,0,0,0,4.34,19.16,4.82,4.82,0,0,1,4.35-4.42c2.43,0,4.85,2.64,4.34,5.89a119.79,119.79,0,0,1,18.84-26.53,117.85,117.85,0,0,1,18.83-16.22A104.29,104.29,0,0,0,224.85,86.2a106.19,106.19,0,0,0-13,38.33"/><path class="cls-5" d="M285.69,15.44a6.79,6.79,0,0,1,1.45,3,6.94,6.94,0,0,1,0,2.95A180.17,180.17,0,0,0,261.79,28C240.57,35.2,227.07,44.7,226.3,43.45c-.61-1,7.14-7.55,15.21-12.53s15-7.43,23.18-10.32A193.6,193.6,0,0,1,285,14.7"/><path class="cls-6" d="M179.94,108.31a41.59,41.59,0,0,1,31.87,16.22,20.78,20.78,0,0,0,0-10.32c-1.18-4.45-4.17-9.28-5.79-8.85-.79.21-1.54,1.74-1.45,7.37L188.63,96.52a7.24,7.24,0,0,0-5.79,0C179.64,98.17,178,103.18,179.94,108.31Z"/><path class="cls-6" d="M188.63,213c.23-.41-2.22-1.6-2.9-4.43a6.94,6.94,0,0,1,0-3,28.72,28.72,0,0,0,18.84-2.94,26.72,26.72,0,0,0,5.79-4.43,90.15,90.15,0,0,1-33.32,0c-.12,1.5-.35,6.39,2.9,10.32S188.32,213.52,188.63,213Z"/><path class="cls-7" d="M177,215.92a43.13,43.13,0,0,0,4.35,20.64,41.94,41.94,0,0,0,8.69,11.8,9.46,9.46,0,0,0,4.35-1.48,9.57,9.57,0,0,0,2.89-2.95c.06-1.39.07-2.87,0-4.42a54,54,0,0,0-1.44-10.32L177,215.92"/><path class="cls-7" d="M213.26,217.4a31,31,0,0,1,15.94,1.47,30,30,0,0,1,5.79,2.95,19.52,19.52,0,0,0,8.69,0,20.09,20.09,0,0,0,10.14-5.9,21.23,21.23,0,0,1,7.25,5.9,21.64,21.64,0,0,1,4.34,10.32,28.37,28.37,0,0,1-7.24,8.84c-9.37,7.55-20.54,6.27-23.18,5.9a51.51,51.51,0,0,0-26.08-5.9,24.24,24.24,0,0,1-2.89-8.84,23.58,23.58,0,0,1,0-5.9,29,29,0,0,1,7.24-8.84Z"/><path class="cls-8" d="M214.71,269a22.3,22.3,0,0,1-1.45-10.32,21.43,21.43,0,0,1,1.45-5.89,10.9,10.9,0,0,1,5.79,1.47c5.85,3.47,5.81,11.38,5.8,11.79h-7.25q-2.16,1.48-4.34,2.95"/><path class="cls-8" d="M239.34,254.25q1.44,5.89,2.89,11.79l4.35-1.47,7.24,1.47-4.34-13.26a11.82,11.82,0,0,0-7.25,0,11.24,11.24,0,0,0-2.89,1.47"/><path class="cls-9" d="M378.41,236.56a97.22,97.22,0,0,1-14.49,5.9,98.89,98.89,0,0,1-34.76,4.42,83.51,83.51,0,0,0-21.74,11.79A84.61,84.61,0,0,0,290,276.36a77.94,77.94,0,0,1,10.14-17.69c5.35-7,13.55-17.7,26.08-19.16a25.56,25.56,0,0,1,5.79,0l-8.69-7.37a115.32,115.32,0,0,0,56.5,4.42"/><path class="cls-10" d="M338,274.15a39.81,39.81,0,0,1-5.86-4.31,40.27,40.27,0,0,1-7.32-8.64,142.34,142.34,0,0,0,41-5.76,140.44,140.44,0,0,0,27.82-11.51,66.24,66.24,0,0,1-45.39,23,26.53,26.53,0,0,0-7.32,4.31A25.79,25.79,0,0,0,338,274.15Z"/><path class="cls-6" d="M337.85,273.42c3.27,3.89,11.68,12.71,24.63,14.74,10.15,1.59,18.8-1.68,26.07-4.43A74,74,0,0,0,403,276.36l23.18-14.74L400.14,269a68.34,68.34,0,0,1-21.73,0A67,67,0,0,1,366.82,266c1.6-.09,16.55-1.24,23.18-13.26a24.35,24.35,0,0,0,2.9-10.32A62.95,62.95,0,0,1,348,266a19.63,19.63,0,0,0-10.14,7.38"/><path class="cls-10" d="M316.12,385.45c6.19-9.31,18.65-30.92,18.83-60.44a108,108,0,0,0-5.79-35.38c4,3,19.18,13.49,40.56,11.79a60.76,60.76,0,0,0,34.77-14.74l33.32-29.48a228.28,228.28,0,0,1-26.08,28,226.43,226.43,0,0,1-43.46,31,6.43,6.43,0,0,0,1.45,4.42c1.71,1.84,4.33,1.59,10.14,1.47,2.42-.05,5.89-.08,10.14,0-.48,1.48-1,2.95-1.45,4.42L368.27,348.6l7.24-1.48a69,69,0,0,1-5.79,8.85C353.35,377.2,328.67,383.39,316.12,385.45Z"/><path class="cls-7" d="M316.12,385.45A41.42,41.42,0,0,1,306,400.19a39,39,0,0,1-5.8,4.42V422.3h72.44c-.41-3.05-4.35-37.15,20.28-59a61.2,61.2,0,0,1,34.77-14.74v-8.85a25.5,25.5,0,0,1-15.94,0,23.27,23.27,0,0,1-5.79-2.95c1.64-.9,4.22-2.37,7.24-4.42,7.78-5.28,14.43-9.79,17.38-17.69A24.77,24.77,0,0,0,432,304.37a61.6,61.6,0,0,1-17.38,7.37c-3.56.88-6.1,1.13-8.69,0a12.1,12.1,0,0,1-5.8-5.89c4.66-1.69,26.7-10.23,34.77-32.43a49.17,49.17,0,0,0,2.9-16.22A233.24,233.24,0,0,1,403,292.58a230.88,230.88,0,0,1-34.77,23.59c.25,2,.91,4.61,2.9,5.89s4.44.48,8.69,0a46.83,46.83,0,0,1,10.14,0,13.26,13.26,0,0,1-1.45,4.42c-1.77,3.29-4.09,4.09-7.24,7.38-2.12,2.2-1.9,2.71-4.35,5.89a52.8,52.8,0,0,1-8.69,8.85l7.24-1.48a82,82,0,0,1-21.73,23.59,80.87,80.87,0,0,1-37.66,14.74"/><path class="cls-5" d="M397.24,241c7.19-1.32,11.87,3.09,18.11,5.16,5.32,1.77,10.79.69,21.73-1.47A96.58,96.58,0,0,0,461,236.56c1.55,12.26-.23,21.26-2.18,27.27-3.8,11.71-10.61,19.31-7.24,25.06,1.64,2.81,4.86,3.74,7.24,4.43,10.32,3,17.59-4.62,21.73-1.48,1.55,1.18,2.92,4,1.45,11.8l-18.11,16.95c-.17.47-3.29,9.47,1.45,14.74,5.32,5.92,15.91,2,17.39,1.47,7.37-2.71,8.21-7.22,18.83-17.69,6.47-6.38,11.51-11.61,18.83-14.74a46.23,46.23,0,0,1,26.08-2.95c-13.87,3.32-22.26,9.35-27.53,14.75-11.17,11.45-18.78,30.86-18.83,30.95-12.82,1.57-15,2-17.38,2.95-3.64,1.49-8.49,4.59-13,11.79a87,87,0,0,0-42.74-12.53q.36-4.79.73-9.58a26.09,26.09,0,0,1-21.73-2.95,71.23,71.23,0,0,0,12.31-8.1c5-4.14,9.06-7.45,11.59-13.27A27.06,27.06,0,0,0,432,304.37,43.81,43.81,0,0,1,418.25,311a42.71,42.71,0,0,1-8.69,1.47,12.81,12.81,0,0,1-4.35-1.47,13.31,13.31,0,0,1-5.07-5.16A50.25,50.25,0,0,0,417.53,297a51.28,51.28,0,0,0,12.31-14,44.27,44.27,0,0,0,8-27.27l-11.59,5.89L400.14,269A60.76,60.76,0,0,1,366.82,266a28,28,0,0,0,26.08-23.58A16.2,16.2,0,0,1,397.24,241Z"/><path class="cls-11" d="M500.1,347.12A25.24,25.24,0,0,1,516,350.07a42.51,42.51,0,0,1,5.79-31,41.11,41.11,0,0,1,26.08-17.69,61.64,61.64,0,0,0-27.53,13.27,64.07,64.07,0,0,0-20.28,32.43"/><path class="cls-12" d="M214,216.66a39.1,39.1,0,0,0,5.07-3.68c2.95-2.53,3.12-3.57,5.8-5.9a43.81,43.81,0,0,1,15.93-8.85,27,27,0,0,0,5.8,11.8,26.08,26.08,0,0,0,7.24,5.89,17.35,17.35,0,0,1-23.9,3.69"/><path class="cls-13" d="M310.32,151.06a28.47,28.47,0,0,1-2.9,14.74c-5.63,11.19-16.92,14.26-18.83,14.74a28.56,28.56,0,0,1-13,1.48c-3.24-.41-7.57-1-10.14-4.42a9.77,9.77,0,0,1-1.45-2.95,9.22,9.22,0,0,1,1.45-4.42c2.25-3.35,6.42-4,8.69-4.43,7.66-1.34,17.62-3.56,23.18-5.89A41.34,41.34,0,0,0,310.32,151.06Z"/><path class="cls-14" d="M246.58,59.66a118.94,118.94,0,0,0-15.94,13.27,121.2,121.2,0,0,0-21.73,29.48c.51-3.25-1.91-5.91-4.34-5.89-2.61,0-4,4.57-4.35,4.42s1.95-5.18,3.62-9.58c1.4-3.68,2.33-6.78,2.9-8.85l11.59-13.26a167.59,167.59,0,0,1,18.83-7.37c3.5-1.14,6.88-2.11,10.14-3"/><path class="cls-15" d="M190.08,123.05a27.88,27.88,0,0,0,2.9,16.22,26.53,26.53,0,0,0,5.79,7.37,27.88,27.88,0,0,1-1.45,4.42,29.1,29.1,0,0,1-1.44,2.95,35.84,35.84,0,0,1-7.25-8.85,36.44,36.44,0,0,1-4.34-11.79,18.79,18.79,0,0,1,5.79-10.32Z"/><path class="cls-16" d="M195.88,154a48.94,48.94,0,0,1-4.35,5.9,47,47,0,0,1-4.35,4.42,30.62,30.62,0,0,1-4.34-8.85c-3.05-10.11.13-19,1.45-22.11"/><path class="cls-17" d="M292.21,94.31c8.39-4.4,16.47-8.65,18.11-6.64,1.38,1.7-2.16,7.06-5.79,11.8a4.15,4.15,0,0,0,1.45,2.94c2.22,1.69,7,.17,11.59-4.42,5.52-4.93,27.51-24.17,46.35-31,15.09-5.42,17.39-5.89,17.39-5.89,5.62-1.14,11.4-1.6,17.38-5.9,2.65-1.9,3.86-3,4.35-4.42,2.85-8.16-14-20.5-15.21-21.38C377,21.63,365,19.45,356,19.12L371.89,25a174.12,174.12,0,0,0-23.18,0,181.93,181.93,0,0,0-34.77,5.9c-21.25,5.64-43.68,11.6-60.84,31a91.61,91.61,0,0,0-5.8,7.37c-3.78,5.77-8.09,13-13,28-5.29,16-8.25,33.17-8.7,35.38-2.68,13.17-10.88,31.65-36.21,53.07a58.43,58.43,0,0,0,17.38,3c5.66.1,9.59.13,13-1.47,8.83-4.11,6.83-15.52,14.49-35.38,3.45-9,9-22.94,21.73-33.91,2.56-2.21,6.53-4.91,14.48-10.32A215.78,215.78,0,0,1,292.21,94.31Z"/><path class="cls-5" d="M383.48,26.5a287,287,0,0,1,29.7,17q4.49,2.92,8.69,5.89l-53.6,32.44A125.74,125.74,0,0,0,353.78,92.1,128.22,128.22,0,0,0,335,111.26c-1.93,3.21-3.88,6.65-5.79,10.32-1.59,3-3,6-4.35,8.84-5.41-.85-9.57,1.58-10.14,4.43-.36,1.79.75,3.53,1.45,4.42A64.26,64.26,0,0,1,290,155.48a62.64,62.64,0,0,1-21.73,3c-.82-.34-1.46-.92-1.45-1.47,0-.72,1.17-1.59,2.9-1.48,6,.41,23.1-8.82,29-13.26,4.65-3.52,9.51-10.64,10.14-26.54a18.46,18.46,0,0,0,8-8.11,17.43,17.43,0,0,0,1.45-4.42A73.43,73.43,0,0,1,283.52,112l8.69-17.69c3.71-1.81,6.68-3.35,8.7-4.43,4.76-2.53,7.07-4,8.69-2.94a4,4,0,0,1,1.45,2.94c.61,5.38-6.14,9.86-5.8,10.32.71,1,27.23-22.78,62.3-35.38,6-2.15,11.08-3.56,14.48-4.42,3.31-.4,11.59-1.9,17.39-8.84a23,23,0,0,0,2.89-4.43,61.72,61.72,0,0,0-7.24-10.32A60.57,60.57,0,0,0,383.48,26.5Z"/><path class="cls-18" d="M306,118.63a36.08,36.08,0,0,1-5.8,14.74c-12.29,17.83-36.92,16.38-39.11,16.22a31,31,0,0,0-7.25,10.32c-7.16,16.78,3.75,34.08,5.07,36.11a102.33,102.33,0,0,0,24.63,1.48A109.64,109.64,0,0,0,332.05,182a114.56,114.56,0,0,0,34.77-32.43A69.06,69.06,0,0,1,361,173.17l-5.8,13.27a73.61,73.61,0,0,0,20.28-17.69,74.88,74.88,0,0,0,13-25.06,22.66,22.66,0,0,0,0-8.84,22.26,22.26,0,0,0-2.9-7.38,26.78,26.78,0,0,1,2.9-11.79,24.88,24.88,0,0,1,2.9-4.42,34.08,34.08,0,0,0,15.93,0,34.63,34.63,0,0,0,15.94-8.85A19.71,19.71,0,0,1,414.63,98c-1.48-1.34-4.34-4.42-4.35-4.42,12.89-1.44,20.24-6.11,24.63-10.32,5.17-5,6.32-9.35,13-16.22a63.47,63.47,0,0,1,15.93-11.79c-4.4-.22-9.25-.26-14.48,0a142,142,0,0,0-14.49,1.48L369.72,81.78c-1.8.69-18,10.07-29,22.11a67.61,67.61,0,0,0-6.51,8.11c-4.71,6.89-5.35,10.61-8.7,16.21-3.68,6.18-7.8,9.87-11.59,13.27-4.14,3.72-13.57,12-28.25,15.48a59.31,59.31,0,0,1-17.38,1.47,3.26,3.26,0,0,1-1-.66,1.47,1.47,0,0,1-.41-.81c-.09-1.07,7.4-2.32,12.32-3.69a49.14,49.14,0,0,0,17.38-8.84,33.37,33.37,0,0,0,6.52-6.64,31.55,31.55,0,0,0,5.79-14.74,30.86,30.86,0,0,0,0-7.37Z"/><path class="cls-5" d="M410.28,93.57c2.4.75,11.39,3.26,20.28-1.47a24.69,24.69,0,0,0,7.25-5.9l27.52-26.54a46.35,46.35,0,0,1,0,20.64,45.88,45.88,0,0,1-7.24,16.22A50,50,0,0,0,472.58,70a48.81,48.81,0,0,0,0-17.69l-24.63,3h15.93c-11.39,6.55-16.4,11.4-18.83,14.74-.37.51-2,2.77-4.35,5.9s-4.45,5.73-5.79,7.37a41.7,41.7,0,0,1-24.63,10.32"/><path class="cls-19" d="M335,208.55c0-1.34-13.44-2.52-20.28-3a210.05,210.05,0,0,0-26.08,0,23.57,23.57,0,0,1-5.79,1.48,24.21,24.21,0,0,1-5.8,0l-17.38-10.32a117,117,0,0,0,63.74-10.32,118.83,118.83,0,0,0,43.46-35.38,117.33,117.33,0,0,1-11.59,35.38,95,95,0,0,0,11.59-8.84,93.84,93.84,0,0,0,8.69-8.85c2.19-1.93,12.62-11.5,13-26.53a34.64,34.64,0,0,0-2.9-14.75,33.66,33.66,0,0,1,1.45-7.37,33.24,33.24,0,0,1,4.35-8.84,34.91,34.91,0,0,0,29,23.59,34.49,34.49,0,0,0,31.87-14.75l31.88-33.9A58,58,0,0,1,492.86,95a59.22,59.22,0,0,1,5.79,8.85,112.49,112.49,0,0,1-33.32,23.58,109.64,109.64,0,0,1-21.73,7.38L432.74,143l-3.63,37.59a72.67,72.67,0,0,1-14.48,23.59c-15,16.31-33.36,20.77-40.57,22.11l-43.46-3,10.14-7.37a22.34,22.34,0,0,1-10.14,1.48c-2.33-.23-3.8-.78-10.14-3-3.88-1.33-7-2.37-8.69-2.95C330.85,210.32,335,209.29,335,208.55Z"/><path class="cls-17" d="M429.11,180.54a62.25,62.25,0,0,1-13,31,60.87,60.87,0,0,1-31.87,20.64l27.52-1.47a28.32,28.32,0,0,1-5.79,5.89,27.78,27.78,0,0,1-8.7,4.42,44.23,44.23,0,0,0,20.29,7.38c9.48.86,17.27-1.84,29-5.9a150.93,150.93,0,0,0,14.49-5.9,75.79,75.79,0,0,1-14.49,48.65c-2.15,3.68-2.15,5.94-1.45,7.37,3.12,6.41,23.15,2.42,33.32,0a11.14,11.14,0,0,1,2.9,5.9,11.28,11.28,0,0,1-1.45,7.37l-15.94,14.74c-.25.49-3,6.16,0,11.79a12.5,12.5,0,0,0,7.25,5.9c7.37.76,11.78-1,14.48-2.95,2.07-1.46,3-2.86,8.7-8.85,2.4-2.5,4.41-4.53,5.79-5.89a58.52,58.52,0,0,1,13-11.79,57.16,57.16,0,0,1,11.59-5.9,58,58,0,0,1,23.18-1.48,43.54,43.54,0,0,0-11.59,11.8,45.38,45.38,0,0,0-7.25,23.58c-.17,7.3-.39,16.66,5.8,20.64,5.45,3.51,12.64.77,14.49,0a36.17,36.17,0,0,1,34.76,0,123.05,123.05,0,0,1,33.32,31,85.73,85.73,0,0,0,10.15,0,87.34,87.34,0,0,0,11.59-1.47c.45-12.81,3.15-16.73,5.79-17.69,0,0,.84-.31,8.69,0a44.32,44.32,0,0,0,4.35-7.38c7.26-15.59,3.54-31.47,1.45-38.32a40.34,40.34,0,0,1-7.25,13.26,39.4,39.4,0,0,1-13,10.32,178.39,178.39,0,0,0,5.79-28c1.47-11.86,2.47-19.85.72-30.22-1.1-6.55-3.43-20.39-14.48-32.43C627.7,252.64,618,242.08,603,241a36.35,36.35,0,0,0-13,1.48A41.54,41.54,0,0,1,612.37,255a42.16,42.16,0,0,1,9.42,16.95c-38,11.12-49.55,9.89-52.15,5.9a12.14,12.14,0,0,0-4.35-4.42,11.73,11.73,0,0,0-11.59,0,11.85,11.85,0,0,0-5.79,10.31,159.4,159.4,0,0,1,0-25.06c1.38-17.58,5-25.8,5.79-33.9,1.22-11.93-3-29.38-27.52-53.07a425.46,425.46,0,0,0-21.73-56q-2.85-6-5.8-11.79a117.73,117.73,0,0,1-23.9,18.43,116.43,116.43,0,0,1-31.15,12.53l-13.76,9.58c.22,7,.24,14.39,0,22.11Q429.62,173.77,429.11,180.54Z"/><path class="cls-19" d="M549.36,357.44c2.71-.82,20.17-5.83,34.76,4.42,10.64,7.48,14.87,19.33,15.94,23.59a144.47,144.47,0,0,1,4.35,36.85h92.71a283.36,283.36,0,0,0-26.07-131.19A90.71,90.71,0,0,0,607.3,241a6.41,6.41,0,0,0,.79.28c.67.24,9.66,4.25,13.7,7.1,5.05,3.54,16.52,15.19,21.73,33.9,3.55,12.73,2.59,23,1.45,35.38a148,148,0,0,1-5.79,29.48,39.4,39.4,0,0,0,13-10.32,40.34,40.34,0,0,0,7.25-13.26,51.45,51.45,0,0,1,2.89,19.16,52.07,52.07,0,0,1-8.69,26.54c-.94-.25-5.87-1.46-10.14,1.47-4.6,3.16-6.55,9.83-4.34,16.22a98.63,98.63,0,0,1-13,1.47c-3.09.14-6,.12-8.7,0a123.05,123.05,0,0,0-33.32-31A36.29,36.29,0,0,0,563.84,353,35.81,35.81,0,0,0,549.36,357.44Z"/><path class="cls-20" d="M269.76,127.47c.77-1.06,2.44-1.19,5.79-1.47,4-.32,5.51.24,8.7,0a29.67,29.67,0,0,0,7.24-1.47,16.84,16.84,0,0,1-2.9,8.84,16.4,16.4,0,0,1-7.24,5.9,10.68,10.68,0,0,1-7.25-1.48C270.27,135.28,268.09,129.79,269.76,127.47Z"/><path class="cls-21" d="M194.43,118.63a25,25,0,0,1,7.24,4.42,25.7,25.7,0,0,1,5.8,7.37,12.68,12.68,0,0,1,0,4.43,12.32,12.32,0,0,1-2.9,5.89,21.89,21.89,0,0,1-7.25-7.37A23.08,23.08,0,0,1,194.43,118.63Z"/><path class="cls-22" d="M249.48,102.41a55.46,55.46,0,0,1,13-25.06,53.28,53.28,0,0,1,13-10.32c2.69-.79,7.39-1.89,8.7,0,1.68,2.45-3.2,8.59-5.8,11.8C273.31,85.19,264.5,94.11,249.48,102.41Z"/><path class="cls-19" d="M271.13,417.16a44,44,0,0,1,14.06,18.39,44,44,0,0,0,8.44-24.05,43.27,43.27,0,0,0-2.81-17Q281.9,379.76,277,381q-6.88,1.79-5.79,35.38"/><path class="cls-19" d="M220.5,371.88a31.51,31.51,0,0,1,4.22,2.83,33.47,33.47,0,0,1,5.63,5.66,113.76,113.76,0,0,0-9.85,43.86,36.33,36.33,0,0,0-11.25-9.9,35.51,35.51,0,0,0-12.65-4.24c-7.92-14.75-4.92-30.56,3.62-36.43C205.77,369.85,215.31,369.09,220.5,371.88Z"/><path class="cls-19" d="M130.5,418.58c1.61,2,5.2,4.25,8.44,9.9a34.8,34.8,0,0,1,4.22,12.73l22.5-63.67-7-4.24-12.72-1.85C126.91,402.25,126.65,413.88,130.5,418.58Z"/><path class="cls-23" d="M100.53,426.52a72.84,72.84,0,0,0,26.72,56.6,46.05,46.05,0,0,1-5.62-29.71,44.7,44.7,0,0,1,8.43-19.81,15.55,15.55,0,0,0-29.53-7.08"/><path class="cls-24" d="M174.09,434.14c2.81-7.48,11.28-16.05,21.1-14.15,6.5,1.26,11.91,6.79,14.06,14.15A128.54,128.54,0,0,1,205,448.29c-3,8.19-5,11.25-5.62,17a31.19,31.19,0,0,0,1.4,12.73,47.9,47.9,0,0,1-21.09-18.39C176.18,453.8,170.32,444.18,174.09,434.14Z"/><path class="cls-25" d="M240.19,437c2.42-8.52,10.07-14.3,18.28-14.15,9.43.17,17.69,8.11,18.29,18.39A27.73,27.73,0,0,0,271.13,478a44.59,44.59,0,0,1-30.94-41"/><path class="cls-26" d="M456.64,207.08c6.65,1.13,12-3.5,13-4.42a20.1,20.1,0,0,0,5.79-8.85c-1.07-.74-8.61-5.76-17.38-2.95a19.23,19.23,0,0,0-8.69,5.9,8,8,0,0,0,0,5.9C451,206.12,455.08,206.81,456.64,207.08Z"/><path class="cls-26" d="M485.61,159.91c-3.71,3.72,1,13.7,1.45,14.74A26.71,26.71,0,0,0,495.75,185a9.2,9.2,0,0,0,11.59-1.48,9.53,9.53,0,0,0,1.45-10.32,21.76,21.76,0,0,0-5.79-8.84C497.85,159.67,489,156.54,485.61,159.91Z"/><path class="cls-26" d="M452.29,165.8a14.77,14.77,0,0,0,1.45-16.21,14.25,14.25,0,0,0-13-7.37,69,69,0,0,1,0,11.79c-.49,5.8-1.44,8.35,0,10.32C441.87,165.93,444.73,167.28,452.29,165.8Z"/><path class="cls-22" d="M387.1,149.59c2.75-.74,6.66-.14,8.69,2.95a8.2,8.2,0,0,1-1.44,10.31l1.44,7.38a9.4,9.4,0,0,1-10.14,0,9.73,9.73,0,0,1-4.34-8.85c-.16-.53-1.42-5.16,1.45-8.84A8.3,8.3,0,0,1,387.1,149.59Z"/><path class="cls-22" d="M404.49,177.6a10.71,10.71,0,0,0-5.8,10.31c.38,4.33,3.61,8.6,7.25,8.85,5.13.35,10.94-7.34,8.69-13.27C413.27,179.92,409.18,177.49,404.49,177.6Z"/><path class="cls-22" d="M358.13,205.6c4.13-4.91,10.27-7.23,15.93-5.89a15.64,15.64,0,0,1,8.7,5.89c-6.64,7.11-15.17,9.15-20.28,5.9a10.92,10.92,0,0,1-4.35-5.9"/><path class="cls-22" d="M317.57,196.76a20.13,20.13,0,0,1,8.69-4.42,22.39,22.39,0,0,1,8.28-.09h0l.4.09c.08,0,1.22.81,0,7.37a52.45,52.45,0,0,1-1.45,5.89,15.5,15.5,0,0,1-8.69-1.47,16,16,0,0,1-7.24-7.37"/><path class="cls-26" d="M352.33,179.07a5.71,5.71,0,0,0,2.9,0c3.08-.83,4.23-4.07,4.35-4.42a8.26,8.26,0,0,0,2.9,1.47,8.09,8.09,0,0,0,3.7.15,1,1,0,0,0,.64-.15c1.15-.8.24-4.86-1.45-7.37a11.22,11.22,0,0,0-7.24-4.42,6.42,6.42,0,0,0-7.24,1.47,6.93,6.93,0,0,0-1.45,5.9,7.19,7.19,0,0,0,0,3,7.59,7.59,0,0,0,2.89,4.42"/><path class="cls-22" d="M311.77,162.85c-1.78,2.94.62,7.34,1.45,8.85a15.59,15.59,0,0,0,5.79,5.9,6.66,6.66,0,0,1,1.45-4.43c1.91-2.11,4.52-1.16,5.8-2.94s.33-5.38-1.45-7.38C321.43,159.06,313.92,159.33,311.77,162.85Z"/><path class="cls-22" d="M362.48,137.79c1.64.68,2.92,1.85,2.89,3,0,1.45-2.33,3.19-5.79,2.95a8.49,8.49,0,0,1-8.69-1.47,9.18,9.18,0,0,1-2.9-7.37c3.34-5.63,6.47-7.08,8.69-7.38,5.42-.71,11.88,4.56,11.87,4.56l-.28-.13h0a3.51,3.51,0,0,1,0,2.95c-.86,1.3-3.44,1.68-5.79,0a1.47,1.47,0,0,0,0,2.94"/><path class="cls-26" d="M348,100.94a7,7,0,0,0-4.35,7.37,6.88,6.88,0,0,0,5.8,5.9c3.7-1.63,5.44-5.64,4.34-8.85a7,7,0,0,0-5.79-4.42"/><path class="cls-26" d="M388.55,103.89a6.85,6.85,0,0,1,10.14-1.48,9,9,0,0,0,1.45-5.89c-.6-4.45-5.27-8.32-11.59-8.85A10.15,10.15,0,0,0,384.21,95a9.85,9.85,0,0,0,4.34,8.85"/><path class="cls-22" d="M298.73,58.19c1.45-2.44,6-9.42,14.49-11.79,7.39-2.08,16.68-.35,17.38,2.94.64,3-5.88,7.07-10.14,8.85-9,3.78-17.83,1.37-21.73,0"/><path class="cls-26" d="M337.85,36.08c-.43-2.49,6.33-6.59,13-7.37s14.22,1.56,14.48,4.42c.09,1-.67,2.43-4.34,4.42A32.88,32.88,0,0,1,345.09,39C342.29,38.57,338.16,37.9,337.85,36.08Z"/><path class="cls-22" d="M355.23,61.14a9.08,9.08,0,0,1,4.35-4.42c4-1.69,7.94,1.15,8.69,0s-2.19-4.85-5.79-7.38c-3.78-2.64-10.59-5.55-13-2.94-1.81,1.92-.46,6,0,7.37a14.38,14.38,0,0,0,5.79,7.37"/><path class="cls-22" d="M387.1,43.45c-3.07,2.21-4.8,5.59-4.34,8.84.35,2.54,2.11,5.61,4.34,5.9,1.63.21,2.08-1.24,4.35-1.47,3.1-.32,4.56,2.16,5.79,1.47,1.63-.91,1.42-6.56-1.45-10.32s-7.57-4.33-8.69-4.42"/><path class="cls-26" d="M485.61,213c2.09-3.33,6.38-4.85,10.14-4.43,5.62.63,8.41,5.39,8.7,5.9-2.41,4.49-2.19,7.18-1.45,8.84,1,2.23,2.68,2.56,2.9,4.43.33,2.92-3.43,6.41-7.25,7.37-5.32,1.34-9.67-2.52-10.14-3a31.05,31.05,0,0,1-2.9-7.37C484.48,220.22,483.51,216.33,485.61,213Z"/><path class="cls-26" d="M437.81,224.77a7.82,7.82,0,0,0-4.35,8.84,7.67,7.67,0,0,0,7.24,5.9,8.82,8.82,0,0,0,2.9-10.32,8.52,8.52,0,0,0-5.79-4.42"/><path class="cls-26" d="M479.82,257.2c-8.87,6.91-11.83,16.61-8.69,22.11,1.82,3.2,6.91,7.08,11.59,5.9a7.66,7.66,0,0,0,2.89-1.48c.6.29,5.43,2.54,10.14,0a10.83,10.83,0,0,0,4.35-4.42,27.32,27.32,0,0,0-7.24-14.74,26.37,26.37,0,0,0-13-7.37"/><path class="cls-26" d="M521.83,260.15a31.88,31.88,0,0,1,0,13.27c-1,4.69-2.66,6.79-1.45,8.84,1.7,2.86,7.51,3.12,11.59,1.47a12.69,12.69,0,0,0,4.35-2.94,15.6,15.6,0,0,0-2.9-16.22,15.1,15.1,0,0,0-11.59-4.42"/><path class="cls-26" d="M561,342.7a12.09,12.09,0,0,0,7.24-13.27,11.75,11.75,0,0,0-8.69-8.84,12.08,12.08,0,0,0-7.25,13.27,11.75,11.75,0,0,0,8.7,8.84"/><path class="cls-26" d="M653.66,369.24c8.61,8.06,12.38,15.87,10.14,19.16-1.75,2.58-7,2.06-10.14,1.47a11.07,11.07,0,0,1-7.24,1.48c-.44-.07-4.91-.8-7.24-4.42-3.54-5.49-.48-14.92,5.79-17.69A11.82,11.82,0,0,1,653.66,369.24Z"/><path class="cls-26" d="M594.27,348.6c-1.39,9.66,2.67,16.84,7.24,17.69,2.92.54,5.74-1.57,7.24-3a16.15,16.15,0,0,0,11.59-4.42,27.2,27.2,0,0,0-11.59-8.85,26.6,26.6,0,0,0-14.48-1.47"/><path class="cls-26" d="M471.13,314.69c6.57-1.5,13.21,4.44,14.48,10.32.24,1.08,1.14,5.26-1.44,7.37-1.79,1.46-4.66,1.45-7.25,0-.48,2-1,3.93-1.45,5.9-.71.11-6.23.93-10.14-2.95-4.06-4-3.74-10.53-1.45-14.74C464.51,319.43,466.79,315.68,471.13,314.69Z"/><path class="cls-13" d="M576.88,292.58a56.82,56.82,0,0,0,5.8,14.74c-.12,6.06,2.81,11.4,7.24,13.27,7.57,3.19,17.07-4.81,17.38-11.79.23-4.86-4-8.31-10.14-13.27-4-3.29-7.89-6.32-13-5.9a13.84,13.84,0,0,0-7.24,2.95"/><path class="cls-17" d="M186.46,185.7a73,73,0,0,0,29,3"/><path class="cls-27" d="M207.47,180.54a16.56,16.56,0,0,1-7.25,3,15.62,15.62,0,0,1-4.34,0,115.65,115.65,0,0,0,24.62-35.38,114,114,0,0,0,5.8-16.21,183.9,183.9,0,0,1,7.24-31c4.42-13.5,8.66-26.45,18.83-38.33,3.4-4,11.27-12.26,29-20.64,35.2-16.65,74.34-17.08,94.16-16.21a53.13,53.13,0,0,0-17.38-5.9c-7.78-1.17-13.85-.25-24.63,1.48a186.17,186.17,0,0,0-20.28,4.42C297.83,30,281.31,35.33,264,42c-12.38,4.75-24,9.72-34.76,14.75L210.36,70q-1.8,6.27-3.62,12.53l1.52-1.66q4.92-5.43,9.35-10.87a100.59,100.59,0,0,1,29-10.32A163.13,163.13,0,0,0,229.2,92.1a165.12,165.12,0,0,0-10.15,38.32c-2.85,12.79-7.64,21.17-11.58,26.54-3,4.08-6.1,7.19-13,16.21-3.78,4.91-6.75,9-8.7,11.8a19.75,19.75,0,0,0,8.7,1.47A21.72,21.72,0,0,0,207.47,180.54Z"/><path class="cls-16" d="M214.71,189.39c.29,0,6.53-.56,10.14,4.42a11.65,11.65,0,0,1,0,13.27,43.81,43.81,0,0,1,15.93-8.85,108.32,108.32,0,0,1,13-66.33,22.1,22.1,0,0,1,0-7.37c.74-4.24,2.47-6.42,2.18-6.64-.76-.54-14.07,12.42-22.46,31.7a96.47,96.47,0,0,0-7.24,26.53,22.07,22.07,0,0,1-11.59,13.27Z"/><path class="cls-6" d="M253.82,131.9c1.11.37,2.4-5.33,7.25-8.85,3.45-2.51,7.15-2.77,10.14-3,9-.52,20.19-1.09,33.32-1.47a56.59,56.59,0,0,0,10.14-7.37,57.55,57.55,0,0,0,4.34-4.42,3.3,3.3,0,0,0,0-3c-.93-1.5-4-1.89-7.24,0l-15.93,5.9-11.59,1.47a48.33,48.33,0,0,0,8-17,238,238,0,0,0-21,12.53c-5.53,3.69-10.6,7.41-15.21,11a27.4,27.4,0,0,0-1.27,3.16,28.43,28.43,0,0,0-.91,3.48C253.45,126.52,252.79,131.55,253.82,131.9Z"/><path class="cls-28" d="M366.1,84a114.56,114.56,0,0,1,13.37-8c6.73-3.43,10.54-4.51,25.27-9.62,19.22-6.66,19.19-7,23.78-8a85.81,85.81,0,0,1,23.77-1.61,21.39,21.39,0,0,0-7.43,3.21c-3.92,2.7-5.35,5.68-7.43,8-2.55,2.86-7.19,6-16.35,6.41s-11.39,0-20.8,1.6a66.18,66.18,0,0,0-11.89,3.21Z"/><path class="cls-29" d="M265,170.88c2.16,5.69,12.27,6.3,18,5.61,1.7-.2,15.9-2.14,20.44-14a21.44,21.44,0,0,0,1.2-9.81,33.34,33.34,0,0,1-13.49,8.25,47.65,47.65,0,0,1-12.69,1.72c-7.39.28-10.72-.75-12.69,1.71A7.09,7.09,0,0,0,265,170.88Z"/><path class="cls-22" d="M327.71,140.74c.48-.25,1.44-.76,1.45-1.47s-1.26-1.48-1.45-1.48h-2.9a1.64,1.64,0,0,1,0-1.47c.51-.84,2.3-1,4.35,0,2.45.43,4.35-1.35,4.34-2.95a3.42,3.42,0,0,0-2.9-3c-6.07-1.3-14.16-1.29-15.93,3a5.5,5.5,0,0,0,0,4.42,4.12,4.12,0,0,0,1.45,1.48C319,141.18,324.09,142.62,327.71,140.74Z"/><path class="cls-30" d="M484.17,86.2a105,105,0,0,1,27.52,29.48,106.65,106.65,0,0,1,13,31,333.86,333.86,0,0,0,26.07,41.27,332.88,332.88,0,0,0,37.67,42.76c-2.05-.1-18.61-.57-30.42,13.26s-9.07,30.37-8.69,32.43c2.47-5.86,8.57-18,21.73-26.53,5.17-3.35,12.61-8.17,21.73-7.37,12.51,1.1,23.59,12.4,29,28-.55.2-8.95,3.48-10.14,10.32-1.24,7.13,5.68,16.4,17.38,17.69A122.21,122.21,0,0,1,630.48,325a28.79,28.79,0,0,1-10.14,16.22A27.79,27.79,0,0,1,603,347.12a38.18,38.18,0,0,1-20.28-10.32c-10.55-10.36-11.46-23.49-11.59-26.53v-31c-2.07-4.2-5.92-7.11-10.14-7.37-5.93-.36-11.86,4.55-13,11.79l-4.35-48.64a15.4,15.4,0,0,0,7.24-17.69,14.93,14.93,0,0,0-13-10.32,127.29,127.29,0,0,0-4.35-17.69,125.46,125.46,0,0,0-7.24-17.69,74.35,74.35,0,0,0,1.45,20.64,105.87,105.87,0,0,1-18.84-51.6A71.6,71.6,0,0,0,484.17,86.2"/><path class="cls-11" d="M451.57,120.84a154.82,154.82,0,0,0,21.73-13.27,155.17,155.17,0,0,0,17.38-14.74l-7.24-5.89-31.87,33.9"/><path class="cls-26" d="M627.59,326.48c1.15-.76,11.8-7.63,21.73-2.94a17.83,17.83,0,0,1,5.79,4.42,18,18,0,0,1-4.35,5.9c-4.87,4.31-10.62,4.39-13,4.42-3.1,0-5.3.07-7.25-1.48-4-3.14-3-9.71-2.89-10.32"/><path class="cls-17" d="M226.3,43.45a30.52,30.52,0,0,1,5.79-11.79c3.39-4.16,8.32-7.76,27.53-13.27,6.23-1.79,14.59-4,24.63-5.9l1.44,2.95a129.55,129.55,0,0,0-34.76,11.79A131,131,0,0,0,226.3,43.45Z"/><path class="cls-6" d="M216.16,280.79c1.52-4.49,7.87-6.08,13-7.37a39.41,39.41,0,0,1,18.83,0,29.64,29.64,0,0,0,11.59,1.47c4.07-.31,10.57-.8,14.48-5.9a15.13,15.13,0,0,0,2.9-8.84,58.72,58.72,0,0,1,8.69-8.85,57.7,57.7,0,0,1,11.59-7.37c-4.73-5.77-8.8-10.27-11.59-13.26-11.79-12.66-16.87-18.13-23.17-28-2-3.12-3.47-5.75-4.35-7.37,5.09,3.18,9.06,5.73,11.59,7.37,4.25,2.75,6,3.9,8.69,4.42a16.73,16.73,0,0,0,10.14-1.48,172.66,172.66,0,0,1,46.36,3l-23.18,2.95a78.91,78.91,0,0,1,10.14,2.95c4.29,1.56,5.82,2.54,8.69,3a19.28,19.28,0,0,0,10.14-1.48l-10.14,7.37q12.24.69,24.63,1.48,10.93.71,21.73,1.47l-24.63,5.9,26.08,4.42a109.56,109.56,0,0,1-53.6-2.95l7.24,5.9a36,36,0,0,0-17.38,4.42c-2.4,1.36-8.59,5.25-20.28,25.06-9.17,15.55-8.9,19.15-14.49,23.59-8.12,6.45-18.57,6.69-26.08,5.9q3.63,3.67,7.25,7.37a56,56,0,0,1-13,0c-4.63-.55-11.86-1.39-18.83-5.9C223.27,296.12,213.93,287.33,216.16,280.79Z"/><path class="cls-31" d="M109.4,411.5c2.25,1.77,5-.39,11.25,1.42a24.9,24.9,0,0,1,9.85,5.66,57.7,57.7,0,0,1,5.62-19.81A57,57,0,0,1,146,384.62V371.88c-3.37-.73-14.77-2.75-24.7,4C107.13,385.46,104.07,407.31,109.4,411.5Z"/><path class="cls-29" d="M109.4,411.5a20.41,20.41,0,0,0-8.43,2.83,20.84,20.84,0,0,0-7,7.07c-.44-5.53-1-22.28,9.85-38.2a57.32,57.32,0,0,1,18.28-17A53.58,53.58,0,0,1,146,367.64a52.63,52.63,0,0,1,12.65,5.66,95.53,95.53,0,0,0-16.87-1.42c-8.58.05-13.28.13-18.28,2.83-2.36,1.28-7.57,4.65-11.25,12.74a50.09,50.09,0,0,0-2.82,24.05"/><path class="cls-26" d="M537.77,207.08a12,12,0,0,0-7.25,4.42c-3,4.05-2,8.9-1.45,11.79s1.52,7.64,5.8,10.32a12.33,12.33,0,0,0,8.69,1.48,15.4,15.4,0,0,0,7.24-17.69,14.93,14.93,0,0,0-13-10.32"/><path class="cls-26" d="M629,298.48a15,15,0,0,0,8.7-16.22,14.74,14.74,0,0,0-15.94-11.79"/><path class="cls-26" d="M629,298.48a16.19,16.19,0,0,1-15.93-8.85c-2.93-6.21-.42-12.3,0-13.27l8.69-5.89"/><path class="cls-31" d="M179.72,411.5a34.35,34.35,0,0,1,5.62-1.41,35,35,0,0,1,11.26,0,33.8,33.8,0,0,1,4.21-17,33.4,33.4,0,0,1,8.44-9.91,15.81,15.81,0,0,1,2.81-11.32h8.44c-9.91-5.39-21.63-5.41-30.42.3-11.81,7.68-16.69,24.66-10.14,39.81"/><path class="cls-29" d="M179.72,411.5a61.07,61.07,0,0,0-15.47,15.56,83.16,83.16,0,0,1,1.41-18.39,86.06,86.06,0,0,1,16.87-36.79,29.34,29.34,0,0,1,16.88-7.07,29.83,29.83,0,0,1,21.09,7.07,58.38,58.38,0,0,0-9.84-1.41c-6.33-.36-12.79-.73-18.28,2.83-1.17.76-3.92,2.74-7,8.49C179.5,392.57,179.16,404.05,179.72,411.5Z"/><path class="cls-31" d="M248.63,417.16a23.85,23.85,0,0,1,12.66-2.83,23.58,23.58,0,0,1,9.84,2.83,33.7,33.7,0,0,0,8.44-18.39,33.23,33.23,0,0,0-1.41-14.15,19.5,19.5,0,0,0-8.4-8c-7.09-3.39-14.82-1.27-18.83,1.47-8.76,6-11.43,22.89-2.9,39.8"/><path class="cls-29" d="M231.75,431.31c.72.18,1.82-7.05,8.44-11.32a19,19,0,0,1,8.44-2.83c-4.94-12.34-2.53-25.43,5.62-32.54,5.66-4.93,12.45-5.58,15.47-5.66a87.54,87.54,0,0,1,21.1,15.56,32.87,32.87,0,0,0-8.44-14.15c-8.06-7.84-20.54-11.39-29.53-8.49C229.41,379.46,229.87,430.83,231.75,431.31Z"/><path class="cls-19" d="M568.44,409.79a43.32,43.32,0,0,1,8.31,8.49,44.34,44.34,0,0,1,5.55,9.9,44.42,44.42,0,0,0,8.31-24.05,43.76,43.76,0,0,0-2.77-17q-8.79-14.76-13.61-13.49-6.79,1.79-5.72,35.38"/><path class="cls-19" d="M518.54,364.51a31,31,0,0,1,4.16,2.83,33.63,33.63,0,0,1,5.55,5.66,115.1,115.1,0,0,0-9.71,43.86,36,36,0,0,0-11.08-9.9A34.64,34.64,0,0,0,495,402.72c-7.8-14.75-4.84-30.56,3.58-36.43C504,362.48,513.43,361.72,518.54,364.51Z"/><path class="cls-19" d="M429.84,411.2c1.59,2,5.13,4.26,8.32,9.91a35.09,35.09,0,0,1,4.16,12.73l22.17-63.67-6.93-4.24L445,364.08C426.31,394.88,426.05,406.5,429.84,411.2Z"/><path class="cls-32" d="M399.35,423.94a74.31,74.31,0,0,0,5.55,28.3,73.14,73.14,0,0,0,20.79,28.29,46.61,46.61,0,0,1-5.55-29.71A45.24,45.24,0,0,1,428.46,431,15.81,15.81,0,0,0,416,415.45a15.47,15.47,0,0,0-16.64,8.49"/><path class="cls-33" d="M472.81,426.77c2.77-7.48,11.11-16,20.79-14.15,6.41,1.26,11.73,6.79,13.86,14.15a133.09,133.09,0,0,1-4.16,14.15c-2.92,8.19-4.95,11.25-5.54,17a31.59,31.59,0,0,0,1.38,12.73,47.39,47.39,0,0,1-20.79-18.39C474.86,446.42,469.09,436.81,472.81,426.77Z"/><path class="cls-34" d="M538,429.6c2.38-8.52,9.92-14.3,18-14.15,9.28.17,17.43,8.11,18,18.39a28.2,28.2,0,0,0-9.7,17,28.6,28.6,0,0,0,4.16,19.81,45,45,0,0,1-23.56-18.39A45.81,45.81,0,0,1,538,429.6"/><path class="cls-31" d="M409.06,404.13c2.21,1.77,4.92-.39,11.08,1.41a24.58,24.58,0,0,1,9.7,5.66,58.46,58.46,0,0,1,5.55-19.8,57.12,57.12,0,0,1,9.7-14.15V364.51c-3.32-.73-14.55-2.75-24.34,4C406.82,378.09,403.8,399.94,409.06,404.13Z"/><path class="cls-29" d="M409.06,404.13a20,20,0,0,0-8.32,2.83,20.64,20.64,0,0,0-6.93,7.07c-.43-5.53-1-22.28,9.7-38.2a56.7,56.7,0,0,1,18-17,51.32,51.32,0,0,1,36,7.08,92.76,92.76,0,0,0-16.63-1.42c-8.45.05-13.09.13-18,2.83-2.31,1.28-7.45,4.65-11.08,12.74a49.88,49.88,0,0,0-2.77,11.32,50.58,50.58,0,0,0,0,12.73"/><path class="cls-31" d="M478.35,404.13A33.89,33.89,0,0,1,495,402.72a34.36,34.36,0,0,1,4.16-17,33.06,33.06,0,0,1,8.32-9.91,15.7,15.7,0,0,1,0-4.24,16.25,16.25,0,0,1,2.77-7.08h8.31c-9.76-5.39-21.31-5.41-30,.3-11.64,7.68-16.45,24.66-10,39.8"/><path class="cls-29" d="M478.35,404.13A60.53,60.53,0,0,0,470,411.2a61.19,61.19,0,0,0-6.93,8.49,84.19,84.19,0,0,1,1.38-18.39,86.71,86.71,0,0,1,16.63-36.79,28.78,28.78,0,0,1,16.64-7.07,29.15,29.15,0,0,1,20.78,7.07,56.66,56.66,0,0,0-9.7-1.41c-6.23-.36-12.6-.73-18,2.83-1.16.76-3.86,2.74-6.93,8.49C478.14,385.2,477.8,396.68,478.35,404.13Z"/><path class="cls-31" d="M546.26,409.79A23.25,23.25,0,0,1,558.74,407a23,23,0,0,1,9.7,2.83,33.38,33.38,0,0,0,6.93-32.54,19.4,19.4,0,0,0-8.28-8c-7-3.39-14.61-1.27-18.56,1.47-8.63,6-11.26,22.89-2.86,39.8"/><path class="cls-29" d="M529.63,423.94c.71.18,1.79-7.05,8.32-11.32a18.51,18.51,0,0,1,8.31-2.83c-4.86-12.34-2.48-25.43,5.55-32.54a24,24,0,0,1,15.24-5.66,86.07,86.07,0,0,1,20.79,15.56A32.94,32.94,0,0,0,579.53,373c-7.95-7.85-20.25-11.39-29.11-8.49C527.32,372.09,527.78,423.46,529.63,423.94Z"/><path class="cls-26" d="M416.08,71.46a14.08,14.08,0,0,0,1.45,10.32,13.52,13.52,0,0,0,7.24,5.89,11.71,11.71,0,0,1,2.9-3c3.51-2.44,6.78-1.59,7.24-2.94.65-1.93-5.3-5.6-5.8-5.9a32.35,32.35,0,0,0-13-4.42"/><path class="cls-35" d="M209,240.65a1.2,1.2,0,0,1,1-1.74,56.78,56.78,0,0,1,26.85,4.29,1.24,1.24,0,0,0,.71.07,55.62,55.62,0,0,0,12.67-4.18,54.59,54.59,0,0,0,13.31-8.85,1.23,1.23,0,0,1,1.92.36l.42.83a1.18,1.18,0,0,1,0,1.11,28.66,28.66,0,0,1-12,11.51,29.43,29.43,0,0,1-17.38,2.84,74.47,74.47,0,0,1-9.42-2.13c-4.38-1.3-6.38-2.37-10.14-2.84a29.81,29.81,0,0,0-6.42-.09,1.2,1.2,0,0,1-1.2-.65Z"/><path class="cls-36" d="M188.63,246.88a12.17,12.17,0,0,0,4.35-1.47c2.39-1.37,3.81-3.31,4.34-2.95.16.1.28.42,0,1.47a9.57,9.57,0,0,1-2.89,2.95,9.46,9.46,0,0,1-4.35,1.48c-.48-.5-1-1-1.45-1.48"/></g></g></svg>